<svg xmlns="http://www.w3.org/2000/svg" width="32" height="22" viewBox="0 0 32 22" fill="none">
  <path fill-rule="evenodd" clip-rule="evenodd" d="M2.66667 0H29.3333C30.8061 0 32 1.19391 32 2.66667V18.6667C32 20.1394 30.8061 21.3333 29.3333 21.3333H2.66667C1.19391 21.3333 0 20.1394 0 18.6667V2.66667C0 1.19391 1.19391 0 2.66667 0ZM30.6667 2.66667C30.6667 1.93029 30.0697 1.33333 29.3333 1.33333H2.66667C1.93029 1.33333 1.33333 1.93029 1.33333 2.66667V18.6667C1.33333 19.403 1.93029 20 2.66667 20H29.3333C30.0697 20 30.6667 19.403 30.6667 18.6667V2.66667Z" fill="#1B1B1B"/>
  <path d="M3.55341 6.92005L3.88674 7.73339H2.78674L3.11341 6.92005L3.33341 6.38672L3.55341 6.92005Z" fill="#1B1B1B"/>
  <path fill-rule="evenodd" clip-rule="evenodd" d="M26.8134 5.91986V4.89986H29.02V9.89986H26.9467L26.3267 8.93319V9.89986H23.3334L23.02 9.15319H22.3534L22.0734 9.89986H20.32C19.7881 9.91632 19.2656 9.75699 18.8334 9.44652V9.89986H15.8934L15.1867 9.00652V9.89986H4.00004L3.68004 9.15319H3.01337L2.73337 9.89986H1.33337V9.12652H2.23337L2.52671 8.40652H4.16004L4.45337 9.12652H5.39337L3.91337 5.67319H2.82004L1.33337 9.12652V7.17986L2.30671 4.89986H4.30671L4.88004 6.18652V4.89986H7.33337L7.68671 5.99986L8.06671 4.89986H18.8334V5.40652C19.2695 5.06359 19.8121 4.88432 20.3667 4.89986H23.6534L24.24 6.18652V4.89986H26.1467L26.8134 5.91986ZM9.02004 9.12652H9.83337L9.77337 5.67319H8.44004L7.77337 7.67319L7.66671 8.05319L7.55337 7.67319L6.88671 5.67319H5.55337V9.12652H6.35337V6.85986V6.33319L6.54671 6.85986L7.33337 9.12652H8.06671L8.86004 6.85986L9.02004 6.33319V6.85986V9.12652ZM13.2467 6.40652H11.3334V7.03319H13.2V7.75319H11.3334V8.41986H13.2667V9.15319H10.48V5.67319H13.2467V6.40652ZM15.0267 7.89319L16.0534 9.12652H17.0934L15.9467 7.85319C16.4936 7.78797 16.9009 7.31711 16.8867 6.76652C16.8903 6.45641 16.7612 6.15954 16.532 5.95066C16.3027 5.74179 15.9951 5.64082 15.6867 5.67319H13.8V9.12652H14.6667V7.89319H15.0267ZM18.1267 9.12652H17.2934V5.67319H18.1267V9.12652ZM20.22 9.12652H20.2734L20.6 8.39319H20.3467C20.092 8.40707 19.8443 8.30717 19.6705 8.12048C19.4967 7.9338 19.4147 7.67958 19.4467 7.42652V7.37986C19.4192 7.12839 19.503 6.87747 19.676 6.69292C19.849 6.50837 20.094 6.40863 20.3467 6.41986H21.24V5.67319H20.2734C19.8165 5.644 19.3697 5.81613 19.0504 6.14433C18.7312 6.47253 18.5715 6.92394 18.6134 7.37986V7.42652C18.5638 7.87428 18.7135 8.32121 19.023 8.64863C19.3324 8.97604 19.7702 9.15081 20.22 9.12652ZM23.8 9.12652L23.5067 8.40652H21.8734L21.58 9.12652H20.6667L22.1467 5.67319H23.2534L24.72 9.12652H23.8ZM27.22 9.12652H28.2V5.67319H27.38V7.92652L27.1467 7.53319L25.92 5.67319H24.9V9.12652H25.72V6.79986L25.9467 7.17986L27.22 9.12652ZM22.8867 6.91986L23.2134 7.73319H22.1267L22.4467 6.91986L22.6667 6.38652L22.8867 6.91986ZM14.6667 6.40652H15.6134C15.7247 6.38904 15.8381 6.42098 15.9239 6.494C16.0098 6.56702 16.0595 6.67384 16.06 6.78652C16.0631 6.89666 16.0174 7.00255 15.9352 7.07583C15.8529 7.14912 15.7424 7.18231 15.6334 7.16652H14.6667V6.40652Z" fill="#1B1B1B"/>
  <path fill-rule="evenodd" clip-rule="evenodd" d="M30.6667 12.2064H28.8868C28.5877 12.1727 28.2881 12.2661 28.0612 12.4638C27.8343 12.6616 27.7009 12.9455 27.6934 13.2464C27.6755 13.5329 27.7858 13.8124 27.9945 14.0094C28.2031 14.2065 28.4885 14.3006 28.7734 14.2664H29.5601C29.7331 14.2664 29.8734 14.4067 29.8734 14.5798C29.8734 14.7528 29.7331 14.8931 29.5601 14.8931H27.7934V15.6264H29.5534C30.0315 15.6768 30.4854 15.405 30.6667 14.9598V16.1264C30.3302 16.3333 29.9417 16.4397 29.5467 16.4331H20.0001L19.2801 15.5398V16.4598H17.1801V15.1931C16.8849 15.2874 16.5767 15.3346 16.2668 15.3331H15.9201V16.4331H12.8334L12.3201 15.6864L11.8001 16.4331H6.75342V11.4331H11.8268L12.3401 12.1664L12.8601 11.4331H30.6667V12.2064ZM30.3734 12.9398H28.8601C28.7742 12.9323 28.6892 12.9612 28.6258 13.0196C28.5624 13.0779 28.5264 13.1603 28.5268 13.2464C28.5247 13.3343 28.5596 13.4189 28.623 13.4798C28.6864 13.5406 28.7724 13.5721 28.8601 13.5664H29.6534C30.0777 13.5197 30.4839 13.751 30.6601 14.1398V12.2264L30.3734 12.9398ZM10.3201 12.9398H8.38675V13.5664H10.2868V14.2864H8.38675V14.9531H10.3201V15.6864H7.55342V12.2064H10.3201V12.9398ZM12.3334 14.5464L13.1601 15.6598H14.2201L12.8201 13.9198L14.2068 12.2064H13.1868L12.3401 13.2931L11.5001 12.2064H10.4534L11.8401 13.9331L10.4668 15.6598H11.4734L12.3334 14.5464ZM16.2401 14.5198H15.2001V15.6598H14.3668V12.2064H16.2668C16.5796 12.1799 16.889 12.2875 17.1178 12.5023C17.3467 12.7172 17.4735 13.0192 17.4668 13.3331C17.4833 13.6597 17.3579 13.9776 17.1229 14.205C16.8878 14.4324 16.566 14.5471 16.2401 14.5198ZM19.1201 14.4198L20.1468 15.6598H21.1868L20.0401 14.3864C20.6105 14.2809 21.0008 13.7505 20.9321 13.1745C20.8634 12.5986 20.3593 12.1749 19.7801 12.2064H17.9068V15.6598H18.7401V14.4198H19.1201ZM24.1468 12.9398H22.2134V13.5664H24.1001V14.2864H22.2334V14.9531H24.1668V15.6864H21.3868V12.2064H24.1668L24.1468 12.9398ZM24.6068 15.6598H26.3401H26.3601C26.6685 15.6927 26.9761 15.5905 27.2036 15.3797C27.4311 15.1688 27.5562 14.8698 27.5468 14.5598C27.5633 14.2771 27.4525 14.0019 27.2447 13.8096C27.0369 13.6173 26.7539 13.5281 26.4734 13.5664H25.6734C25.5857 13.5721 25.4997 13.5406 25.4363 13.4798C25.373 13.4189 25.338 13.3343 25.3401 13.2464C25.3398 13.1603 25.3757 13.0779 25.4391 13.0196C25.5025 12.9612 25.5876 12.9323 25.6734 12.9398H27.1601L27.4868 12.2064H25.7001C25.3953 12.1721 25.0903 12.2699 24.8623 12.475C24.6342 12.6801 24.5048 12.973 24.5068 13.2798C24.4889 13.5662 24.5992 13.8457 24.8078 14.0428C25.0164 14.2398 25.3018 14.334 25.5868 14.2998H26.3734C26.5465 14.2998 26.6868 14.4401 26.6868 14.6131C26.6868 14.7862 26.5465 14.9264 26.3734 14.9264H24.6068V15.6598ZM19.6734 12.9398H18.7401V13.6998H19.7068C19.8135 13.7152 19.9216 13.6837 20.0034 13.6134C20.0852 13.5431 20.1326 13.4409 20.1334 13.3331C20.1382 13.2214 20.0935 13.1132 20.0113 13.0375C19.9291 12.9617 19.8177 12.9259 19.7068 12.9398H19.6734ZM15.2001 12.9398H16.1534H16.1868C16.3033 12.9297 16.4184 12.9712 16.5017 13.0533C16.5851 13.1353 16.6283 13.2498 16.6201 13.3664C16.6241 13.4814 16.5793 13.5926 16.4967 13.6727C16.4141 13.7527 16.3015 13.7941 16.1868 13.7864H15.2001V12.9398Z" fill="#1B1B1B"/>
</svg>