<svg xmlns="http://www.w3.org/2000/svg" width="50" height="20" viewBox="0 0 50 20" fill="none">
  <path fill-rule="evenodd" clip-rule="evenodd" d="M40.0217 13.9252C39.7819 14.3912 39.6428 14.9568 39.6428 15.655V15.6535C39.6428 16.3203 39.7814 16.8854 40.0217 17.3615V19.286C40.0217 19.286 37.9752 19.2607 37.9752 18.007V10.4359C37.9752 8.51742 36.799 7.67354 35.2129 7.67354C33.5246 7.67354 31.8111 8.69652 31.8111 10.1804V19.2865C31.8111 19.2865 30.5971 19.2865 30.0392 18.7022V19.2876C29.425 19.0316 28.8882 18.9552 28.3509 18.9552C27.7888 18.9552 27.2501 19.0603 26.6873 19.17L26.6873 19.17C26.072 19.29 25.4279 19.4156 24.6931 19.4156C22.3653 19.4156 19.9612 18.4179 19.9612 15.6556C19.9612 12.7106 22.5007 12.1505 24.7399 11.6567C26.2545 11.3227 27.6316 11.019 27.9927 10.0282C27.9927 8.72389 27.4043 7.8026 25.0255 7.8026C22.6466 7.8026 21.0352 8.72338 21.0352 10.5139C20.549 9.82327 20.3446 9.18378 20.3446 8.64648C20.3446 6.90712 22.5444 6.01214 25.0255 6.01214C27.5297 6.01214 29.1525 6.92434 29.7646 8.52577V0.000187242C29.7683 0.000187242 29.773 0.000157538 29.7787 0.000121793C30.0086 -0.00132506 31.8111 -0.0126709 31.8111 1.53516V5.0908C31.8111 6.83017 31.5551 7.41856 31.5551 7.41856C31.5551 7.41856 32.4505 6.01158 35.5453 6.01158C37.9499 6.01158 40.0217 7.52075 40.0217 10.0529V13.9252ZM8.03155 10.0282C8.03155 8.72389 7.44316 7.8026 5.0643 7.8026C2.68545 7.8026 1.07408 8.72338 1.07408 10.5139C0.587884 9.82327 0.383491 9.18378 0.383491 8.64648C0.383491 6.90712 2.58325 6.01214 5.0643 6.01214C7.5675 6.01214 9.18992 6.92355 9.80265 8.52369V6.13966C9.80265 6.13966 11.8491 6.16546 11.8491 7.41863V15.1947C11.8491 16.7808 12.6677 17.7015 14.9444 17.7015C16.8117 17.7015 18.0138 17.1643 18.0138 17.1643V6.13966C18.0138 6.13966 20.0603 6.13966 20.0603 7.41863V13.9258C19.8205 14.3913 19.6813 14.9569 19.6813 15.6551H19.6803C19.6803 16.3219 19.8189 16.8865 20.0592 17.3626V19.2871C19.4714 18.98 18.9083 18.8778 18.3968 18.8778C17.8095 18.8778 17.2455 19.0008 16.6572 19.1291C16.0161 19.269 15.3461 19.4151 14.5857 19.4151C12.725 19.4151 10.7823 18.8919 10.078 17.1396V19.2876C9.46382 19.0316 8.92704 18.9552 8.38974 18.9552C7.82762 18.9552 7.28893 19.0603 6.72619 19.17L6.72617 19.17C6.11086 19.29 5.46679 19.4156 4.73191 19.4156C2.40415 19.4156 0 18.4179 0 15.6556C0 12.7106 2.53955 12.1505 4.77879 11.6567C6.29331 11.3227 7.67045 11.019 8.03155 10.0282ZM8.10845 12.0488C7.90362 12.7717 6.79341 12.9895 5.5779 13.228C3.91118 13.555 2.04646 13.9208 2.04646 15.6809C2.04646 16.8065 2.89035 17.7784 5.09011 17.7784C6.95747 17.7784 8.10845 17.0878 8.10845 17.0878V12.0488ZM28.0696 12.0488C27.8646 12.7717 26.7544 12.9895 25.5389 13.228C23.8722 13.555 22.0076 13.9208 22.0076 15.6809C22.0076 16.8065 22.8515 17.7784 25.0513 17.7784C26.9186 17.7784 28.0696 17.0878 28.0696 17.0878V12.0488ZM47.9541 10.0282C47.9541 8.72389 47.3657 7.8026 44.9868 7.8026C42.608 7.8026 40.9966 8.72338 40.9966 10.5139C40.5109 9.82327 40.306 9.18378 40.306 8.64648C40.306 6.90712 42.5058 6.01214 44.9868 6.01214C48.2354 6.01214 50 7.54711 50 10.1304V19.2876C49.3863 19.0316 48.849 18.9552 48.3118 18.9552C47.7496 18.9552 47.2109 19.0603 46.6482 19.17C46.0329 19.29 45.3888 19.4156 44.6539 19.4156C42.3262 19.4156 39.9215 18.4179 39.9215 15.6556C39.9215 12.7106 42.4611 12.1505 44.7003 11.6567C46.2148 11.3227 47.592 11.019 47.9531 10.0282H47.9541ZM48.031 12.0488C47.8259 12.7717 46.7157 12.9895 45.5003 13.228C43.8336 13.555 41.969 13.9208 41.969 15.6809C41.969 16.8065 42.8129 17.7784 45.0126 17.7784C46.88 17.7784 48.031 17.0878 48.031 17.0878V12.0488Z" fill="#1B1B1B"/>
</svg>