<svg xmlns="http://www.w3.org/2000/svg" width="44" height="17" viewBox="0 0 44 17" fill="none">
  <g clip-path="url(#clip0_11765_1196)">
    <path d="M7.06776 9.02254C7.06776 7.94768 6.54998 7.18843 4.45658 7.18843C2.36319 7.18843 0.945188 7.94726 0.945188 9.42281C0.517338 8.85369 0.337472 8.32668 0.337472 7.88389C0.337472 6.45045 2.27326 5.71289 4.45658 5.71289C7.3153 5.71289 8.86865 6.97788 8.86865 9.10677V16.6533C8.32816 16.4424 7.85579 16.3794 7.38297 16.3794C6.34741 16.3794 5.40222 16.7588 4.16408 16.7588C2.11565 16.7588 0 15.9366 0 13.6601C0 9.59166 6.28018 11.0464 7.06776 9.02254ZM7.13543 10.6878C6.70803 12.1004 1.80089 11.1727 1.80089 13.681C1.80089 14.6087 2.5435 15.4096 4.47929 15.4096C6.12257 15.4096 7.13543 14.8405 7.13543 14.8405V10.6878Z" fill="black"/>
    <path d="M24.6337 9.02254C24.6337 7.94768 24.1159 7.18843 22.0225 7.18843C19.9291 7.18843 18.5111 7.94726 18.5111 9.42281C18.0833 8.85369 17.9034 8.32668 17.9034 7.88389C17.9034 6.45045 19.8392 5.71289 22.0225 5.71289C24.8812 5.71289 26.4346 6.97788 26.4346 9.10677V16.6533C25.8941 16.4424 25.4217 16.3794 24.9489 16.3794C23.9133 16.3794 22.9681 16.7588 21.73 16.7588C19.6816 16.7588 17.5659 15.9366 17.5659 13.6601C17.5659 9.59166 23.8461 11.0464 24.6337 9.02254ZM24.7014 10.6878C24.2735 12.1004 19.3668 11.1727 19.3668 13.681C19.3668 14.6087 20.1094 15.4096 22.0452 15.4096C23.6885 15.4096 24.7014 14.8405 24.7014 14.8405V10.6878Z" fill="black"/>
    <path d="M17.3197 13.6596C17.3197 13.0843 17.4421 12.6181 17.6532 12.2345V6.87189C17.6532 5.81787 15.8523 5.81787 15.8523 5.81787V14.9034C15.8523 14.9034 14.7945 15.3462 13.1512 15.3462C11.1477 15.3462 10.4274 14.5873 10.4274 13.2802V6.87189C10.4274 5.83913 8.62646 5.81787 8.62646 5.81787V13.5963C8.62646 16.0837 10.7875 16.7583 12.8355 16.7583C14.1186 16.7583 15.1092 16.3155 16.1893 16.3155C16.6394 16.3155 17.1349 16.3998 17.6523 16.6528V15.0668C17.4408 14.6745 17.3188 14.2092 17.3188 13.6596H17.3197Z" fill="black"/>
    <path d="M42.1996 9.02254C42.1996 7.94768 41.6818 7.18843 39.5884 7.18843C37.495 7.18843 36.077 7.94726 36.077 9.42281C35.6496 8.85369 35.4693 8.32668 35.4693 7.88389C35.4693 6.45045 37.4051 5.71289 39.5884 5.71289C42.4471 5.71289 44 6.97788 44 9.10677V16.6533C43.46 16.4424 42.9872 16.3794 42.5143 16.3794C41.4788 16.3794 40.5336 16.7588 39.2954 16.7588C37.247 16.7588 35.1309 15.9366 35.1309 13.6601C35.1309 9.59166 41.4111 11.0464 42.1987 9.02254H42.1996ZM42.2672 10.6878C41.8394 12.1004 36.9327 11.1727 36.9327 13.681C36.9327 14.6087 37.6753 15.4096 39.6111 15.4096C41.2544 15.4096 42.2672 14.8405 42.2672 14.8405V10.6878Z" fill="black"/>
    <path d="M34.8856 13.6598C34.8856 13.0845 35.008 12.6183 35.2191 12.2343V9.04309C35.2191 6.95631 33.3959 5.71259 31.2798 5.71259C28.5564 5.71259 27.7684 6.87209 27.7684 6.87209C27.7684 6.87209 27.9937 6.38719 27.9937 4.95376V2.02393C27.9933 0.716833 26.3277 0.758943 26.1928 0.758943V15.599C26.1928 16.653 27.9937 16.653 27.9937 16.653V9.14857C27.9937 7.92569 29.5016 7.08265 30.9873 7.08265C32.3831 7.08265 33.4182 7.7781 33.4182 9.35913V15.5986C33.4182 16.6318 35.2191 16.6526 35.2191 16.6526V15.0666C35.0076 14.6743 34.8856 14.2085 34.8856 13.659V13.6598Z" fill="black"/>
  </g>
  <defs>
    <clipPath id="clip0_11765_1196">
      <rect width="44" height="16" fill="white" transform="translate(0 0.758789)"/>
    </clipPath>
  </defs>
</svg>
