<svg xmlns="http://www.w3.org/2000/svg" width="23" height="18" viewBox="0 0 23 18" fill="none">
  <g clip-path="url(#clip0_4006_4717)">
    <path d="M6.46233 3.42851C6.68721 3.3872 7.59589 3.37847 7.80651 3.42676C7.94064 3.4576 8.1621 3.65366 8.18835 3.79387L8.19292 14.1515C8.19806 14.2888 8.03425 14.4627 7.9258 14.5192C7.72774 14.6216 6.66096 14.6187 6.41667 14.5599C6.17237 14.5011 6.05993 14.3301 6.02625 14.0852L6.02112 3.96724C6.04224 3.67868 6.17523 3.48087 6.4629 3.42851H6.46233Z" fill="black"/>
    <path d="M11.9418 3.42851C12.1667 3.3872 13.0753 3.37847 13.286 3.42676C13.4201 3.4576 13.6415 3.65366 13.6678 3.79387L13.6724 14.1515C13.6775 14.2888 13.5137 14.4627 13.4052 14.5192C13.2072 14.6216 12.1404 14.6187 11.8961 14.5599C11.6518 14.5011 11.5394 14.3301 11.5057 14.0852L11.5006 3.96724C11.5217 3.67868 11.6547 3.48087 11.9423 3.42851H11.9418Z" fill="black"/>
    <path d="M17.4212 3.42851C17.6461 3.3872 18.5548 3.37847 18.7654 3.42676C18.8995 3.4576 19.121 3.65366 19.1473 3.79387L19.1518 14.1515C19.157 14.2888 18.9932 14.4627 18.8847 14.5192C18.6866 14.6216 17.6199 14.6187 17.3756 14.5599C17.1313 14.5011 17.0188 14.3301 16.9852 14.0852L16.98 3.96724C17.0011 3.67868 17.1341 3.48087 17.4218 3.42851H17.4212Z" fill="black"/>
    <path d="M4.23516 3.42613C4.51712 3.36214 4.83447 3.53027 4.90867 3.82059L4.93721 14.0339C4.86758 14.6308 4.21118 14.7844 3.88128 14.2934L3.84874 3.84851C3.84703 3.67863 4.08276 3.46104 4.23573 3.42672L4.23516 3.42613Z" fill="black"/>
    <path d="M9.71461 3.42613C9.99657 3.36214 10.3139 3.53027 10.3881 3.82059L10.4167 14.0339C10.347 14.6308 9.69064 14.7844 9.36073 14.2934L9.3282 3.84851C9.32648 3.67863 9.56221 3.46104 9.71518 3.42672L9.71461 3.42613Z" fill="black"/>
    <path d="M15.1941 3.42613C15.476 3.36214 15.7934 3.53027 15.8676 3.82059L15.8961 14.0339C15.8265 14.6308 15.1701 14.7844 14.8402 14.2934L14.8076 3.84851C14.8059 3.67863 15.0417 3.46104 15.1946 3.42672L15.1941 3.42613Z" fill="black"/>
    <path d="M1.62557 16.7957H4.45092C4.91838 16.7957 5.18722 17.7632 4.48345 17.9343C3.43379 17.8912 2.1661 18.0785 1.14041 17.9593C0.798518 17.9197 0.578769 17.7667 0.539956 17.4077C0.420093 16.3151 0.622148 14.9875 0.553655 13.8699C0.676943 13.5173 1.03197 13.3689 1.36187 13.5452C1.42923 13.5813 1.62614 13.8024 1.62614 13.8577V16.7957H1.62557Z" fill="black"/>
    <path d="M1.62556 1.20369V4.14173C1.62556 4.197 1.42864 4.41866 1.36129 4.45415C1.04108 4.62461 0.651812 4.48906 0.565625 4.11671C0.610716 3.00898 0.421219 1.67436 0.539369 0.591646C0.578753 0.232682 0.798502 0.0796711 1.1404 0.0401094C2.16608 -0.0791575 3.43378 0.108179 4.48343 0.0651264C5.1872 0.236173 4.91837 1.20369 4.4509 1.20369H1.62556Z" fill="black"/>
    <path d="M18.5491 1.20369C17.972 1.09897 17.8938 0.216392 18.5166 0.0651264C19.5662 0.108179 20.8339 -0.0791575 21.8596 0.0401094C22.2015 0.0796711 22.4212 0.232682 22.4601 0.591646C22.5788 1.67436 22.3887 3.00898 22.4338 4.11671C22.347 4.48964 21.9578 4.6252 21.6381 4.45415C21.5708 4.41808 21.3739 4.197 21.3739 4.14173V1.20369H18.5485H18.5491Z" fill="black"/>
    <path d="M21.3744 13.8576C21.4703 13.405 22.2974 13.2921 22.4344 13.8827C22.3893 14.9904 22.5793 16.325 22.4606 17.4077C22.4212 17.7667 22.2021 17.9197 21.8602 17.9593C20.8345 18.0785 19.5668 17.8912 18.5171 17.9342C17.8134 17.7632 18.0822 16.7957 18.5497 16.7957H21.375V13.8576H21.3744Z" fill="black"/>
  </g>
  <defs>
    <clipPath id="clip0_4006_4717">
      <rect width="22" height="18" fill="white" transform="translate(0.5)"/>
    </clipPath>
  </defs>
</svg>
