<svg xmlns="http://www.w3.org/2000/svg" width="32" height="22" viewBox="0 0 32 22" fill="none">
  <path fill-rule="evenodd" clip-rule="evenodd" d="M2.66667 0H29.3333C30.8061 0 32 1.19391 32 2.66667V18.6667C32 20.1394 30.8061 21.3333 29.3333 21.3333H2.66667C1.19391 21.3333 0 20.1394 0 18.6667V2.66667C0 1.19391 1.19391 0 2.66667 0ZM30.6667 2.66667C30.6667 1.93029 30.0697 1.33333 29.3333 1.33333H2.66667C1.93029 1.33333 1.33333 1.93029 1.33333 2.66667V18.6667C1.33333 19.403 1.93029 20 2.66667 20H29.3333C30.0697 20 30.6667 19.403 30.6667 18.6667V2.66667Z" fill="#1B1B1B"/>
  <path d="M17.3333 12.1466C17.0933 13.1066 15.4667 12.5866 14.9467 12.4532L15.3733 10.7466C15.9067 10.8799 17.6 11.1466 17.3333 12.1466Z" fill="#1B1B1B"/>
  <path d="M17.5867 9.63975C17.3733 10.5198 16.0133 10.0798 15.5867 9.97309L15.9733 8.41309C16.4 8.53309 17.8133 8.73309 17.5867 9.63975Z" fill="#1B1B1B"/>
  <path fill-rule="evenodd" clip-rule="evenodd" d="M9.15221 8.95951C10.0938 5.17649 13.9234 2.87265 17.7067 3.81328C19.5256 4.2637 21.0906 5.41942 22.0561 7.02538C23.0217 8.63134 23.3085 10.5555 22.8533 12.3733C21.9099 16.1558 18.0791 18.4578 14.2963 17.5152C10.5135 16.5727 8.21063 12.7425 9.15221 8.95951ZM18.1333 10.7999C18.683 10.6837 19.0871 10.2142 19.12 9.65328C19.2533 8.71995 18.5467 8.21328 17.56 7.91995L17.88 6.63995L17.1067 6.45328L16.8 7.69328C16.7642 7.68433 16.7288 7.67538 16.6936 7.66649C16.5191 7.62242 16.3509 7.5799 16.1733 7.54661L16.48 6.29328L15.7067 6.09328L15.3867 7.37328L14.8933 7.25328L13.8267 6.98661L13.6267 7.81328L14.1867 7.95995C14.293 7.97004 14.3908 8.02222 14.4584 8.10486C14.526 8.1875 14.5578 8.29375 14.5467 8.39995L14.1867 9.85328L13.68 11.8533C13.657 11.9258 13.6062 11.9862 13.5387 12.0212C13.4711 12.0562 13.3925 12.063 13.32 12.0399C13.28 12.0399 12.76 11.9066 12.76 11.9066L12.3733 12.7866L13.3867 13.0399L13.9333 13.1866L13.6133 14.4666L14.3867 14.6666L14.72 13.3866C14.9215 13.4507 15.1262 13.5041 15.3333 13.5466L15.0133 14.8133L15.7867 14.9999L16.1067 13.7199C17.4267 13.9599 18.4267 13.8666 18.84 12.6666C19.0175 12.3288 19.0418 11.9312 18.9067 11.5743C18.7716 11.2174 18.49 10.9355 18.1333 10.7999Z" fill="#1B1B1B"/>
</svg>