<svg xmlns="http://www.w3.org/2000/svg" width="17" height="12" viewBox="0 0 17 12" fill="none">
  <g clip-path="url(#clip0_4006_4713)">
    <path d="M0.139388 4.09595H16.8386L16.9599 4.28919C16.8575 6.20576 17.0891 8.25873 16.9599 10.1589C16.8919 11.1602 16.2228 11.8813 15.2591 11.9977L1.76123 12C0.838496 11.9245 0.141594 11.2288 0.0260315 10.2876L0.0423514 4.17734L0.139829 4.09595H0.139388ZM3.09637 7.64397C2.61736 7.7331 2.62354 8.35513 2.66676 8.74708C2.72984 9.31682 3.29971 9.32273 3.7474 9.26998C4.30007 9.20496 4.3058 8.61749 4.25464 8.15597C4.19024 7.57486 3.54803 7.5594 3.09637 7.64397Z" fill="black"/>
    <path d="M1.64235 0.00727521L15.2981 0C16.1644 0.105036 16.8608 0.805274 16.9521 1.70513C16.9755 1.93702 16.9945 2.62635 16.9561 2.83506C16.9451 2.89599 16.9235 2.94191 16.8692 2.97283L0.0818204 2.95419C0.0434467 2.92327 0.0297733 2.88235 0.0209517 2.83506C-0.0147755 2.6409 0.00110327 2.00978 0.0183053 1.78879C0.0902009 0.857565 0.744318 0.135955 1.64235 0.00727521Z" fill="black"/>
  </g>
  <defs>
    <clipPath id="clip0_4006_4713">
      <rect width="17" height="12" fill="white"/>
    </clipPath>
  </defs>
</svg>
