<svg width="15" height="14" viewBox="0 0 15 14" fill="none" xmlns="http://www.w3.org/2000/svg">
<path d="M0 0.371546C0.173112 0.00286473 0.380259 -0.0787867 0.7643 0.0707688C1.44078 0.334053 2.11433 0.604419 2.79417 0.858122C3.05216 0.954354 3.17947 1.11891 3.22779 1.38469C3.58788 3.36016 3.95638 5.33396 4.32193 7.30817C4.39672 7.71268 4.47487 8.11635 4.54336 8.5217C4.56185 8.63251 4.60135 8.67208 4.71984 8.67167C7.1577 8.66833 9.59514 8.66875 12.033 8.67083C12.1288 8.67083 12.1796 8.64959 12.2116 8.55002C12.754 6.85909 13.3007 5.16982 13.8465 3.48013C13.8536 3.45764 13.8591 3.43473 13.87 3.3939C13.7364 3.38557 13.612 3.37599 13.4872 3.37057C11.3204 3.27934 9.15353 3.18894 6.98711 3.09729C6.40642 3.07271 5.82574 3.0448 5.24506 3.01897C4.93203 3.00522 4.72866 2.80318 4.74085 2.5174C4.75261 2.24161 4.97236 2.05248 5.27909 2.06456C5.98205 2.09248 6.68458 2.12414 7.38711 2.15496C8.40688 2.19954 9.42665 2.24453 10.4468 2.28827C11.8082 2.34701 13.17 2.40367 14.5314 2.46407C14.8936 2.48032 15.0831 2.78193 14.965 3.14936C14.7015 3.96921 14.4351 4.78822 14.17 5.60765C13.786 6.79535 13.4019 7.98305 13.0179 9.17074C12.9032 9.52568 12.7746 9.62066 12.4015 9.62066C10.0762 9.62066 7.75099 9.62191 5.42573 9.61732C5.29506 9.61732 5.23917 9.65607 5.19884 9.77688C5.08581 10.116 4.9585 10.4501 4.82656 10.8146C4.90387 10.8146 4.96354 10.8146 5.02362 10.8146C7.47115 10.8146 9.91867 10.8146 12.3658 10.8146C12.4292 10.8146 12.4931 10.8138 12.5557 10.8217C12.7742 10.8492 12.9276 11.0191 12.9221 11.2229C12.9166 11.4282 12.7574 11.5957 12.5397 11.6103C12.3956 11.6199 12.2498 11.612 12.0733 11.612C12.3817 11.999 12.5019 12.4093 12.4032 12.8671C12.3254 13.2271 12.1275 13.5124 11.8296 13.7324C11.2889 14.1315 10.5262 14.0823 10.0006 13.5974C9.5943 13.2229 9.28547 12.4451 9.89809 11.6249H6.79172C7.1161 12.0556 7.23627 12.5176 7.05938 13.0313C6.95475 13.3354 6.76441 13.577 6.49844 13.7549C5.92994 14.1352 5.16985 14.0632 4.68286 13.5808C4.2526 13.1542 4.02403 12.3843 4.61269 11.6136C4.50597 11.6136 4.41731 11.6145 4.32823 11.6136C3.94923 11.6103 3.7736 11.367 3.89965 11.015C4.04798 10.6005 4.19966 10.1868 4.34966 9.77271C4.36563 9.72855 4.37823 9.68315 4.39882 9.61941C4.31689 9.61941 4.2505 9.62107 4.18369 9.61941C3.92486 9.61108 3.74209 9.45902 3.69461 9.20448C3.5362 8.35798 3.38074 7.51105 3.22359 6.66412C2.92484 5.05151 2.62442 3.43889 2.32946 1.82544C2.31139 1.72588 2.27021 1.6788 2.17735 1.64339C1.59499 1.42135 1.01641 1.18806 0.432781 0.969352C0.229836 0.894365 0.0731106 0.783969 0 0.575258V0.371546ZM11.0027 11.9356C10.6485 11.9327 10.3552 12.2164 10.3527 12.5651C10.3502 12.9117 10.6447 13.2037 10.9964 13.2029C11.3443 13.2021 11.6309 12.9225 11.6368 12.5789C11.6427 12.2285 11.3569 11.9386 11.0027 11.9356ZM6.33709 12.5647C6.33541 12.2118 6.04927 11.9327 5.6917 11.9356C5.34254 11.9386 5.06228 12.2177 5.06018 12.5647C5.05808 12.9163 5.34506 13.2033 5.69927 13.2033C6.05221 13.2033 6.33835 12.9167 6.33709 12.5647Z" fill="#CCCCCC"/>
</svg>
