<svg xmlns="http://www.w3.org/2000/svg" width="32" height="22" viewBox="0 0 32 22" fill="none">
  <path fill-rule="evenodd" clip-rule="evenodd" d="M2.66667 0H29.3333C30.8061 0 32 1.19391 32 2.66667V18.6667C32 20.1394 30.8061 21.3333 29.3333 21.3333H2.66667C1.19391 21.3333 0 20.1394 0 18.6667V2.66667C0 1.19391 1.19391 0 2.66667 0ZM30.6667 2.66667C30.6667 1.93029 30.0697 1.33333 29.3333 1.33333H2.66667C1.93029 1.33333 1.33333 1.93029 1.33333 2.66667V18.6667C1.33333 19.403 1.93029 20 2.66667 20H29.3333C30.0697 20 30.6667 19.403 30.6667 18.6667V2.66667Z" fill="#1B1B1B"/>
  <path fill-rule="evenodd" clip-rule="evenodd" d="M8.7533 13.82C8.7533 14.2534 8.49996 15.3334 6.95996 15.3334H5.7533V15.22C5.75916 15.2194 5.76497 15.2188 5.7707 15.2182C6.01925 15.1929 6.14663 15.1799 6.14663 14.8867V12.7867C6.14663 12.4134 5.94663 12.4134 5.7533 12.4134V12.3H7.0133C7.44861 12.2574 7.88218 12.3965 8.21159 12.6842C8.54099 12.972 8.737 13.3829 8.7533 13.82ZM6.9133 12.46C6.80006 12.4535 6.68653 12.4535 6.5733 12.46L6.54663 14.82C6.54663 15.1534 6.78663 15.1934 6.99996 15.1934C7.35009 15.2069 7.68883 15.0676 7.92813 14.8117C8.16744 14.5558 8.28367 14.2084 8.24663 13.86C8.2649 13.495 8.13254 13.1385 7.88048 12.8738C7.62842 12.6092 7.27878 12.4596 6.9133 12.46Z" fill="#1B1B1B"/>
  <path d="M9.8333 15.333V15.2196H9.75997C9.6333 15.2196 9.53997 15.2196 9.53997 15.073V13.4063V13.3463C9.51364 13.3403 9.4863 13.3403 9.45997 13.3463C9.30743 13.4081 9.15165 13.4615 8.9933 13.5063V13.573C9.1533 13.6596 9.21997 13.6863 9.21997 13.8796V15.053C9.21997 15.1996 9.1333 15.1996 9.0133 15.1996H8.92664V15.333H9.85997H9.8333Z" fill="#1B1B1B"/>
  <path d="M9.36661 12.7063C9.42436 12.7064 9.47966 12.683 9.51986 12.6415C9.56007 12.6001 9.58174 12.5441 9.57994 12.4863C9.57634 12.3711 9.48187 12.2796 9.36661 12.2797C9.24879 12.2797 9.15327 12.3752 9.15327 12.493C9.15327 12.6108 9.24879 12.7063 9.36661 12.7063Z" fill="#1B1B1B"/>
  <path d="M12.1332 15.2464H12.0599C11.9332 15.2464 11.8399 15.2464 11.8399 15.0997V13.9997C11.8399 13.6664 11.7132 13.3931 11.3399 13.3931C11.0616 13.4157 10.7988 13.5307 10.5932 13.7197V13.4397C10.5932 13.4064 10.5932 13.3931 10.5932 13.3931C10.4061 13.4724 10.2147 13.5414 10.0199 13.5997V13.6864C10.2199 13.7664 10.2732 13.8131 10.2732 13.9731V15.1197C10.2732 15.2664 10.1866 15.2664 10.0599 15.2664H9.98657V15.3331H10.9132V15.2197H10.8332C10.7132 15.2197 10.6199 15.2197 10.6199 15.0731V13.8197C10.7658 13.7074 10.9379 13.634 11.1199 13.6064C11.225 13.5922 11.3309 13.6259 11.4084 13.6982C11.4859 13.7706 11.5269 13.8739 11.5199 13.9797V15.0997C11.5199 15.2464 11.4332 15.2464 11.3132 15.2464H11.2332V15.3331H12.1332V15.2464Z" fill="#1B1B1B"/>
  <path fill-rule="evenodd" clip-rule="evenodd" d="M13.7533 14.933C13.5815 15.2197 13.2801 15.404 12.9466 15.4263C12.7126 15.4212 12.4905 15.3222 12.33 15.1518C12.1696 14.9813 12.0843 14.7536 12.0933 14.5197C12.0933 13.6663 12.6666 13.413 12.9666 13.413C13.1547 13.3941 13.3419 13.4559 13.4818 13.583C13.6216 13.7102 13.7009 13.8907 13.7 14.0797V14.1597H13.66H12.44C12.4326 14.244 12.4326 14.3287 12.44 14.413C12.4245 14.8009 12.7194 15.1312 13.1066 15.1597C13.3328 15.1472 13.5444 15.0438 13.6933 14.873L13.7533 14.933ZM12.9466 13.513C12.9521 13.5129 12.9576 13.5129 12.963 13.513H12.9466ZM12.9678 13.5132C12.9662 13.5131 12.9646 13.513 12.963 13.513H12.98C12.9759 13.513 12.9718 13.5131 12.9678 13.5132ZM12.9678 13.5132C13.0645 13.5166 13.1564 13.5582 13.2229 13.6294C13.2942 13.7058 13.3295 13.809 13.32 13.913C13.32 13.9663 13.32 14.0197 13.2 14.0197H12.48C12.5325 13.7112 12.7078 13.519 12.9678 13.5132Z" fill="#1B1B1B"/>
  <path d="M13.9467 15.2468H13.8267V15.3334H14.9533V15.2201H14.7133C14.5867 15.2201 14.5 15.2201 14.5 15.0734V14.0801C14.5018 13.897 14.6384 13.7434 14.82 13.7201C14.9733 13.7201 14.9733 13.8268 15.1067 13.8268C15.1627 13.8251 15.2156 13.8007 15.2534 13.7592C15.2911 13.7177 15.3103 13.6627 15.3067 13.6068C15.3068 13.5425 15.2804 13.481 15.2337 13.4369C15.187 13.3927 15.1242 13.3698 15.06 13.3734C14.8 13.3734 14.6133 13.6534 14.5067 13.8201V13.4334C14.5067 13.3868 14.5067 13.3734 14.4667 13.3734C14.4267 13.3734 14.2533 13.4868 13.9333 13.6201V13.6868C14 13.6868 14.16 13.7468 14.16 13.8801V15.1001C14.1533 15.2468 14.0667 15.2468 13.9467 15.2468Z" fill="#1B1B1B"/>
  <path d="M16.0466 15.2864C15.7565 15.2706 15.5229 15.0427 15.4999 14.7531H15.4199L15.4733 15.2464C15.6334 15.3404 15.8144 15.3931 15.9999 15.3998C16.5133 15.3998 16.7466 15.0931 16.7466 14.8064C16.7466 14.1398 15.7399 14.2798 15.7399 13.7731C15.7449 13.6892 15.7841 13.611 15.8484 13.5568C15.9127 13.5026 15.9964 13.4772 16.0799 13.4864C16.3279 13.4751 16.5389 13.6653 16.5533 13.9131H16.6666L16.6333 13.4731C16.4806 13.3938 16.3119 13.3504 16.1399 13.3464C15.976 13.3258 15.8108 13.3745 15.6843 13.4808C15.5577 13.5871 15.4812 13.7414 15.4733 13.9064C15.4733 14.5731 16.4199 14.4398 16.4199 14.9531C16.4281 15.0511 16.3897 15.1473 16.3164 15.2128C16.243 15.2784 16.1431 15.3056 16.0466 15.2864Z" fill="#1B1B1B"/>
  <path d="M20.5732 15.193L20.6732 14.5597H20.5732C20.5075 14.9917 20.1369 15.3114 19.6999 15.313C18.9292 15.2493 18.3529 14.5779 18.4066 13.8064C18.3647 13.457 18.4741 13.1064 18.7071 12.8428C18.9402 12.5792 19.2747 12.4277 19.6266 12.4264C20.0809 12.3672 20.4978 12.6858 20.5599 13.1397H20.6666L20.6199 12.5197C20.2958 12.3841 19.9508 12.3052 19.5999 12.2864C18.7236 12.2601 17.9894 12.9438 17.9532 13.8197C17.927 14.2652 18.0944 14.7003 18.4125 15.0132C18.7305 15.3262 19.1683 15.4865 19.6132 15.453C19.9476 15.4328 20.2744 15.3443 20.5732 15.193Z" fill="#1B1B1B"/>
  <path d="M21.7533 15.3332V15.2199H21.6799C21.5533 15.2199 21.4599 15.2199 21.4599 15.0732V12.0732V12.0132C21.4599 12.0132 21.4133 12.0132 21.3666 12.0599C21.2241 12.1363 21.0745 12.1989 20.9199 12.2465V12.3199C21.0799 12.3665 21.1466 12.3732 21.1466 12.6599V15.0732C21.1466 15.2199 21.0599 15.2199 20.9399 15.2199H20.8533V15.3332H21.7866H21.7533Z" fill="#1B1B1B"/>
  <path d="M22 13.7933V14.9066C21.9846 15.0405 22.0278 15.1745 22.1185 15.2742C22.2092 15.3738 22.3386 15.4294 22.4733 15.4266C22.7681 15.4061 23.0443 15.2752 23.2467 15.0599V15.4133C23.452 15.3519 23.6614 15.3052 23.8733 15.2733V15.1999H23.7333C23.66 15.1999 23.6067 15.1999 23.6067 15.1199V13.5199C23.6067 13.4733 23.6067 13.4399 23.6067 13.4399C23.6067 13.4399 23.32 13.4733 22.94 13.4999V13.5799C23.0933 13.6199 23.3 13.6666 23.3 13.7533V14.9266C23.157 15.0639 22.9756 15.1545 22.78 15.1866C22.4 15.1866 22.4 14.8133 22.4 14.6866V13.5666C22.4 13.4733 22.4 13.4399 22.3533 13.4399L21.7933 13.4733V13.5533C22 13.5733 22 13.6799 22 13.7933Z" fill="#1B1B1B"/>
  <path fill-rule="evenodd" clip-rule="evenodd" d="M24.1266 14.5334V12.6667C24.1266 12.4096 24.0646 12.3942 23.8928 12.3516C23.8865 12.35 23.88 12.3484 23.8733 12.3467V12.2734C24.0288 12.2282 24.1786 12.1656 24.32 12.0867L24.42 12.04C24.4533 12.04 24.4533 12.1 24.4533 12.1V13.6934C24.6329 13.5154 24.8683 13.4048 25.12 13.38C25.3495 13.3902 25.5651 13.4932 25.7172 13.6654C25.8694 13.8376 25.9449 14.0643 25.9266 14.2934C25.9493 14.8936 25.4864 15.401 24.8866 15.4334C24.6771 15.4321 24.4711 15.3795 24.2866 15.28L24.1533 15.38L24.0666 15.3334C24.1079 15.0687 24.1279 14.8012 24.1266 14.5334ZM24.8866 13.5867C24.7286 13.6041 24.582 13.6774 24.4733 13.7934L24.44 14.8467C24.4501 15.0891 24.6443 15.2832 24.8866 15.2934C25.36 15.2934 25.5533 14.8334 25.5533 14.4467C25.5777 14.0336 25.2928 13.6661 24.8866 13.5867Z" fill="#1B1B1B"/>
  <path d="M6.09328 16.3063H5.74661V16.3996H5.79328C5.87994 16.3996 5.95328 16.3996 5.95994 16.5263V17.7596C5.95994 17.8796 5.87994 17.8863 5.79328 17.8863H5.73328V17.9996H6.07994H6.45328V17.913H6.43328C6.34661 17.913 6.26661 17.913 6.26661 17.7863V16.513C6.26661 16.393 6.34661 16.3863 6.43328 16.3863H6.47994V16.293L6.09328 16.3063Z" fill="#1B1B1B"/>
  <path d="M8.16663 16.3066H7.8333V16.4H7.8933C7.96663 16.4 8.08663 16.4 8.0933 16.6133V17.48L7.0533 16.3133C6.9733 16.3133 6.90663 16.3133 6.8333 16.3133H6.55996V16.4066H6.59996C6.65415 16.4048 6.70675 16.4251 6.74572 16.4628C6.78468 16.5005 6.80666 16.5524 6.80663 16.6066V17.6066C6.80663 17.7933 6.75996 17.8933 6.59996 17.8933H6.54663V18H6.8733H7.1733V17.9133H7.11996C6.94663 17.9133 6.9133 17.8533 6.90663 17.6466V16.6666L8.10663 18H8.21996C8.21996 17.9266 8.21996 17.8466 8.21996 17.7666V16.6666C8.21996 16.3933 8.32663 16.38 8.41996 16.38H8.46663V16.2866L8.16663 16.3066Z" fill="#1B1B1B"/>
  <path d="M10.0999 16.2197C10.0999 16.2797 10.0466 16.2797 9.97989 16.2797H8.74656C8.68656 16.2797 8.64656 16.2797 8.62656 16.2197H8.55322C8.55676 16.2841 8.55676 16.3487 8.55322 16.4131C8.55322 16.4864 8.55322 16.5531 8.55322 16.6131H8.64656C8.68656 16.4397 8.68656 16.4064 8.85989 16.4064H9.23322V17.6597C9.23322 17.8397 9.17989 17.8397 9.04656 17.8464H8.99322V17.9997H9.39322H9.77322V17.9131H9.71989C9.60656 17.9131 9.53322 17.9131 9.53322 17.7197V16.4331H9.90656C10.0599 16.4331 10.0666 16.5597 10.0732 16.6531L10.1599 16.6197V16.4264C10.1599 16.3664 10.1599 16.2997 10.1599 16.2331H10.0932L10.0999 16.2197Z" fill="#1B1B1B"/>
  <path d="M11.5133 17.5463C11.4467 17.813 11.3267 17.8263 11.0467 17.8263C10.8933 17.8263 10.7667 17.8263 10.7667 17.6797V17.1397H11.04C11.2 17.1397 11.2 17.2263 11.2133 17.3663H11.3C11.3 17.273 11.3 17.1863 11.3 17.0997C11.3 17.013 11.3 16.913 11.3 16.8197H11.2067C11.2067 16.9463 11.1667 17.013 11.0333 17.0197H10.76V16.4197H11.08C11.32 16.4197 11.34 16.533 11.3533 16.6863H11.4333C11.4333 16.6197 11.4333 16.5263 11.4333 16.4463V16.313H10.8267H10.24V16.4063H10.28C10.3667 16.4063 10.44 16.4063 10.4467 16.533V17.7663C10.4467 17.8863 10.3667 17.893 10.28 17.893H10.24V17.9997H10.8667H11.5333C11.5333 17.8797 11.5867 17.753 11.6133 17.6263H11.54L11.5133 17.5463Z" fill="#1B1B1B"/>
  <path fill-rule="evenodd" clip-rule="evenodd" d="M12.6866 17.1396L13.0866 17.733C13.1173 17.8428 13.2193 17.9172 13.3332 17.913V17.9996L13.0732 17.9596H12.8466C12.6645 17.7182 12.4997 17.4642 12.3532 17.1996H12.2132V17.733C12.2199 17.913 12.2866 17.913 12.3999 17.913H12.4399V17.9996H12.0332H11.6932V17.873H11.7466C11.8332 17.873 11.9066 17.833 11.9066 17.753V16.553C11.9066 16.3863 11.8199 16.3863 11.7466 16.3863H11.6932V16.293H12.0599H12.4399C12.7332 16.293 13.0132 16.3796 13.0132 16.7196C13.0087 16.9163 12.8761 17.0868 12.6866 17.1396ZM12.3132 17.093C12.5466 17.093 12.6666 17.013 12.6666 16.733C12.6669 16.6468 12.631 16.5645 12.5675 16.5061C12.5041 16.4478 12.4191 16.4188 12.3332 16.4263H12.2066V17.093H12.3132Z" fill="#1B1B1B"/>
  <path d="M15.2866 16.3863V16.293H14.9933H14.66V16.3863H14.72C14.7933 16.3863 14.9133 16.3863 14.92 16.5996V17.4663L13.8666 16.2996C13.7866 16.2996 13.72 16.2996 13.6466 16.2996H13.3733V16.393H13.4133C13.4675 16.3912 13.5201 16.4114 13.559 16.4491C13.598 16.4868 13.62 16.5387 13.62 16.593V17.5863C13.62 17.7796 13.5733 17.8796 13.4133 17.8796H13.3733V17.9996H13.7H14V17.913H13.9466C13.7733 17.913 13.74 17.853 13.74 17.6463V16.6663L14.9333 17.9996H15.0466C15.0466 17.9263 15.0466 17.8463 15.0466 17.7663V16.6663C15.0466 16.393 15.1533 16.3796 15.2466 16.3796H15.2933L15.2866 16.3863Z" fill="#1B1B1B"/>
  <path fill-rule="evenodd" clip-rule="evenodd" d="M16.6958 17.6109C16.7243 17.6714 16.7532 17.7326 16.7532 17.7866C16.7533 17.8389 16.7814 17.8872 16.8267 17.9133C16.8721 17.9395 16.9279 17.9394 16.9732 17.9132V17.9999H16.6532H16.2932V17.9132H16.3266C16.3866 17.9132 16.4666 17.8999 16.4666 17.8532C16.4577 17.796 16.442 17.7401 16.4199 17.6866L16.3266 17.4199H15.8066L15.7332 17.6599C15.7116 17.7187 15.6938 17.7788 15.6799 17.8399C15.6799 17.9132 15.7732 17.9132 15.8466 17.9132H15.8866V17.9999H15.5999H15.3466V17.8799C15.4384 17.8809 15.5199 17.8212 15.5466 17.7332L15.9199 16.6466C15.958 16.5489 15.9892 16.4486 16.0132 16.3466C16.0904 16.3225 16.1643 16.2889 16.2332 16.2466V16.3066L16.6666 17.5466C16.6753 17.5677 16.6855 17.5892 16.6958 17.6109ZM15.9999 16.5932L15.7932 17.2266H16.2066L15.9999 16.5932Z" fill="#1B1B1B"/>
  <path d="M18.3066 16.2197C18.3066 16.2797 18.2532 16.2797 18.1866 16.2797H16.9599C16.8999 16.2797 16.8532 16.2797 16.8399 16.2197H16.7599C16.7667 16.284 16.7667 16.3488 16.7599 16.4131C16.7599 16.4864 16.7599 16.5531 16.7599 16.6197H16.8532C16.8866 16.4464 16.8866 16.4131 17.0599 16.4131H17.4399V17.6664C17.4399 17.8464 17.3799 17.8464 17.2532 17.8531H17.1932V17.9997H17.5932H17.9799V17.9131H17.9266C17.8132 17.9131 17.7399 17.9131 17.7399 17.7197V16.4331H18.1199C18.2666 16.4331 18.2732 16.5597 18.2799 16.6531L18.3666 16.6197C18.3631 16.5553 18.3631 16.4908 18.3666 16.4264C18.3666 16.3664 18.3666 16.2997 18.3666 16.2331H18.2999L18.3066 16.2197Z" fill="#1B1B1B"/>
  <path d="M18.8133 16.3063H18.46V16.3996H18.5C18.5866 16.3996 18.6666 16.3996 18.6666 16.5263V17.7596C18.6666 17.8796 18.5866 17.8863 18.5 17.8863H18.46V17.9996H18.8066H19.18V17.913H19.1333C19.0466 17.913 18.9733 17.913 18.9733 17.7863V16.513C18.9733 16.393 19.0466 16.3863 19.1333 16.3863H19.18V16.293L18.8133 16.3063Z" fill="#1B1B1B"/>
  <path fill-rule="evenodd" clip-rule="evenodd" d="M19.4958 16.5155C19.6612 16.35 19.8861 16.2579 20.12 16.2597C20.354 16.2373 20.5866 16.3139 20.7615 16.471C20.9363 16.6281 21.0373 16.8513 21.04 17.0864C21.0494 17.3302 20.9571 17.5669 20.7852 17.7401C20.6133 17.9132 20.3772 18.0073 20.1333 17.9997C19.8985 18.0127 19.6688 17.9274 19.4993 17.7643C19.3299 17.6011 19.2359 17.3749 19.24 17.1397C19.2382 16.9058 19.3303 16.6809 19.4958 16.5155ZM20.6867 17.1397C20.6867 16.793 20.5 16.3864 20.12 16.3864C19.7133 16.3864 19.5933 16.7464 19.5933 17.0597C19.5933 17.4797 19.7133 17.873 20.16 17.873C20.6067 17.873 20.6867 17.4864 20.6867 17.1397Z" fill="#1B1B1B"/>
  <path d="M22.9999 16.3863V16.293H22.7132H22.3799V16.3863H22.4399C22.5066 16.3863 22.6332 16.3863 22.6332 16.5996V17.4663L21.5932 16.2996C21.5132 16.2996 21.4466 16.2996 21.3799 16.2996H21.1066V16.393H21.1466C21.2002 16.3911 21.2521 16.4116 21.2901 16.4495C21.328 16.4874 21.3484 16.5394 21.3466 16.593V17.593C21.3466 17.7796 21.2999 17.8796 21.1466 17.8796H21.1066V17.9996H21.4266H21.7332V17.913H21.6866C21.5066 17.913 21.4799 17.853 21.4732 17.6463V16.6663L22.6666 17.9996H22.7732C22.7664 17.922 22.7664 17.8439 22.7732 17.7663V16.6663C22.7732 16.393 22.8732 16.3796 22.9732 16.3796H23.0199L22.9999 16.3863Z" fill="#1B1B1B"/>
  <path fill-rule="evenodd" clip-rule="evenodd" d="M24.38 17.5466C24.4048 17.628 24.4338 17.7081 24.4667 17.7866C24.4689 17.8295 24.4908 17.8689 24.5259 17.8936C24.561 17.9183 24.6055 17.9256 24.6467 17.9132V17.9999H24.32H23.9667V17.9132H24C24.0533 17.9132 24.1333 17.8999 24.1333 17.8532C24.1236 17.7962 24.108 17.7404 24.0867 17.6866L24 17.4199H23.5667L23.4933 17.6599C23.4685 17.7176 23.4506 17.778 23.44 17.8399C23.44 17.9132 23.5267 17.9132 23.6067 17.9132V17.9999H23.32H23.0667V17.8799C23.156 17.878 23.234 17.8188 23.26 17.7332L23.64 16.6466C23.6781 16.5489 23.7093 16.4486 23.7333 16.3466C23.8079 16.3212 23.8795 16.2877 23.9467 16.2466V16.3066L24.38 17.5466ZM23.5 17.2266H23.9133L23.7133 16.5932L23.5 17.2266Z" fill="#1B1B1B"/>
  <path d="M26 17.5396C25.9856 17.5991 25.9608 17.6556 25.9266 17.7063C25.8713 17.7729 25.7926 17.8158 25.7066 17.8263H25.4C25.3266 17.8263 25.2666 17.793 25.2666 17.6996V16.5063C25.2666 16.3863 25.3266 16.3863 25.4133 16.3863H25.4866V16.293H25.1266H24.7533V16.3863H24.7933C24.88 16.3863 24.96 16.3863 24.96 16.513V17.7263C24.96 17.8663 24.88 17.873 24.7933 17.873H24.7533V17.9996H25.38H26C26 17.8663 26.06 17.733 26.0866 17.5996H26V17.5396Z" fill="#1B1B1B"/>
  <path fill-rule="evenodd" clip-rule="evenodd" d="M25.7599 16.4906C25.7575 16.3553 25.8646 16.2433 25.9999 16.2396C26.067 16.2359 26.1326 16.2604 26.1808 16.3073C26.2289 16.3542 26.2552 16.4191 26.2532 16.4863C26.2532 16.6217 26.1441 16.7317 26.0087 16.7329C25.8734 16.7341 25.7624 16.626 25.7599 16.4906ZM25.7999 16.4663C25.7999 16.5768 25.8894 16.6663 25.9999 16.6663C26.0529 16.6663 26.1038 16.6452 26.1413 16.6077C26.1788 16.5702 26.1999 16.5193 26.1999 16.4663C26.1999 16.3558 26.1103 16.2663 25.9999 16.2663C25.8894 16.2663 25.7999 16.3558 25.7999 16.4663Z" fill="#1B1B1B"/>
  <path fill-rule="evenodd" clip-rule="evenodd" d="M26.1066 16.4197C26.1072 16.4555 26.0819 16.4865 26.0466 16.493V16.5464L26.1 16.6064H26.0533C26.036 16.6064 26.0215 16.584 26.0008 16.5519C25.9895 16.5344 25.9764 16.5141 25.96 16.493V16.573H25.8933V16.3864V16.353H26.02C26.0666 16.353 26.1066 16.373 26.1066 16.4197ZM25.9733 16.3797V16.493H25.98C26.0266 16.493 26.0266 16.4664 26.0266 16.433C26.029 16.4183 26.0241 16.4033 26.0135 16.3928C26.003 16.3823 25.988 16.3774 25.9733 16.3797Z" fill="#1B1B1B"/>
  <path d="M12.5066 7.52008C12.5068 8.5299 13.1339 9.43346 14.0799 9.78675V5.25342C13.1339 5.60671 12.5068 6.51027 12.5066 7.52008Z" fill="#1B1B1B"/>
  <path d="M15.8132 5.25342V9.80008C16.7548 9.43599 17.375 8.52962 17.3732 7.52008C17.379 6.51245 16.7565 5.60789 15.8132 5.25342V5.25342Z" fill="#1B1B1B"/>
  <path fill-rule="evenodd" clip-rule="evenodd" d="M14.9066 3.33321H16.9066C18.0503 3.30641 19.1574 3.73796 19.9813 4.5318C20.8052 5.32563 21.2775 6.41588 21.2932 7.55988C21.1892 9.9013 19.2502 11.7401 16.9066 11.7199H14.9066C12.5921 11.7347 10.7019 9.87427 10.6799 7.55988C10.656 6.43174 11.0936 5.34275 11.8915 4.54486C12.6894 3.74697 13.7784 3.30933 14.9066 3.33321ZM11.1066 7.49321C11.1066 9.61398 12.8258 11.3332 14.9465 11.3332C17.0673 11.3332 18.7865 9.61398 18.7865 7.49321C18.7865 5.37244 17.0673 3.65321 14.9465 3.65321C12.8258 3.65321 11.1066 5.37244 11.1066 7.49321Z" fill="#1B1B1B"/>
</svg>