<svg xmlns="http://www.w3.org/2000/svg" width="32" height="22" viewBox="0 0 32 22" fill="none">
  <path fill-rule="evenodd" clip-rule="evenodd" d="M2.66667 0H29.3333C30.8061 0 32 1.19391 32 2.66667V18.6667C32 20.1394 30.8061 21.3333 29.3333 21.3333H2.66667C1.19391 21.3333 0 20.1394 0 18.6667V2.66667C0 1.19391 1.19391 0 2.66667 0ZM30.6667 2.66667C30.6667 1.93029 30.0697 1.33333 29.3333 1.33333H2.66667C1.93029 1.33333 1.33333 1.93029 1.33333 2.66667V18.6667C1.33333 19.403 1.93029 20 2.66667 20H29.3333C30.0697 20 30.6667 19.403 30.6667 18.6667V2.66667Z" fill="#1B1B1B"/>
  <path d="M30.6667 11.813V18.6663C30.6667 19.4027 30.0697 19.9997 29.3333 19.9997H7.94666C22.6667 17.4797 30.6667 11.813 30.6667 11.813Z" fill="#1B1B1B"/>
  <path fill-rule="evenodd" clip-rule="evenodd" d="M2.66663 7.09316H3.88663C4.48226 7.04216 5.07163 7.24582 5.50871 7.65368C5.94579 8.06153 6.18968 8.63542 6.17996 9.23316C6.17869 9.86612 5.89813 10.4663 5.41329 10.8732C4.98069 11.2166 4.4384 11.3918 3.88663 11.3665H2.66663V7.09316ZM3.71996 10.6665C4.13378 10.7023 4.54461 10.5702 4.85996 10.2998C5.16325 10.0229 5.33521 9.63054 5.33329 9.21983C5.33395 8.81323 5.16189 8.42549 4.85996 8.15316C4.54045 7.89197 4.13079 7.76739 3.71996 7.80649H3.49996V10.6665H3.71996Z" fill="#1B1B1B"/>
  <rect x="6.56665" y="7.08643" width="0.833333" height="4.28" fill="#1B1B1B"/>
  <path d="M9.4466 8.72665C8.9466 8.54665 8.77993 8.41998 8.77993 8.19332C8.77993 7.96665 9.03993 7.71332 9.39993 7.71332C9.66255 7.72434 9.90675 7.85132 10.0666 8.05998L10.4999 7.49332C10.1578 7.18065 9.71003 7.00915 9.2466 7.01332C8.90515 6.99141 8.56959 7.11006 8.31779 7.34171C8.06599 7.57337 7.91984 7.89789 7.91327 8.23998C7.91327 8.83332 8.17993 9.13332 8.95993 9.41332C9.16043 9.47755 9.35459 9.56012 9.53993 9.65998C9.69707 9.75071 9.7937 9.91853 9.79327 10.1C9.79205 10.2712 9.71936 10.434 9.59275 10.5493C9.46614 10.6645 9.29714 10.7215 9.1266 10.7066C8.73781 10.7109 8.38279 10.4864 8.21993 10.1333L7.67993 10.6533C7.99507 11.1869 8.58117 11.5005 9.19993 11.4666C9.58473 11.493 9.96285 11.3562 10.2418 11.0899C10.5208 10.8236 10.675 10.4523 10.6666 10.0666C10.6666 9.38665 10.3933 9.07332 9.4466 8.72665Z" fill="#1B1B1B"/>
  <path d="M10.9399 9.22649C10.9344 9.82514 11.1716 10.4005 11.5974 10.8213C12.0232 11.2421 12.6014 11.4725 13.1999 11.4598C13.5635 11.462 13.9223 11.3774 14.2466 11.2132V10.2332C13.9948 10.5276 13.6273 10.6979 13.2399 10.6998C12.848 10.7096 12.4698 10.5555 12.1965 10.2745C11.9231 9.99358 11.7794 9.61129 11.7999 9.21982C11.7873 8.83864 11.9286 8.46843 12.192 8.19255C12.4553 7.91667 12.8186 7.75832 13.1999 7.75315C13.6017 7.75476 13.9832 7.92973 14.2466 8.23315V7.25315C13.9324 7.07897 13.5792 6.98723 13.2199 6.98649C12.62 6.97938 12.042 7.21181 11.614 7.63228C11.186 8.05275 10.9434 8.62653 10.9399 9.22649Z" fill="#1B1B1B"/>
  <path d="M20.8666 9.95976L19.7199 7.08643H18.8132L20.6266 11.4731H21.0732L22.9266 7.08643H22.0199L20.8666 9.95976Z" fill="#1B1B1B"/>
  <path d="M23.2999 11.3664H25.6733V10.6398H24.1333V9.48643H25.6133V8.75976H24.1333V7.81309H25.6733V7.08643H23.2999V11.3664Z" fill="#1B1B1B"/>
  <path fill-rule="evenodd" clip-rule="evenodd" d="M28.9734 8.3466C29.0184 8.94539 28.5939 9.47752 28 9.5666L29.3334 11.3666H28.32L27.16 9.6466H27.06V11.3666H26.2267V7.09326H27.46C28.42 7.09326 28.9734 7.55326 28.9734 8.3466ZM27.0867 9.05326H27.3333C27.8333 9.05326 28.1267 8.87993 28.1267 8.4266C28.1267 7.97326 27.8467 7.75993 27.3333 7.75993H27.0867V9.05326Z" fill="#1B1B1B"/>
  <path d="M19.06 9.22646C19.06 10.482 18.0422 11.4998 16.7866 11.4998C15.5311 11.4998 14.5133 10.482 14.5133 9.22646C14.5133 7.97093 15.5311 6.95312 16.7866 6.95312C18.0406 6.95679 19.0563 7.97245 19.06 9.22646Z" fill="#1B1B1B"/>
  <path fill-rule="evenodd" clip-rule="evenodd" d="M29.4067 7.16656C29.4116 7.21527 29.3806 7.26042 29.3333 7.27322L29.4467 7.43989H29.3467L29.2267 7.27989V7.43989H29.14V7.05322H29.2667C29.3533 7.05322 29.4067 7.09322 29.4067 7.16656ZM29.2533 7.12656V7.21989H29.2667C29.3228 7.21989 29.3222 7.21045 29.3206 7.18361C29.3203 7.17856 29.32 7.17289 29.32 7.16656C29.32 7.12656 29.2933 7.12656 29.2533 7.12656Z" fill="#1B1B1B"/>
  <path fill-rule="evenodd" clip-rule="evenodd" d="M29.0643 7.01359C29.1243 6.95107 29.2067 6.91497 29.2933 6.91322C29.3846 6.9076 29.474 6.94045 29.5398 7.00379C29.6057 7.06714 29.642 7.15518 29.64 7.24655C29.64 7.43064 29.4908 7.57988 29.3067 7.57988C29.1226 7.57988 28.9733 7.43064 28.9733 7.24655C28.9715 7.15991 29.0043 7.07611 29.0643 7.01359ZM29.2933 7.51322C29.3569 7.51399 29.4176 7.48725 29.46 7.43988C29.5157 7.39119 29.5474 7.32056 29.5467 7.24655C29.5503 7.17646 29.5254 7.10788 29.4777 7.0564C29.43 7.00492 29.3635 6.97492 29.2933 6.97322C29.2226 6.97496 29.1555 7.00475 29.1067 7.05601C29.0579 7.10728 29.0315 7.17582 29.0333 7.24655C29.0315 7.31665 29.0581 7.38451 29.1071 7.43472C29.156 7.48493 29.2232 7.51324 29.2933 7.51322Z" fill="#1B1B1B"/>
</svg>