<svg xmlns="http://www.w3.org/2000/svg" width="54" height="20" viewBox="0 0 54 20" fill="none">
  <g clip-path="url(#clip0_20_2660)">
    <path d="M0 9.60074C0.0310126 9.50474 0.0397799 9.40467 0.0459301 9.30513C0.0672594 8.95675 0.113975 8.61163 0.171158 8.26757C0.227426 7.92848 0.309603 7.59541 0.401986 7.2651C0.526822 6.81848 0.689213 6.38535 0.875681 5.96073C1.08374 5.487 1.33498 5.03764 1.61318 4.60241C1.80462 4.30288 2.02066 4.02168 2.23618 3.73956C2.33262 3.6133 2.4305 3.48312 2.54055 3.37493C2.73775 3.18083 2.88745 2.94049 3.12128 2.78149C3.19116 2.73395 3.25175 2.66938 3.30579 2.59944C3.36834 2.5185 3.46177 2.46572 3.54015 2.40219C3.66263 2.30305 3.78145 2.19879 3.90406 2.09951C4.15307 1.89795 4.42918 1.73515 4.69429 1.55768C4.83038 1.46652 4.97628 1.38152 5.12559 1.30608C5.28824 1.22383 5.43977 1.12088 5.60831 1.04754C5.88756 0.926125 6.16248 0.795414 6.44906 0.690374C6.8674 0.537135 7.29124 0.404983 7.7262 0.307015C7.94342 0.258031 8.16221 0.221097 8.38074 0.180757C8.71088 0.119854 9.04378 0.0888138 9.37798 0.0672032C9.77853 0.0414015 10.1793 0.0427112 10.5801 0.0672032C10.7976 0.0804315 11.0147 0.0978509 11.2305 0.128237C11.5517 0.173422 11.8702 0.233932 12.1876 0.301252C12.5868 0.385861 12.9728 0.511726 13.3578 0.646891C13.7881 0.797903 14.1992 0.984801 14.6041 1.19292C15.1834 1.49049 15.7218 1.84791 16.2269 2.25603C17.2598 3.09046 18.0957 4.09083 18.7299 5.2578C18.9581 5.67757 19.1594 6.11057 19.3215 6.56046C19.4669 6.96399 19.5944 7.37315 19.6877 7.79213C19.8814 8.66258 19.9659 9.54364 19.9266 10.4349C19.8914 11.2345 19.7672 12.0205 19.5398 12.7886C19.4458 13.106 19.3286 13.4148 19.2082 13.7238C18.6669 15.1137 17.8283 16.2973 16.7441 17.3111C15.8011 18.1927 14.7209 18.857 13.516 19.3205C13.1715 19.4531 12.8199 19.5654 12.4646 19.6596C12.146 19.7441 11.8205 19.8079 11.4925 19.8558C10.8357 19.9518 10.1763 19.9821 9.5142 19.9569C9.25315 19.9471 8.99327 19.9172 8.73326 19.8907C8.30471 19.8469 7.88715 19.7513 7.46999 19.6497C6.97784 19.5297 6.50244 19.3614 6.03869 19.1606C5.46699 18.9129 4.92159 18.6158 4.40523 18.2659C4.02431 18.0079 3.6659 17.722 3.32136 17.4174C2.95156 17.0903 2.61213 16.7335 2.29807 16.3548C1.90564 15.8813 1.55691 15.3756 1.26301 14.8338C1.0755 14.4881 0.897534 14.1378 0.754641 13.7708C0.663173 13.5358 0.553647 13.3058 0.485995 13.0642C0.412193 12.8002 0.332502 12.5372 0.274795 12.2679C0.218397 12.0049 0.174691 11.7403 0.127976 11.4759C0.0722319 11.1606 0.0655583 10.8404 0.0239465 10.5238C0.0200208 10.4942 0.0249933 10.4619 0.00026171 10.4379V9.60074H0ZM7.53345 11.1673H7.70723C10.1485 11.1673 12.5897 11.1673 15.0309 11.1673C15.3448 11.1673 15.6586 11.1677 15.9725 11.1671C16.0772 11.1668 16.0787 11.1655 16.0788 11.0581C16.0789 10.6657 16.0822 10.2733 16.0767 9.88102C16.0672 9.19171 15.9783 8.51262 15.8 7.8457C15.7375 7.61204 15.6597 7.3835 15.5681 7.16058C15.517 7.03629 15.4875 6.89916 15.3934 6.79451C15.3624 6.61062 15.2297 6.47611 15.1571 6.31174C15.0808 6.13912 14.9481 5.99806 14.8475 5.83788C14.7255 5.64378 14.5661 5.47666 14.4108 5.3081C14.2704 5.15577 14.1166 5.01734 13.958 4.88453C13.4384 4.44944 12.8517 4.1351 12.2093 3.92384C11.8564 3.8078 11.4943 3.73498 11.1257 3.68206C10.8844 3.64749 10.6437 3.61854 10.401 3.61173C9.89996 3.59785 9.40232 3.6226 8.90625 3.70983C8.49746 3.7816 8.09914 3.88206 7.71181 4.02875C6.4132 4.52055 5.41648 5.36992 4.71457 6.56622C4.61395 6.7378 4.50206 6.90466 4.43271 7.09221C4.2906 7.47662 4.11382 7.84871 4.03818 8.25669C4.01227 8.39644 3.96229 8.53645 3.94358 8.67424C3.91008 8.92178 3.87004 9.16997 3.85551 9.42052C3.84413 9.61646 3.8334 9.81279 3.83968 10.0086C3.84583 10.2045 3.82227 10.3999 3.85551 10.5976C3.87527 10.7151 3.8771 10.8404 3.88377 10.9616C3.89437 11.154 3.94933 11.3444 3.9916 11.5343C4.02235 11.6721 4.06161 11.8078 4.10544 11.9424C4.19429 12.2148 4.2821 12.4877 4.4017 12.7483C4.50651 12.9771 4.63855 13.1915 4.76835 13.4067C4.89057 13.6093 5.03504 13.7963 5.18343 13.9798C5.26665 14.0828 5.35079 14.1881 5.45076 14.2733C5.57573 14.3798 5.68722 14.5005 5.80224 14.6152C5.90928 14.7219 6.02417 14.8182 6.14128 14.9092C6.42014 15.1257 6.71561 15.3198 7.02992 15.4822C7.28797 15.6156 7.55229 15.7362 7.82356 15.8407C8.02861 15.9197 8.2436 15.9671 8.45127 16.0358C8.71311 16.1224 8.98254 16.176 9.2521 16.2128C9.50138 16.2468 9.75406 16.2686 10.0067 16.2851C10.6278 16.3256 11.2427 16.2792 11.8501 16.1609C12.1653 16.0995 12.4765 16.0072 12.778 15.8907C13.0164 15.7987 13.2479 15.6924 13.479 15.5822C13.7451 15.4552 13.9925 15.3019 14.2378 15.1435C14.5334 14.9527 14.7988 14.7226 15.052 14.4788C15.2016 14.3349 15.3372 14.178 15.4723 14.0206C15.4965 13.9923 15.529 13.9675 15.5347 13.9193C14.6797 13.291 13.8238 12.662 12.9624 12.029C12.8476 12.1761 12.7381 12.317 12.6161 12.4473C12.1426 12.9537 11.5862 13.3121 10.8918 13.4373C10.6206 13.4863 10.347 13.4701 10.0749 13.4913C10.0193 13.4956 9.95086 13.4639 9.88766 13.454C9.81962 13.4432 9.74752 13.4512 9.6817 13.4338C9.55935 13.4015 9.43935 13.3595 9.32028 13.3163C9.14781 13.2537 8.97887 13.1861 8.82263 13.0844C8.65763 12.9768 8.49432 12.8664 8.35404 12.7305C8.1664 12.5487 8.01631 12.3339 7.88833 12.1059C7.85287 12.0426 7.7877 11.996 7.77514 11.9226C7.76009 11.8349 7.72214 11.7554 7.68315 11.6799C7.60071 11.5204 7.59299 11.3447 7.53319 11.1671L7.53345 11.1673Z" fill="#8C8C8C"/>
    <path d="M30.4782 5.53322C30.7752 5.56636 31.0709 5.61548 31.3589 5.6883C32.0002 5.85057 32.5956 6.1226 33.1415 6.49981C33.7738 6.93673 34.2877 7.4863 34.7049 8.12938C34.9303 8.47698 35.1245 8.84148 35.2789 9.22536C35.3807 9.47866 35.4759 9.73485 35.5525 9.99823C35.6185 10.2246 35.6761 10.4531 35.723 10.6828C35.8972 11.5359 35.9345 12.3982 35.857 13.2647C35.8157 13.7265 35.7412 14.1844 35.6202 14.6323C35.2986 15.8226 34.7598 16.8949 33.8843 17.7807C33.3465 18.3246 32.7314 18.7594 32.045 19.0964C31.5989 19.3153 31.1391 19.4958 30.6609 19.6308C30.405 19.7031 30.1439 19.7508 29.8846 19.8073C29.5405 19.8824 29.1927 19.9214 28.844 19.9518C28.2616 20.0026 27.6777 20.0106 27.0934 19.9751C26.7673 19.9553 26.4409 19.9394 26.1159 19.9052C25.8736 19.8796 25.6324 19.8435 25.3902 19.8162C25.1483 19.7891 24.9095 19.7436 24.6712 19.6969C24.5509 19.6734 24.4307 19.647 24.3108 19.6214C24.0673 19.5692 23.8251 19.5106 23.5813 19.4592C23.3838 19.4176 23.1875 19.3662 22.9932 19.3079C22.7278 19.2283 22.4579 19.1635 22.1917 19.0861C22.1238 19.0663 22.0611 19.0277 21.991 19.0095C21.9654 19.0028 21.9479 18.9829 21.9494 18.9512C21.9511 18.912 21.9495 18.8727 21.9495 18.8334C21.9495 12.6079 21.9495 6.38232 21.9495 0.156775C21.9495 0.104517 21.9478 0.0522583 21.9469 0C23.3595 0 24.7719 0 26.1845 0C26.1691 0.0378513 26.1759 0.0775361 26.1759 0.116435C26.1755 2.29557 26.1755 4.47483 26.1759 6.65396C26.1759 6.69208 26.168 6.73137 26.1841 6.76922C26.2235 6.77917 26.2359 6.74355 26.2554 6.72508C26.3839 6.60367 26.5208 6.49156 26.6634 6.38822C26.8229 6.2727 27.0005 6.18521 27.1755 6.09484C27.4979 5.92811 27.838 5.8008 28.1871 5.71122C28.8575 5.53912 29.5395 5.44979 30.2343 5.51541C30.3037 5.52196 30.3734 5.52458 30.4425 5.52903C30.4542 5.53047 30.4662 5.53192 30.4781 5.53336L30.4782 5.53322ZM28.6668 16.4489C28.6786 16.446 28.6902 16.4433 28.702 16.4404C28.7634 16.4222 28.828 16.4184 28.8903 16.4083C29.3613 16.3326 29.7868 16.1481 30.1799 15.8848C30.4297 15.7176 30.6323 15.4985 30.8191 15.2651C31.0429 14.9856 31.1889 14.6619 31.3356 14.3396C31.3686 14.2672 31.3698 14.1802 31.4027 14.1078C31.4572 13.9882 31.4814 13.8592 31.5119 13.7354C31.5886 13.4236 31.6264 13.1036 31.6283 12.7813C31.6299 12.5293 31.6279 12.2782 31.606 12.0257C31.5888 11.829 31.537 11.6404 31.5136 11.4457C31.4895 11.2451 31.4021 11.0566 31.3364 10.8662C31.1786 10.4082 30.9127 10.0146 30.5484 9.69293C30.3228 9.49372 30.0759 9.32739 29.7828 9.23911C29.5064 9.15594 29.2261 9.10355 28.9361 9.1029C28.7046 9.10238 28.4749 9.12058 28.2468 9.15673C27.8716 9.21606 27.5162 9.3342 27.2066 9.55908C26.6144 9.98906 26.3316 10.6014 26.2138 11.3018C26.1742 11.5378 26.1751 11.7788 26.1752 12.0186C26.1755 13.3607 26.1753 14.7028 26.1755 16.0449C26.1755 16.0797 26.1739 16.1148 26.1777 16.1493C26.182 16.1872 26.195 16.2058 26.2425 16.2235C26.5584 16.3413 26.8824 16.4092 27.2187 16.4356C27.7015 16.4733 28.1836 16.4933 28.6667 16.4488L28.6668 16.4489Z" fill="#1B1B1B"/>
    <path d="M39.9436 0C39.9859 0.0396849 40.0436 0.0433521 40.0941 0.0500318C40.4334 0.0953485 40.72 0.248325 40.9737 0.470063C41.2828 0.74026 41.4705 1.07948 41.5446 1.48327C41.7097 2.38371 41.1998 3.24277 40.3312 3.5275C40.0818 3.60923 39.8266 3.63005 39.5654 3.62508C39.1486 3.61709 38.7989 3.44695 38.4661 3.21408C38.3156 3.10878 38.2113 2.97087 38.1118 2.82457C37.8061 2.37533 37.7459 1.88261 37.8619 1.36225C37.9351 1.03403 38.1063 0.758597 38.3449 0.525334C38.5925 0.283164 38.8903 0.132938 39.2257 0.0510795C39.2993 0.0331362 39.3801 0.0464955 39.4467 0H39.9437L39.9436 0Z" fill="#8C8C8C"/>
    <path d="M51.6429 16.7291C52.0433 16.671 52.4415 16.6027 52.8289 16.4825C52.8369 16.48 52.8465 16.4825 52.855 16.4809C52.9853 16.4563 52.9786 16.4575 53.0029 16.5889C53.0438 16.811 53.0955 17.0312 53.1399 17.2528C53.1812 17.4593 53.2169 17.6669 53.2587 17.8733C53.299 18.0727 53.3458 18.2707 53.3864 18.4699C53.4412 18.7398 53.4928 19.0104 53.5456 19.2808C53.5473 19.2893 53.5452 19.2984 53.5468 19.3068C53.5824 19.4923 53.5832 19.4959 53.3975 19.5384C53.0633 19.6147 52.7322 19.7051 52.3948 19.7671C51.6713 19.8999 50.9425 19.9673 50.2069 19.9272C49.9334 19.9123 49.6594 19.8897 49.3882 19.8513C49.1856 19.8226 48.9861 19.7678 48.7872 19.7169C48.1467 19.5528 47.5599 19.2781 47.0484 18.8539C46.7509 18.6072 46.5043 18.3159 46.3023 17.9863C46.2511 17.9028 46.1818 17.8266 46.1484 17.7367C46.0569 17.4905 45.9315 17.2567 45.8774 16.9959C45.8583 16.9039 45.8163 16.8172 45.799 16.7223C45.7818 16.6272 45.7582 16.5342 45.7538 16.4363C45.7473 16.2929 45.7326 16.1496 45.717 16.0068C45.7018 15.8677 45.701 15.7284 45.701 15.5889C45.7009 13.2215 45.701 10.8542 45.7009 8.48699C45.7009 8.32747 45.6942 8.32668 45.5359 8.31306C45.4089 8.30219 45.2836 8.27377 45.1572 8.25635C44.9787 8.23173 44.7994 8.21247 44.6211 8.18641C44.4737 8.16493 44.3282 8.12669 44.1804 8.11451C43.9741 8.09748 43.7738 8.0409 43.5676 8.03134C43.5058 8.02846 43.4778 8.01195 43.4807 7.95014C43.4817 7.92839 43.4807 7.90652 43.4807 7.88478C43.4807 7.18722 43.4807 6.48965 43.4807 5.79209C43.4807 5.76157 43.4807 5.73106 43.4812 5.70054C43.4818 5.66884 43.4991 5.65352 43.5303 5.65313C43.5651 5.65273 43.6 5.65273 43.6349 5.65273C44.2757 5.65273 44.9165 5.65273 45.5575 5.65273C45.588 5.65273 45.6186 5.65129 45.6489 5.653C45.6888 5.65522 45.703 5.63649 45.701 5.59864C45.6994 5.56826 45.7008 5.53761 45.7008 5.50709C45.7008 4.19919 45.7008 2.8913 45.7008 1.5834C45.7008 1.5572 45.7004 1.53114 45.7008 1.50494C45.7023 1.40737 45.7025 1.40567 45.8015 1.40567C46.9829 1.40527 48.1642 1.40554 49.3456 1.40527C49.4653 1.40527 49.4503 1.40593 49.4504 1.52669C49.4507 2.83891 49.4505 4.15126 49.4505 5.46348C49.4505 5.48967 49.4507 5.51574 49.4505 5.54193C49.4495 5.6636 49.4487 5.65273 49.5663 5.65273C50.4208 5.65273 51.2752 5.65273 52.1297 5.65273C52.2561 5.65273 52.3825 5.65404 52.5089 5.65208C52.5569 5.65129 52.5837 5.66465 52.5793 5.7177C52.5772 5.74363 52.579 5.76996 52.579 5.79615C52.579 6.59391 52.579 7.3918 52.579 8.18955C52.579 8.21575 52.5773 8.24194 52.5793 8.26801C52.5832 8.31869 52.5611 8.34017 52.5107 8.33703C52.4803 8.3352 52.4497 8.33677 52.4192 8.33677C51.4819 8.33677 50.5447 8.33651 49.6074 8.33703C49.4313 8.33703 49.4507 8.31699 49.4507 8.4866C49.4504 10.6969 49.4507 12.9073 49.4501 15.1176C49.4501 15.3537 49.4573 15.591 49.5207 15.8176C49.621 16.1768 49.8161 16.4702 50.1693 16.6346C50.3401 16.7141 50.5197 16.7577 50.706 16.7678C50.9279 16.7798 51.1505 16.7764 51.3719 16.7577C51.3834 16.7562 51.3953 16.7548 51.4072 16.7534C51.4733 16.7485 51.5394 16.7435 51.6056 16.7386C51.6181 16.7353 51.6304 16.7322 51.6429 16.729V16.7291Z" fill="#1B1B1B"/>
    <path d="M37.8179 12.8186V5.84704C37.8179 5.8253 37.8179 5.80343 37.8179 5.78169C37.8184 5.63906 37.8086 5.65503 37.9433 5.65503C39.1072 5.65477 40.2713 5.6549 41.4353 5.6549C41.4527 5.6549 41.4703 5.65634 41.4876 5.65464C41.5407 5.64966 41.5719 5.66617 41.5655 5.72655C41.5627 5.75235 41.5651 5.7788 41.5651 5.805C41.5651 10.2696 41.5649 14.7342 41.566 19.1988C41.566 19.3339 41.5596 19.4669 41.5106 19.5933C41.4363 19.7851 41.2941 19.9019 41.0981 19.9612C40.9584 20.0034 40.8165 19.9979 40.6743 19.9979C39.7806 19.9982 38.8869 19.998 37.9931 19.998C37.9626 19.998 37.9316 19.9946 37.9017 19.9987C37.8284 20.0086 37.811 19.9717 37.8174 19.9081C37.8204 19.8778 37.8179 19.847 37.8179 19.8165V12.8187V12.8186Z" fill="#1B1B1B"/>
    <path d="M30.4782 5.53313C30.4662 5.53169 30.4543 5.53025 30.4426 5.52881C30.4548 5.53025 30.4664 5.53169 30.4782 5.53313Z" fill="#E52220"/>
    <path d="M51.6429 16.7292C51.6305 16.7324 51.6182 16.7355 51.6056 16.7388C51.615 16.7246 51.629 16.727 51.6429 16.7292Z" fill="#FCFCFC"/>
    <path d="M51.4072 16.7539C51.3952 16.7553 51.3833 16.7568 51.3718 16.7582C51.3839 16.7568 51.3955 16.7553 51.4072 16.7539Z" fill="#FCFCFC"/>
    <path d="M7.53346 11.1673C7.59313 11.3449 7.60085 11.5207 7.68342 11.6802C7.72241 11.7557 7.76036 11.8352 7.77541 11.9229C7.78797 11.9964 7.85314 12.043 7.8886 12.1061C8.01658 12.3342 8.1668 12.549 8.35431 12.7308C8.49459 12.8667 8.6579 12.9772 8.8229 13.0846C8.97915 13.1864 9.14808 13.2541 9.32055 13.3166C9.43962 13.3598 9.55975 13.4017 9.68197 13.4341C9.74779 13.4515 9.81989 13.4435 9.88793 13.4543C9.95114 13.4642 10.0196 13.4959 10.0752 13.4916C10.3472 13.4705 10.6209 13.4866 10.8921 13.4376C11.5864 13.3124 12.1428 12.9539 12.6164 12.4476C12.7383 12.3171 12.8479 12.1762 12.9626 12.0293C13.824 12.6623 14.68 13.2913 15.535 13.9196C15.5292 13.9678 15.4968 13.9926 15.4726 14.0208C15.3375 14.1783 15.2017 14.3352 15.0523 14.4791C14.7991 14.7229 14.5337 14.953 14.2381 15.1438C13.9927 15.3022 13.7454 15.4555 13.4792 15.5824C13.2482 15.6927 13.0165 15.7989 12.7783 15.891C12.4768 16.0074 12.1655 16.0998 11.8504 16.1612C11.2428 16.2796 10.628 16.3258 10.007 16.2854C9.75433 16.2689 9.50165 16.2471 9.25237 16.2131C8.98281 16.1763 8.71338 16.1227 8.45154 16.0361C8.24374 15.9674 8.02875 15.9201 7.82383 15.841C7.55257 15.7365 7.28824 15.6158 7.03019 15.4825C6.71588 15.3202 6.42028 15.1261 6.14156 14.9095C6.02444 14.8185 5.90955 14.7222 5.80251 14.6155C5.68736 14.5007 5.576 14.3802 5.45103 14.2736C5.35106 14.1884 5.26692 14.0831 5.1837 13.9801C5.03531 13.7966 4.89084 13.6095 4.76863 13.407C4.63882 13.1918 4.50678 12.9774 4.40197 12.7486C4.2825 12.4878 4.19456 12.2151 4.10571 11.9427C4.06188 11.8081 4.02249 11.6724 3.99187 11.5346C3.9496 11.3447 3.89465 11.1542 3.88405 10.9618C3.87737 10.8406 3.87554 10.7152 3.85578 10.5979C3.82254 10.4004 3.8461 10.2049 3.83995 10.0089C3.8338 9.81307 3.84453 9.61687 3.85578 9.4208C3.87031 9.17012 3.91035 8.92206 3.94385 8.67452C3.96256 8.53674 4.01255 8.39672 4.03845 8.25698C4.11409 7.84913 4.29087 7.4769 4.43298 7.09249C4.50234 6.90494 4.61422 6.73795 4.71484 6.5665C5.41675 5.3702 6.41347 4.52083 7.71208 4.02903C8.09941 3.88234 8.49773 3.78202 8.90652 3.71011C9.40272 3.62288 9.90036 3.59813 10.4013 3.61201C10.644 3.61869 10.8845 3.64764 11.126 3.68234C11.4946 3.73526 11.8566 3.80808 12.2096 3.92412C12.8519 4.13525 13.4387 4.44972 13.9583 4.88481C14.1169 5.01762 14.2707 5.15605 14.4111 5.30838C14.5664 5.47694 14.7258 5.64419 14.8477 5.83816C14.9484 5.99834 15.081 6.13927 15.1573 6.31202C15.2301 6.4764 15.3626 6.6109 15.3937 6.79479C15.4877 6.89944 15.5173 7.03644 15.5683 7.16086C15.6599 7.38378 15.7378 7.61246 15.8002 7.84598C15.9786 8.5129 16.0674 9.19186 16.077 9.88131C16.0823 10.2736 16.0792 10.6661 16.0791 11.0584C16.0791 11.1658 16.0775 11.1671 15.9728 11.1673C15.6589 11.168 15.3451 11.1676 15.0312 11.1676C12.59 11.1676 10.1487 11.1676 7.7075 11.1676H7.53372L7.53346 11.1673ZM9.96632 8.65409C10.7292 8.65409 11.4922 8.65409 12.2551 8.65409C12.2856 8.65409 12.3163 8.65186 12.3466 8.65448C12.4032 8.65933 12.4244 8.63562 12.4222 8.57904C12.4176 8.46195 12.3899 8.34748 12.3788 8.23248C12.3577 8.01546 12.287 7.81625 12.1911 7.62844C11.7861 6.83618 11.1222 6.43488 10.2443 6.38746C9.76375 6.36153 9.30026 6.45609 8.86347 6.66316C8.7618 6.71136 8.66117 6.76362 8.57022 6.83173C8.47588 6.90232 8.38336 6.97501 8.29831 7.05674C8.02456 7.31973 7.80603 7.62084 7.67779 7.98062C7.64796 8.06431 7.60883 8.14918 7.59522 8.23366C7.58017 8.32705 7.56146 8.42148 7.55113 8.51643C7.53621 8.65422 7.53202 8.65396 7.67753 8.65409C8.44042 8.65409 9.20343 8.65409 9.96632 8.65409Z" fill="#1B1B1B"/>
    <path d="M28.6667 16.4488C28.6762 16.4351 28.6895 16.4383 28.7023 16.4403C28.6902 16.4431 28.6785 16.446 28.6667 16.4488Z" fill="#FCFCFC"/>
    <path d="M9.96627 8.65412C9.20339 8.65412 8.44037 8.65412 7.67749 8.65412C7.53198 8.65412 7.53617 8.65438 7.55108 8.51647C7.56142 8.42138 7.58 8.32708 7.59518 8.23369C7.60879 8.14935 7.64792 8.06448 7.67775 7.98065C7.80586 7.62087 8.02452 7.31976 8.29827 7.05677C8.38332 6.97504 8.47584 6.90235 8.57018 6.83176C8.66126 6.76365 8.76189 6.71139 8.86343 6.6632C9.30022 6.45613 9.76371 6.36156 10.2442 6.3875C11.1221 6.43491 11.7862 6.83621 12.1911 7.62847C12.2871 7.81628 12.3578 8.01549 12.3787 8.23252C12.3898 8.34738 12.4176 8.46185 12.4222 8.57907C12.4244 8.63565 12.4031 8.65936 12.3465 8.65451C12.3163 8.65189 12.2855 8.65412 12.2551 8.65412C11.4922 8.65412 10.7292 8.65412 9.96627 8.65412Z" fill="#8C8C8C"/>
  </g>
  <defs>
    <clipPath id="clip0_20_2660">
      <rect width="53.5652" height="20" fill="white"/>
    </clipPath>
  </defs>
</svg>