<svg xmlns="http://www.w3.org/2000/svg" width="20" height="16" viewBox="0 0 20 16" fill="none">
  <path d="M10.026 15.0619C7.91112 15.0619 5.79622 15.0619 3.68132 15.0619C3.26682 15.0619 2.85232 15.0557 2.43831 15.0552C2.21467 15.0552 1.99104 15.0725 1.76788 15.0619C0.945633 15.0229 0.278581 14.5019 0.074706 13.7652C0.0279545 13.5967 0.000963948 13.4267 0.000963948 13.249C0.00337382 9.44062 0.00433777 5.63178 0 1.82341C0 1.55183 0.0578369 1.30047 0.168209 1.05923C0.44197 0.46166 0.913823 0.124594 1.55919 0.0263634C1.68064 0.00806552 1.80499 0.00228724 1.9279 0.00228724C7.11972 0.00132419 12.312 0.00132419 17.5039 0.00132419C17.7545 0.00132419 18.0056 -0.00397257 18.2557 0.00662094C18.6881 0.0254003 19.0818 0.153967 19.4033 0.455401C19.7354 0.766465 19.92 1.15505 19.9749 1.60432C19.9879 1.70929 19.9913 1.81522 19.9918 1.92116C19.9942 2.65692 19.9952 3.39269 19.9966 4.12846C19.9971 4.42893 19.9986 4.7294 19.9986 5.02987C19.9995 6.72291 20.0005 8.41642 20.0005 10.1095C20.0005 11.1438 20.0005 12.1781 19.9986 13.2129C19.9981 13.6304 19.8935 14.017 19.638 14.3536C19.3493 14.7345 18.9585 14.9488 18.4919 15.0263C18.3483 15.0504 18.2008 15.0595 18.0548 15.0595C15.3788 15.0614 12.7029 15.061 10.0265 15.061L10.026 15.0619ZM1.98959 1.12857C1.98718 1.13242 1.98429 1.13579 1.98188 1.13965C2.00067 1.15554 2.01947 1.17143 2.0373 1.1878C3.40659 2.43542 4.77588 3.68305 6.14565 4.93068C7.25323 5.93947 8.36032 6.94922 9.46983 7.95657C9.54309 8.0235 9.62695 8.08177 9.71323 8.13088C9.89348 8.23296 10.0829 8.24019 10.2651 8.13955C10.3702 8.08128 10.4723 8.01146 10.561 7.93105C11.6247 6.9656 12.686 5.99725 13.7478 5.02939C15.1615 3.74131 16.5751 2.45372 17.9887 1.16565C17.9988 1.1565 18.0075 1.14542 18.0229 1.12857H1.98959ZM1.92452 13.9279H18.0764C16.0097 12.0245 13.9507 10.1278 11.8903 8.23007C11.7939 8.31723 11.7043 8.40198 11.6108 8.48191C11.4059 8.6567 11.2126 8.85028 10.9895 8.9981C10.3918 9.39392 9.76576 9.41799 9.13196 9.07611C8.88519 8.94321 8.68517 8.74916 8.47937 8.56329C8.35695 8.45302 8.23453 8.34227 8.1097 8.22959C6.04829 10.1287 3.99026 12.0245 1.92452 13.9275V13.9279ZM1.14228 13.1171C1.14903 13.1185 1.15577 13.1199 1.16204 13.1214C3.20175 11.241 5.24147 9.36069 7.28408 7.47794C5.23761 5.61107 3.19645 3.74854 1.14372 1.87589C1.13601 2.27652 1.12686 2.65741 1.12155 3.03829C1.11577 3.47359 1.1124 3.9084 1.10999 4.3437C1.10758 4.80981 1.10613 5.27593 1.10613 5.74204C1.10613 6.70316 1.10613 7.66428 1.10806 8.62589C1.1095 9.26342 1.11336 9.90096 1.1177 10.538C1.12059 10.9791 1.12445 11.4202 1.12927 11.8608C1.13264 12.1959 1.13842 12.5306 1.14228 12.8657C1.14324 12.9495 1.14228 13.0333 1.14228 13.1166V13.1171ZM18.8635 1.87012C16.8108 3.74324 14.7658 5.60866 12.7169 7.47842C14.7653 9.36647 16.8103 11.2512 18.8635 13.144V1.87012Z" fill="#CCCCCC"/>
</svg>