<svg xmlns="http://www.w3.org/2000/svg" width="19" height="14" viewBox="0 0 19 14" fill="none">
  <g clip-path="url(#clip0_11754_997)">
    <path d="M11.68 7.08767C11.2349 7.39806 10.167 8.80973 9.74686 8.91784C9.5319 8.97309 9.27621 8.96204 9.09118 8.83616L1.05959 0.940348L1.21566 0.853861C6.58429 0.663108 11.9946 0.828395 17.379 0.770737L17.8928 0.892299V0.988877L11.68 7.08767Z" fill="#00579C"/>
    <path d="M6.7271 8.02832L8.4728 9.72972C8.83794 9.96035 9.23252 10.0853 9.67422 10.0473C10.722 9.95651 11.497 8.63133 12.2734 8.02832L17.9409 13.577L17.7848 13.6634C12.4162 13.8547 7.00586 13.6894 1.62202 13.7471L1.10818 13.6255L6.72808 8.02832H6.7271Z" fill="#00579C"/>
    <path d="M0.224776 12.8323C0.156067 12.6113 0.0922657 12.4215 0.0745976 12.1861C-0.16343 8.98844 0.25864 5.51117 0.0745976 2.28423L0.224285 1.68555L5.91339 7.24139L0.224776 12.8323Z" fill="#00579C"/>
    <path d="M18.7752 12.8323L13.0861 7.27647L18.7752 1.68555C18.8439 1.90657 18.9077 2.09636 18.9254 2.3318C19.1634 5.52943 18.7414 9.0067 18.9254 12.2336L18.7757 12.8323H18.7752Z" fill="#00579C"/>
  </g>
  <defs>
    <clipPath id="clip0_11754_997">
      <rect width="19" height="13" fill="white" transform="translate(0 0.758789)"/>
    </clipPath>
  </defs>
</svg>
