<svg xmlns="http://www.w3.org/2000/svg" width="20" height="16" viewBox="0 0 20 16" fill="none">
  <path d="M10.026 15.5292C7.91112 15.5292 5.79622 15.5292 3.68132 15.5292C3.26682 15.5292 2.85232 15.523 2.43831 15.5225C2.21467 15.5225 1.99104 15.5398 1.76788 15.5292C0.945633 15.4902 0.278581 14.9692 0.074706 14.2325C0.0279545 14.0639 0.000963948 13.894 0.000963948 13.7163C0.00337382 9.90791 0.00433777 6.09906 0 2.29069C0 2.01911 0.0578369 1.76776 0.168209 1.52652C0.44197 0.928946 0.913823 0.591879 1.55919 0.493649C1.68064 0.475351 1.80499 0.469572 1.9279 0.469572C7.11972 0.468609 12.312 0.468609 17.5039 0.468609C17.7545 0.468609 18.0056 0.463313 18.2557 0.473906C18.6881 0.492686 19.0818 0.621252 19.4033 0.922686C19.7354 1.23375 19.92 1.62234 19.9749 2.0716C19.9879 2.17657 19.9913 2.28251 19.9918 2.38844C19.9942 3.12421 19.9952 3.85998 19.9966 4.59574C19.9971 4.89622 19.9986 5.19669 19.9986 5.49716C19.9995 7.19019 20.0005 8.88371 20.0005 10.5767C20.0005 11.6111 20.0005 12.6454 19.9986 13.6802C19.9981 14.0976 19.8935 14.4843 19.638 14.8209C19.3493 15.2018 18.9585 15.4161 18.4919 15.4936C18.3483 15.5177 18.2008 15.5268 18.0548 15.5268C15.3788 15.5287 12.7029 15.5282 10.0265 15.5282L10.026 15.5292ZM1.98959 1.59586C1.98718 1.59971 1.98429 1.60308 1.98188 1.60693C2.00067 1.62282 2.01947 1.63871 2.0373 1.65508C3.40659 2.90271 4.77588 4.15034 6.14565 5.39796C7.25323 6.40675 8.36032 7.41651 9.46983 8.42385C9.54309 8.49079 9.62695 8.54905 9.71323 8.59817C9.89348 8.70025 10.0829 8.70747 10.2651 8.60683C10.3702 8.54857 10.4723 8.47875 10.561 8.39833C11.6247 7.43288 12.686 6.46454 13.7478 5.49667C15.1615 4.2086 16.5751 2.92101 17.9887 1.63293C17.9988 1.62378 18.0075 1.61271 18.0229 1.59586H1.98959ZM1.92452 14.3952H18.0764C16.0097 12.4918 13.9507 10.595 11.8903 8.69736C11.7939 8.78452 11.7043 8.86926 11.6108 8.9492C11.4059 9.12399 11.2126 9.31756 10.9895 9.46539C10.3918 9.8612 9.76576 9.88528 9.13196 9.5434C8.88519 9.4105 8.68517 9.21644 8.47937 9.03057C8.35695 8.92031 8.23453 8.80956 8.1097 8.69688C6.04829 10.596 3.99026 12.4918 1.92452 14.3947V14.3952ZM1.14228 13.5843C1.14903 13.5858 1.15577 13.5872 1.16204 13.5887C3.20175 11.7083 5.24147 9.82798 7.28408 7.94522C5.23761 6.07836 3.19645 4.21582 1.14372 2.34318C1.13601 2.74381 1.12686 3.12469 1.12155 3.50558C1.11577 3.94087 1.1124 4.37569 1.10999 4.81099C1.10758 5.2771 1.10613 5.74321 1.10613 6.20933C1.10613 7.17045 1.10613 8.13157 1.10806 9.09317C1.1095 9.73071 1.11336 10.3682 1.1177 11.0053C1.12059 11.4464 1.12445 11.8875 1.12927 12.328C1.13264 12.6632 1.13842 12.9978 1.14228 13.333C1.14324 13.4168 1.14228 13.5006 1.14228 13.5839V13.5843ZM18.8635 2.3374C16.8108 4.21053 14.7658 6.07595 12.7169 7.9457C14.7653 9.83375 16.8103 11.7184 18.8635 13.6113V2.3374Z" fill="#1B1B1B"/>
</svg>
