<svg xmlns="http://www.w3.org/2000/svg" width="23" height="14" viewBox="0 0 23 14" fill="none">
  <g clip-path="url(#clip0_2035_1094)">
    <path d="M15.0129 0V4.28521C15.0129 4.52876 15.4575 4.8426 15.6989 4.87219C17.3625 5.07936 19.4593 4.65454 21.1223 4.88699C22.137 5.0288 22.8822 5.81741 22.9622 6.87299C23.0728 8.32071 22.8989 9.94477 22.9318 11.4085C22.6419 12.1577 21.7277 11.8253 21.1134 11.9061C20.4764 14.7023 16.6962 14.6918 16.0539 11.8962H9.25067C8.61128 14.6881 4.83292 14.7103 4.19114 11.9061C3.71609 11.829 2.73908 12.059 2.37218 11.7168C2.33274 11.6798 2.16542 11.3962 2.16542 11.3752V9.12473H0.581896C0.525725 9.12473 0.220971 8.93482 0.168386 8.87316C-0.162064 8.48533 0.0440938 7.8219 0.54903 7.73373L6.85267 7.70228C7.59722 7.53704 7.59782 6.51969 6.85267 6.35383C4.89447 6.204 2.68769 6.54003 0.759371 6.35198C-0.244527 6.25456 -0.260063 5.02202 0.759371 4.92892C2.07221 4.80869 3.55056 5.02634 4.88132 4.92768C5.46335 4.83273 5.645 3.80983 5.00143 3.63965C3.86249 3.55518 2.59925 3.74139 1.47644 3.63965C0.873504 3.58478 0.408007 3.02739 0.822712 2.46692C0.866333 2.40773 1.14181 2.21906 1.18005 2.21906H2.16602V0.524091C2.16602 0.38721 2.54189 0 2.67395 0H15.0135H15.0129ZM5.83204 12.2477C6.45649 12.8865 7.53627 12.6842 7.85358 11.8186C8.30951 10.5755 6.93274 9.56126 5.92884 10.3875C5.38507 10.8351 5.33846 11.7427 5.83204 12.2477ZM18.2839 10.1267C17.1844 10.3209 17.0022 12.0639 18.1381 12.5288C20.0689 13.3187 20.523 9.73144 18.2839 10.1267Z" fill="black"/>
    <path d="M20.0325 3.45281H16.3874V0.123291C18.1287 0.515434 19.2892 1.85772 20.0325 3.45281Z" fill="black"/>
  </g>
  <defs>
    <clipPath id="clip0_2035_1094">
      <rect width="23" height="14" fill="white"/>
    </clipPath>
  </defs>
</svg>
