<svg xmlns="http://www.w3.org/2000/svg" width="74" height="22" viewBox="0 0 74 22" fill="none">
  <path d="M0 2.91647V4.89076C0 10.3774 0.0104275 14.1661 3.20214 17.3561C4.43173 18.5857 7.43227 20.5999 7.43227 20.5999V1.08643C4.31008 1.08643 1.18875 2.48112 0 2.91647Z" fill="#CCCCCC"/>
  <path d="M14.8645 2.89127C13.3777 2.43072 10.5536 1.08643 7.43225 1.08643V20.5973C7.43225 20.5973 10.4467 18.5848 11.6772 17.3535C14.8741 14.1566 14.8645 10.798 14.8645 5.6207V2.8904V2.89127Z" fill="#8C8C8C"/>
  <mask id="mask0_20_2618" style="mask-type:luminance" maskUnits="userSpaceOnUse" x="0" y="1" width="15" height="20">
    <path d="M7.51655 1.08643C4.12584 1.08643 1.19047 2.47938 0.000854492 2.91473V4.88902C0.000854492 10.3757 0.0217098 14.1644 3.21343 17.3544C4.44301 18.5839 7.43313 20.5982 7.43313 20.5982C7.43313 20.5982 10.4476 18.5857 11.678 17.3544C14.875 14.1574 14.8654 10.7989 14.8654 5.62156V2.89127C13.3777 2.43159 10.7091 1.08643 7.51655 1.08643Z" fill="white"/>
  </mask>
  <g mask="url(#mask0_20_2618)">
    <path d="M15.5111 2.91406H-0.572632V4.23663H15.5111V2.91406Z" fill="url(#paint0_linear_20_2618)"/>
  </g>
  <mask id="mask1_20_2618" style="mask-type:luminance" maskUnits="userSpaceOnUse" x="3" y="3" width="9" height="15">
    <path d="M7.44093 3.17188C5.34759 3.17188 3.39502 4.63174 3.39502 4.63174C3.39502 4.63174 3.52884 7.6627 3.52884 8.87838C3.52884 11.5061 4.02937 13.6786 5.19813 15.3C5.85854 16.2168 7.44267 17.7166 7.44267 17.7166C7.44267 17.7166 8.98856 16.2168 9.64897 15.3C10.8177 13.6786 11.2844 11.507 11.2844 8.87838C11.2844 7.6627 11.4451 4.63174 11.4451 4.63174C11.4451 4.63174 9.43521 3.17188 7.4418 3.17188H7.44093Z" fill="white"/>
  </mask>
  <g mask="url(#mask1_20_2618)">
    <path d="M7.49912 20.4548C8.83377 20.4548 9.91571 19.3728 9.91571 18.0382C9.91571 16.7035 8.83377 15.6216 7.49912 15.6216C6.16447 15.6216 5.08252 16.7035 5.08252 18.0382C5.08252 19.3728 6.16447 20.4548 7.49912 20.4548Z" fill="#FAFAFA"/>
    <path d="M7.49911 22.2258C5.20938 22.2258 3.35327 20.3697 3.35327 18.0799C3.35327 15.7902 5.20938 13.9341 7.49911 13.9341C9.78884 13.9341 11.645 15.7902 11.645 18.0799C11.6423 20.3688 9.78797 22.2232 7.49911 22.2258ZM7.49911 14.7457C5.65777 14.7457 4.16489 16.2386 4.16489 18.0799C4.16489 19.9213 5.65777 21.4141 7.49911 21.4141C9.34045 21.4141 10.8333 19.9213 10.8333 18.0799C10.8307 16.2395 9.33958 14.7483 7.49911 14.7457Z" fill="#FAFAFA"/>
    <path d="M7.49913 24.0002C4.22921 24.0002 1.57886 21.3499 1.57886 18.0799C1.57886 14.81 4.22921 12.1597 7.49913 12.1597C10.7691 12.1597 13.4194 14.81 13.4194 18.0799C13.4159 21.3481 10.7673 23.9976 7.49913 24.0002ZM7.49913 13.0113C4.69932 13.0113 2.43045 15.281 2.43045 18.0799C2.43045 20.8789 4.70019 23.1486 7.49913 23.1486C10.2989 23.1486 12.5678 20.8789 12.5678 18.0799C12.5635 15.2827 10.2963 13.0156 7.49913 13.013V13.0113Z" fill="#FAFAFA"/>
    <path d="M7.38272 10.7547C8.73561 10.7547 9.83234 9.65797 9.83234 8.30509C9.83234 6.9522 8.73561 5.85547 7.38272 5.85547C6.02984 5.85547 4.93311 6.9522 4.93311 8.30509C4.93311 9.65797 6.02984 10.7547 7.38272 10.7547Z" fill="#FAFAFA"/>
  </g>
  <path d="M14.8645 2.82414V1.3078C14.8645 0.762084 14.1111 0 13.4377 0H1.30344C0.631725 0 0.000854492 0.762953 0.000854492 1.3078V2.82414H14.8654H14.8637H14.8645Z" fill="#E0E0E0"/>
  <path d="M1.83357 2.02652C2.07497 2.02652 2.27067 1.83083 2.27067 1.58943C2.27067 1.34804 2.07497 1.15234 1.83357 1.15234C1.59218 1.15234 1.39648 1.34804 1.39648 1.58943C1.39648 1.83083 1.59218 2.02652 1.83357 2.02652Z" fill="white"/>
  <path d="M3.43331 2.02652C3.6747 2.02652 3.8704 1.83083 3.8704 1.58943C3.8704 1.34804 3.6747 1.15234 3.43331 1.15234C3.19191 1.15234 2.99622 1.34804 2.99622 1.58943C2.99622 1.83083 3.19191 2.02652 3.43331 2.02652Z" fill="white"/>
  <path fill-rule="evenodd" clip-rule="evenodd" d="M23.6976 5.13646H27.1422C27.1622 5.21467 27.1778 5.31026 27.1908 5.42062C27.2039 5.53184 27.2108 5.64307 27.2108 5.7543C27.2108 6.20529 27.1422 6.63109 27.0049 7.02994C26.8676 7.4288 26.6512 7.78594 26.3575 8.09964C26.0438 8.43332 25.6675 8.69141 25.2287 8.87476C24.7908 9.05811 24.2902 9.14935 23.7271 9.14935C23.2171 9.14935 22.7356 9.05724 22.2847 8.87476C21.8337 8.69141 21.4409 8.4368 21.1072 8.1092C20.7735 7.78247 20.5085 7.39491 20.3121 6.94652C20.1157 6.49814 20.0175 6.00978 20.0175 5.47971C20.0175 4.94964 20.1157 4.46128 20.3121 4.01289C20.5085 3.5645 20.7735 3.17694 21.1072 2.85021C21.4409 2.52348 21.8337 2.268 22.2847 2.08465C22.7356 1.9013 23.2171 1.81006 23.7271 1.81006C24.2963 1.81006 24.8047 1.90825 25.253 2.10464C25.7014 2.30102 26.0855 2.57214 26.4062 2.91886L25.4937 3.81216C25.2643 3.57059 25.0097 3.3855 24.7282 3.25776C24.4466 3.13002 24.1104 3.06658 23.7176 3.06658C23.3969 3.06658 23.0928 3.12394 22.8052 3.23864C22.5175 3.35334 22.2655 3.51497 22.0492 3.72439C21.8337 3.93381 21.6616 4.18755 21.5339 4.48474C21.4061 4.78279 21.3427 5.11474 21.3427 5.48058C21.3427 5.84641 21.4061 6.17922 21.5339 6.47641C21.6616 6.77447 21.8345 7.02734 22.0544 7.23676C22.2734 7.44618 22.5271 7.60781 22.8147 7.72251C23.1024 7.83721 23.41 7.89457 23.7376 7.89457C24.1104 7.89457 24.4258 7.84069 24.6847 7.73294C24.9428 7.62519 25.1635 7.48615 25.3469 7.31583C25.4772 7.19852 25.5902 7.04906 25.6858 6.86918C25.7805 6.68931 25.8544 6.48858 25.9065 6.26612H23.6985V5.13733L23.6976 5.13646ZM29.889 4.02771C30.2618 4.02771 30.6033 4.09114 30.9144 4.21888C31.2255 4.34662 31.4931 4.52302 31.719 4.74895C31.945 4.97488 32.1214 5.24426 32.2491 5.55883C32.3768 5.8734 32.4403 6.21664 32.4403 6.58943C32.4403 6.96221 32.3768 7.30545 32.2491 7.62002C32.1214 7.93372 31.945 8.20397 31.719 8.4299C31.4931 8.65583 31.2255 8.83223 30.9144 8.95997C30.6033 9.08771 30.2618 9.15114 29.889 9.15114C29.5162 9.15114 29.1738 9.08771 28.8636 8.95997C28.5525 8.83223 28.2849 8.65583 28.0589 8.4299C27.833 8.20397 27.6566 7.93459 27.5289 7.62002C27.4011 7.30632 27.3377 6.96221 27.3377 6.58943C27.3377 6.21664 27.4011 5.8734 27.5289 5.55883C27.6566 5.24513 27.833 4.97488 28.0589 4.74895C28.2849 4.52302 28.5525 4.34662 28.8636 4.21888C29.1747 4.09114 29.5162 4.02771 29.889 4.02771ZM29.889 7.96239C30.0524 7.96239 30.2114 7.93111 30.3652 7.86941C30.519 7.80772 30.6546 7.71734 30.7727 7.60003C30.89 7.48185 30.9839 7.33847 31.0525 7.16816C31.1212 6.99784 31.1559 6.80493 31.1559 6.58943C31.1559 6.37392 31.1221 6.18101 31.0525 6.01069C30.9839 5.84037 30.8909 5.697 30.7727 5.57882C30.6546 5.46151 30.519 5.37113 30.3652 5.30944C30.2114 5.24774 30.0524 5.21646 29.889 5.21646C29.7256 5.21646 29.5588 5.24774 29.4085 5.30944C29.2581 5.372 29.1243 5.46151 29.0061 5.57882C28.8879 5.697 28.795 5.84037 28.7263 6.01069C28.6577 6.18101 28.6229 6.37392 28.6229 6.58943C28.6229 6.80493 28.6577 6.99871 28.7263 7.16816C28.795 7.33847 28.8879 7.48185 29.0061 7.60003C29.1243 7.71734 29.2581 7.80772 29.4085 7.86941C29.5588 7.93198 29.7187 7.96239 29.889 7.96239ZM36.0761 4.21888C35.765 4.09114 35.4235 4.02771 35.0507 4.02771C34.6779 4.02771 34.3364 4.09114 34.0253 4.21888C33.7142 4.34662 33.4466 4.52302 33.2206 4.74895C32.9947 4.97488 32.8183 5.24513 32.6906 5.55883C32.5628 5.8734 32.4994 6.21664 32.4994 6.58943C32.4994 6.96221 32.5628 7.30632 32.6906 7.62002C32.8183 7.93459 32.9947 8.20397 33.2206 8.4299C33.4466 8.65583 33.7142 8.83223 34.0253 8.95997C34.3355 9.08771 34.6779 9.15114 35.0507 9.15114C35.4235 9.15114 35.765 9.08771 36.0761 8.95997C36.3871 8.83223 36.6548 8.65583 36.8807 8.4299C37.1067 8.20397 37.2831 7.93372 37.4108 7.62002C37.5385 7.30545 37.602 6.96221 37.602 6.58943C37.602 6.21664 37.5385 5.8734 37.4108 5.55883C37.2831 5.24426 37.1067 4.97488 36.8807 4.74895C36.6548 4.52302 36.3871 4.34662 36.0761 4.21888ZM35.5269 7.86941C35.3731 7.93111 35.214 7.96239 35.0507 7.96239C34.8804 7.96239 34.7205 7.93198 34.5701 7.86941C34.4198 7.80772 34.286 7.71734 34.1678 7.60003C34.0496 7.48185 33.9566 7.33847 33.888 7.16816C33.8194 6.99871 33.7846 6.80493 33.7846 6.58943C33.7846 6.37392 33.8194 6.18101 33.888 6.01069C33.9566 5.84037 34.0496 5.697 34.1678 5.57882C34.286 5.46151 34.4198 5.372 34.5701 5.30944C34.7205 5.24774 34.8873 5.21646 35.0507 5.21646C35.214 5.21646 35.3731 5.24774 35.5269 5.30944C35.6807 5.37113 35.8162 5.46151 35.9344 5.57882C36.0526 5.697 36.1456 5.84037 36.2142 6.01069C36.2837 6.18101 36.3176 6.37392 36.3176 6.58943C36.3176 6.80493 36.2829 6.99784 36.2142 7.16816C36.1456 7.33847 36.0517 7.48185 35.9344 7.60003C35.8162 7.71734 35.6807 7.80772 35.5269 7.86941ZM40.1533 11.2688C39.8126 11.2688 39.5102 11.2245 39.2452 11.1367C38.9802 11.049 38.7499 10.9343 38.5535 10.7935C38.3571 10.6527 38.1937 10.4972 38.0625 10.3277C37.9313 10.1574 37.8366 9.98709 37.7775 9.81764L39.0045 9.32667C39.0957 9.58215 39.2461 9.7794 39.4555 9.92018C39.6649 10.0609 39.8969 10.1313 40.1524 10.1313C40.5582 10.1313 40.8789 9.99925 41.1143 9.73682C41.3498 9.47353 41.468 9.11117 41.468 8.64975V8.31606H41.3898C41.2395 8.52548 41.0414 8.69059 40.7963 8.81137C40.5513 8.93216 40.2619 8.99299 39.9282 8.99299C39.6406 8.99299 39.3608 8.93477 39.0888 8.81833C38.8177 8.70188 38.577 8.53504 38.3675 8.3178C38.1581 8.10056 37.9878 7.83987 37.8575 7.53573C37.7262 7.23159 37.6611 6.89096 37.6611 6.51556C37.6611 6.14017 37.7262 5.7978 37.8575 5.49018C37.9878 5.18257 38.1581 4.92014 38.3675 4.7029C38.577 4.48566 38.8168 4.31881 39.0888 4.20237C39.3599 4.08593 39.6397 4.02771 39.9282 4.02771C40.2619 4.02771 40.5513 4.08854 40.7963 4.20932C41.0414 4.33011 41.2395 4.49521 41.3898 4.70464H41.468V4.18499H42.695V8.64975C42.695 9.05555 42.6324 9.41965 42.5082 9.74377C42.3839 10.0679 42.2101 10.3425 41.9877 10.5684C41.7652 10.7944 41.4984 10.9673 41.1882 11.0881C40.8771 11.2089 40.5321 11.2697 40.1533 11.2697V11.2688ZM40.2019 7.83465C40.3592 7.83465 40.5139 7.80598 40.6677 7.74776C40.8215 7.68954 40.9571 7.60525 41.0752 7.49228C41.1934 7.38019 41.2881 7.24202 41.3603 7.07778C41.4324 6.91442 41.468 6.72585 41.468 6.51382C41.468 6.3018 41.4315 6.11236 41.3603 5.94552C41.2881 5.77868 41.1934 5.63877 41.0752 5.52668C40.9579 5.41458 40.8215 5.32942 40.6677 5.2712C40.5139 5.21298 40.3583 5.18431 40.2019 5.18431C40.0455 5.18431 39.8908 5.21298 39.7405 5.2712C39.5902 5.32942 39.4555 5.41545 39.3382 5.53102C39.22 5.6466 39.1253 5.7865 39.0532 5.94987C38.981 6.11323 38.9454 6.3018 38.9454 6.51296C38.9454 6.72411 38.981 6.91268 39.0532 7.07692C39.1253 7.24028 39.22 7.37845 39.3382 7.49141C39.4555 7.60351 39.5902 7.68867 39.7405 7.74689C39.8908 7.80511 40.0446 7.83379 40.2019 7.83379V7.83465ZM43.3024 1.96643V8.99203H44.5876V1.96643H43.3024ZM48.7586 7.22201C48.7395 7.26545 48.7186 7.3089 48.6952 7.35148C48.5796 7.55656 48.3902 7.72253 48.1251 7.85114C47.9896 7.91718 47.8479 7.9615 47.7002 7.98583C47.5525 8.01016 47.403 8.00668 47.2527 7.97366C47.1024 7.94151 46.9598 7.87981 46.8252 7.78857C46.6905 7.6982 46.5679 7.56959 46.4593 7.40449L49.7179 5.82558C49.7006 5.78995 49.6884 5.75693 49.6797 5.72391C49.6658 5.69436 49.6528 5.66047 49.6415 5.62224C49.6339 5.60616 49.6253 5.58853 49.6158 5.56909L49.5902 5.51622C49.4338 5.19297 49.2409 4.9149 49.0123 4.68375C48.7838 4.45261 48.5292 4.27968 48.2485 4.16498C47.9678 4.05028 47.6637 4.00161 47.3378 4.01725C47.0111 4.03377 46.6748 4.12588 46.3272 4.29446C45.9979 4.45434 45.7259 4.66203 45.5121 4.91837C45.2984 5.17472 45.142 5.45626 45.0429 5.76214C44.9438 6.06802 44.9065 6.3878 44.9299 6.72148C44.9534 7.05516 45.0412 7.37842 45.1924 7.69038C45.3549 8.0258 45.5617 8.30561 45.8119 8.5298C46.0622 8.75399 46.3403 8.9191 46.6461 9.02511C46.952 9.13113 47.2727 9.1737 47.6081 9.15372C47.9435 9.13286 48.2755 9.04249 48.6057 8.88347C49.094 8.64711 49.4546 8.33776 49.6884 7.95541C49.6977 7.94046 49.7064 7.92489 49.715 7.90944L49.715 7.90931C49.7209 7.89877 49.7267 7.88828 49.7327 7.87808L48.7612 7.22114L48.7586 7.22201ZM46.2325 5.76996C46.3524 5.53708 46.5358 5.36155 46.7834 5.24163C46.9598 5.15647 47.1241 5.10955 47.277 5.10086C47.4291 5.09217 47.5681 5.10868 47.6933 5.15039C47.8184 5.19123 47.9261 5.24858 48.0156 5.32157C48.1051 5.39457 48.1721 5.46756 48.2146 5.54142L46.1222 6.55551C46.0761 6.26527 46.1126 6.00371 46.2325 5.7717V5.76996ZM22.3021 19.1049C22.0231 19.1049 21.7563 19.0649 21.5017 18.9867C21.2471 18.9085 21.0134 18.7895 20.8013 18.6322C20.5893 18.475 20.4042 18.2821 20.2461 18.0545C20.0879 17.8268 19.9637 17.5618 19.8733 17.2586L21.029 16.8033C21.1142 17.1309 21.2628 17.402 21.4748 17.6174C21.6868 17.8329 21.9658 17.9406 22.3116 17.9406C22.4394 17.9406 22.5619 17.9241 22.6801 17.8903C22.7982 17.8572 22.9042 17.8086 22.9981 17.7443C23.0919 17.6809 23.1667 17.6001 23.2214 17.5036C23.2762 17.4063 23.3031 17.2942 23.3031 17.1674C23.3031 17.0405 23.2814 16.9371 23.2397 16.8398C23.1971 16.7425 23.1258 16.6522 23.0259 16.567C22.926 16.4819 22.7956 16.4002 22.6349 16.3211C22.4741 16.2421 22.2751 16.1604 22.0388 16.0753L21.6382 15.9293C21.4618 15.8685 21.2845 15.7868 21.1064 15.6834C20.9273 15.58 20.7649 15.4558 20.6197 15.3107C20.4746 15.1647 20.3547 14.9936 20.2609 14.7963C20.167 14.5991 20.1201 14.3767 20.1201 14.1273C20.1201 13.878 20.1705 13.6347 20.2704 13.4132C20.3703 13.1916 20.5129 12.9979 20.6979 12.831C20.883 12.6642 21.1037 12.5339 21.3618 12.4401C21.6199 12.3462 21.9058 12.2993 22.2212 12.2993C22.5367 12.2993 22.8321 12.3436 23.072 12.4314C23.3118 12.5191 23.5143 12.6312 23.6811 12.7676C23.8479 12.904 23.9826 13.0543 24.086 13.2177C24.1894 13.381 24.2651 13.5357 24.3137 13.6816L23.231 14.136C23.1702 13.9544 23.0598 13.7902 22.899 13.6451C22.7383 13.4992 22.5184 13.4271 22.2395 13.4271C21.9605 13.4271 21.7511 13.4896 21.5756 13.6139C21.3992 13.7381 21.3114 13.9006 21.3114 14.1004C21.3114 14.3002 21.3966 14.4601 21.566 14.5965C21.7355 14.7329 22.0057 14.865 22.3759 14.9918L22.7852 15.1282C23.0459 15.2195 23.284 15.3237 23.4995 15.4419C23.715 15.56 23.9001 15.7008 24.0548 15.865C24.2094 16.0283 24.3276 16.2151 24.4093 16.4245C24.491 16.6339 24.5318 16.8746 24.5318 17.1474C24.5318 17.4871 24.4632 17.7799 24.3267 18.0249C24.1903 18.2708 24.0157 18.4724 23.8036 18.6296C23.5916 18.7878 23.3518 18.9059 23.085 18.9841C22.8182 19.0632 22.5575 19.1023 22.3029 19.1023L22.3021 19.1049ZM27.7053 18.4863H27.6331C27.4932 18.6566 27.3255 18.8017 27.1283 18.9233C26.931 19.0449 26.6782 19.1049 26.3688 19.1049C26.1385 19.1049 25.9213 19.0667 25.7179 18.9911C25.5146 18.9155 25.3373 18.8103 25.1861 18.6774C25.0341 18.5445 24.9159 18.3837 24.8316 18.1952C24.7464 18.0075 24.7039 17.8008 24.7039 17.5766C24.7039 17.3524 24.749 17.1387 24.8403 16.9537C24.9315 16.7686 25.0584 16.6096 25.2226 16.4758C25.386 16.3429 25.5789 16.2412 25.8005 16.1708C26.0221 16.1013 26.2628 16.0666 26.5235 16.0666C26.8146 16.0666 27.0544 16.0892 27.2421 16.1352C27.4298 16.1804 27.5845 16.2273 27.7061 16.276V16.1396C27.7061 15.9032 27.6123 15.7077 27.4237 15.5531C27.236 15.3984 27.0023 15.3211 26.7233 15.3211C26.3106 15.3211 25.9621 15.494 25.6771 15.8398L24.8125 15.2481C25.2861 14.6539 25.9317 14.3567 26.7503 14.3567C27.442 14.3567 27.9694 14.5192 28.3335 14.8433C28.6976 15.1673 28.8792 15.6487 28.8792 16.2847V18.9589H27.7053V18.4863ZM27.7061 17.1491C27.5662 17.0822 27.4229 17.0292 27.2743 16.9901C27.1257 16.951 26.9632 16.9311 26.7876 16.9311C26.5026 16.9311 26.2828 16.9936 26.1281 17.1179C25.9734 17.2421 25.8961 17.395 25.8961 17.5775C25.8961 17.7599 25.9699 17.905 26.1185 18.0145C26.2671 18.124 26.4383 18.1778 26.633 18.1778C26.7902 18.1778 26.9362 18.1492 27.0701 18.091C27.203 18.0336 27.3168 17.958 27.4116 17.8633C27.5054 17.7695 27.5784 17.66 27.6297 17.5358C27.6809 17.4115 27.707 17.2829 27.707 17.1491H27.7061ZM31.9728 12.4184C31.8277 12.3879 31.6695 12.3732 31.5001 12.3732H31.4992C31.2507 12.3732 31.023 12.4114 30.8171 12.487C30.6103 12.5626 30.4313 12.672 30.2801 12.8145C30.1289 12.957 30.0115 13.1334 29.9299 13.3419C29.8482 13.5504 29.8073 13.792 29.8073 14.0648V14.5018H29.007V15.5209H29.8073V18.9598H30.9996V15.5209H32.1092V14.5018H30.9996V14.1378C30.9996 13.9379 31.0508 13.7815 31.1542 13.6695C31.2576 13.5574 31.3967 13.5009 31.5731 13.5009C31.6756 13.5009 31.7625 13.5096 31.832 13.5278C31.9015 13.5461 31.9667 13.5704 32.0275 13.6008L32.3638 12.5365C32.2491 12.4879 32.1188 12.4488 31.9728 12.4184ZM36.4219 17.8859C36.216 18.2499 35.9379 18.5436 35.5895 18.7686C35.241 18.9928 34.8143 19.1049 34.3112 19.1049C33.9714 19.1049 33.6577 19.0458 33.3692 18.9276C33.0807 18.8095 32.8305 18.6444 32.6185 18.4315C32.4064 18.2195 32.2405 17.9693 32.1223 17.6809C32.0041 17.3933 31.945 17.0761 31.945 16.7304C31.945 16.4089 32.0024 16.1039 32.1179 15.8163C32.2335 15.5288 32.3943 15.2768 32.6002 15.0613C32.8062 14.8459 33.0503 14.6747 33.3327 14.547C33.6152 14.4193 33.9254 14.3558 34.2652 14.3558C34.6232 14.3558 34.9412 14.4149 35.2201 14.5331C35.4991 14.6512 35.7328 14.8154 35.9205 15.024C36.1082 15.2334 36.2507 15.4801 36.3481 15.7651C36.4454 16.0501 36.4932 16.3594 36.4932 16.693V16.8025C36.4871 16.839 36.4845 16.872 36.4845 16.9024C36.4784 16.9328 36.4758 16.9658 36.4758 17.0023H33.119C33.1433 17.1839 33.1928 17.3403 33.2693 17.4706C33.3449 17.6009 33.4388 17.7104 33.5517 17.7981C33.6638 17.8859 33.7863 17.9502 33.9202 17.9893C34.0531 18.0284 34.1895 18.0484 34.3295 18.0484C34.6023 18.0484 34.8282 17.9858 35.0072 17.8616C35.1863 17.7373 35.327 17.5809 35.4304 17.3933L36.4219 17.8842V17.8859ZM35.2619 15.8937C35.3069 15.9906 35.3329 16.0781 35.3391 16.1569H33.1833C33.2624 15.8963 33.3988 15.6938 33.5926 15.5479C33.7872 15.4028 34.0114 15.3298 34.266 15.3298C34.4476 15.3298 34.604 15.3567 34.7344 15.4115C34.8647 15.4662 34.9742 15.5357 35.062 15.6209C35.1498 15.706 35.2167 15.7964 35.2619 15.8937ZM41.0804 12.4461H38.5326L38.5335 12.447V18.9598H41.1716C41.4688 18.9598 41.746 18.9172 42.0041 18.8321C42.2622 18.7469 42.4881 18.6262 42.6819 18.468C42.8766 18.3108 43.0295 18.1214 43.1416 17.8998C43.2537 17.6783 43.3102 17.428 43.3102 17.1491C43.3102 16.7668 43.2085 16.4471 43.0052 16.1891C42.8018 15.9319 42.5333 15.7425 42.1996 15.6209V15.5479C42.4482 15.4271 42.6558 15.2499 42.8227 15.0162C42.9895 14.7824 43.0729 14.4931 43.0729 14.1473C43.0729 13.911 43.0217 13.6894 42.9183 13.4835C42.8149 13.2776 42.6741 13.0969 42.4951 12.9423C42.3161 12.7876 42.1049 12.666 41.8625 12.5782C41.62 12.4905 41.3593 12.4461 41.0804 12.4461ZM41.6487 14.8702C41.494 15.0248 41.2742 15.1022 40.9892 15.1022H39.7613V13.547H41.0257C41.2924 13.547 41.501 13.6234 41.6531 13.7746C41.8051 13.9258 41.8807 14.1082 41.8807 14.3202C41.8807 14.5322 41.8034 14.7155 41.6487 14.8702ZM41.8355 17.5992C41.6713 17.7538 41.4349 17.8312 41.1256 17.8312H39.7613V16.1578H41.09C41.4176 16.1578 41.6644 16.2377 41.8312 16.3985C41.998 16.5592 42.0815 16.7608 42.0815 17.0032C42.0815 17.2456 41.9989 17.4445 41.8355 17.5992ZM43.6734 14.5018H43.6743V18.958H44.8665V16.7634C44.8665 16.5809 44.8926 16.4115 44.9438 16.256C44.9951 16.1005 45.0681 15.9649 45.1619 15.8494C45.2558 15.7338 45.3696 15.6443 45.5034 15.58C45.6364 15.5157 45.7859 15.4836 45.9492 15.4836C46.077 15.4836 46.1847 15.4949 46.2725 15.5157C46.3603 15.5366 46.4402 15.5653 46.5132 15.6017L46.8312 14.5374C46.7522 14.4836 46.6566 14.4401 46.5445 14.4062C46.4324 14.3723 46.2968 14.3558 46.1395 14.3558C46.0118 14.3558 45.8832 14.3767 45.7528 14.4184C45.6225 14.4592 45.5008 14.514 45.3887 14.5817C45.2758 14.6495 45.1741 14.7286 45.0837 14.8198C44.9934 14.911 44.9204 15.0109 44.8656 15.1204H44.7926V14.5018H43.6743V14.5009L43.6734 14.5018ZM49.7284 14.5331C49.4399 14.4149 49.1236 14.3558 48.7777 14.3558C48.4319 14.3558 48.1147 14.4149 47.8271 14.5331C47.5394 14.6512 47.2909 14.8146 47.0815 15.024C46.873 15.2334 46.7087 15.4836 46.5905 15.7746C46.4724 16.0657 46.4133 16.3846 46.4133 16.7295C46.4133 17.0744 46.4724 17.3933 46.5905 17.6843C46.7087 17.9754 46.8721 18.2256 47.0815 18.435C47.2901 18.6435 47.5386 18.8077 47.8271 18.9259C48.1147 19.0441 48.4319 19.1031 48.7777 19.1031C49.1236 19.1031 49.4399 19.0441 49.7284 18.9259C50.016 18.8077 50.2645 18.6444 50.4739 18.435C50.6825 18.2256 50.8467 17.9754 50.9649 17.6843C51.0831 17.3933 51.1422 17.0753 51.1422 16.7295C51.1422 16.3837 51.0831 16.0657 50.9649 15.7746C50.8467 15.4836 50.6834 15.2334 50.4739 15.024C50.2654 14.8154 50.016 14.6512 49.7284 14.5331ZM49.2192 17.9172C49.0767 17.9745 48.9289 18.0032 48.7777 18.0032C48.6196 18.0032 48.471 17.9745 48.3319 17.9172C48.1929 17.8598 48.0678 17.7764 47.9592 17.667C47.8505 17.5575 47.7636 17.4246 47.7002 17.2664C47.6368 17.1083 47.6046 16.9302 47.6046 16.7295C47.6046 16.5288 47.6368 16.3507 47.7002 16.1925C47.7636 16.0344 47.8505 15.9015 47.9592 15.792C48.0678 15.6825 48.192 15.5991 48.3319 15.5418C48.471 15.4844 48.6257 15.4558 48.7777 15.4558C48.9298 15.4558 49.0767 15.4844 49.2192 15.5418C49.3608 15.6 49.4868 15.6825 49.5963 15.792C49.7049 15.9015 49.7918 16.0353 49.8552 16.1925C49.9187 16.3507 49.9508 16.5288 49.9508 16.7295C49.9508 16.9302 49.9187 17.1092 49.8552 17.2664C49.7918 17.4246 49.7058 17.5575 49.5963 17.667C49.4877 17.7764 49.3617 17.8598 49.2192 17.9172ZM50.9058 14.5019H52.2432L52.9801 17.2943H53.0435L53.9264 14.5019H55.1542L56.0458 17.2943H56.1092L56.8374 14.5019H58.1565L56.7279 18.959H55.4453L54.5537 16.1483H54.4903L53.5988 18.959H52.3344L50.9058 14.5019ZM59.254 18.9954C59.4817 19.0684 59.7406 19.1049 60.0317 19.1049L60.0326 19.1058C60.3176 19.1058 60.5766 19.0667 60.8103 18.9876C61.0441 18.9085 61.2439 18.8008 61.4108 18.6644C61.5776 18.528 61.7062 18.3725 61.7975 18.1961C61.8887 18.0197 61.9339 17.8347 61.9339 17.6409C61.9339 17.3134 61.8236 17.0301 61.602 16.7903C61.3804 16.5505 61.0432 16.3768 60.5879 16.2673L59.9057 16.1039C59.7241 16.0562 59.5799 16.0014 59.4739 15.9406C59.3679 15.8798 59.3148 15.7981 59.3148 15.6947C59.3148 15.5852 59.3783 15.4958 59.506 15.4263C59.6338 15.3567 59.7884 15.322 59.9518 15.322C60.1152 15.322 60.2794 15.3611 60.4428 15.4402C60.6061 15.5192 60.7304 15.6469 60.8156 15.8224L61.8435 15.4037C61.6863 15.0396 61.4403 14.7746 61.1067 14.6078C60.773 14.441 60.3932 14.3576 59.9692 14.3576C59.7146 14.3576 59.4765 14.3897 59.2549 14.4532C59.0333 14.5166 58.8404 14.6078 58.677 14.726C58.5137 14.8441 58.3842 14.9884 58.2903 15.1578C58.1965 15.3272 58.1496 15.5218 58.1496 15.7399C58.1496 15.9337 58.1887 16.1031 58.2677 16.249C58.3468 16.3941 58.4468 16.5184 58.5684 16.6218C58.6901 16.7252 58.8247 16.8094 58.9733 16.8763C59.1219 16.9432 59.2653 16.9919 59.4052 17.0223L60.0326 17.1587C60.2933 17.2195 60.4767 17.2882 60.5827 17.3637C60.6887 17.4393 60.7417 17.5375 60.7417 17.6592C60.7417 17.7686 60.6783 17.8625 60.5505 17.9415C60.4228 18.0206 60.2446 18.0597 60.0317 18.0597C59.8188 18.0597 59.6268 18.0032 59.4539 17.8911C59.281 17.7782 59.1437 17.607 59.0403 17.3768L57.9758 17.8312C58.0366 17.9884 58.1244 18.1448 58.2399 18.2995C58.3555 18.4541 58.4963 18.5905 58.6631 18.7087C58.8291 18.8269 59.0263 18.9224 59.254 18.9954ZM62.8428 13.9015C62.7394 13.9015 62.6412 13.8815 62.5474 13.8424C62.4535 13.8033 62.371 13.7485 62.3015 13.679C62.2319 13.6095 62.1772 13.5287 62.1381 13.4384C62.099 13.3471 62.079 13.2472 62.079 13.1378C62.079 13.0283 62.099 12.9284 62.1381 12.8371C62.1772 12.7459 62.2319 12.666 62.3015 12.5965C62.371 12.527 62.4527 12.4722 62.5474 12.4331C62.6412 12.394 62.7394 12.374 62.8428 12.374C63.0549 12.374 63.2373 12.4488 63.3885 12.5965C63.5397 12.745 63.6162 12.9258 63.6162 13.1378C63.6162 13.3497 63.5406 13.5305 63.3885 13.679C63.2365 13.8276 63.0549 13.9015 62.8428 13.9015ZM62.2519 18.9589V14.5018H63.4433V18.9589H62.2519ZM65.2899 15.0839H65.2169L65.216 15.0857V14.5035H64.0968V18.9607H65.289V16.7773C65.289 16.5948 65.3125 16.4237 65.3576 16.2629C65.4028 16.1022 65.4697 15.9623 65.5575 15.8442C65.6461 15.7251 65.7522 15.6313 65.8764 15.5618C66.0007 15.4923 66.1449 15.4575 66.3083 15.4575C66.5811 15.4575 66.7888 15.5348 66.9313 15.6895C67.0739 15.8442 67.1451 16.0822 67.1451 16.4037V18.9598H68.3373V16.2577C68.3373 15.9727 68.3026 15.7138 68.2331 15.4801C68.1635 15.2464 68.0601 15.0466 67.9237 14.8798C67.7873 14.7129 67.6126 14.5843 67.4006 14.4931C67.1886 14.4019 66.9426 14.3567 66.6637 14.3567C66.3604 14.3567 66.0902 14.4219 65.8538 14.5522C65.6175 14.6825 65.4289 14.8598 65.2899 15.0839ZM70.8947 21.0693C70.5792 21.0693 70.2986 21.0285 70.0535 20.9468C69.8076 20.8651 69.5938 20.7591 69.4122 20.6288C69.2306 20.4985 69.0785 20.3543 68.9578 20.197C68.8361 20.0389 68.7483 19.8816 68.6936 19.7243L69.8311 19.2691C69.9162 19.5054 70.0553 19.6887 70.2499 19.8191C70.4437 19.9494 70.6592 20.0145 70.8955 20.0145C71.2718 20.0145 71.569 19.892 71.7871 19.6488C72.0052 19.4046 72.1147 19.0693 72.1147 18.6409V18.3316H72.0417C71.9018 18.5254 71.7185 18.6791 71.4917 18.7912C71.264 18.9033 70.9955 18.9598 70.6861 18.9598C70.4193 18.9598 70.1595 18.9059 69.9084 18.7982C69.6564 18.6904 69.4339 18.5358 69.2393 18.3342C69.0455 18.1335 68.8874 17.8911 68.7666 17.6087C68.6449 17.3264 68.585 17.011 68.585 16.6626C68.585 16.3142 68.6458 15.9979 68.7666 15.7121C68.8882 15.4271 69.0455 15.1838 69.2393 14.9823C69.4331 14.7816 69.6564 14.6269 69.9084 14.5183C70.1604 14.4106 70.4193 14.3558 70.6861 14.3558C70.9955 14.3558 71.264 14.4123 71.4917 14.5244C71.7193 14.6365 71.9027 14.7894 72.0417 14.984H72.1147V14.5018H73.2522V18.6409C73.2522 19.0171 73.1948 19.3551 73.0793 19.6548C72.9637 19.9555 72.8029 20.21 72.597 20.4185C72.391 20.6271 72.1434 20.7887 71.8558 20.9007C71.5673 21.0128 71.2475 21.0693 70.8955 21.0693H70.8947ZM70.9399 17.8859C71.085 17.8859 71.2292 17.859 71.3717 17.806C71.5142 17.7521 71.6403 17.6739 71.7497 17.5696C71.8592 17.4654 71.947 17.3377 72.0139 17.1856C72.0808 17.0336 72.1138 16.8598 72.1138 16.6626C72.1138 16.4654 72.0808 16.2907 72.0139 16.1361C71.947 15.9814 71.8592 15.852 71.7497 15.7477C71.6403 15.6434 71.5142 15.5644 71.3717 15.5114C71.2292 15.4575 71.085 15.4306 70.9399 15.4306C70.7947 15.4306 70.6514 15.4575 70.5123 15.5114C70.3724 15.5653 70.2482 15.6452 70.1395 15.752C70.0301 15.8589 69.9423 15.9892 69.8754 16.1404C69.8085 16.2925 69.7754 16.4662 69.7754 16.6626C69.7754 16.8589 69.8085 17.0336 69.8754 17.1856C69.9423 17.3377 70.0301 17.4654 70.1395 17.5696C70.249 17.6739 70.3733 17.753 70.5123 17.806C70.6514 17.8598 70.7947 17.8859 70.9399 17.8859Z" fill="#777777"/>
  <defs>
    <linearGradient id="paint0_linear_20_2618" x1="7.46879" y1="2.70638" x2="7.46879" y2="3.79867" gradientUnits="userSpaceOnUse">
      <stop stop-color="#263238" stop-opacity="0.35"/>
      <stop offset="0.42" stop-color="#263238" stop-opacity="0.15"/>
      <stop offset="0.89" stop-color="#263238" stop-opacity="0.02"/>
      <stop offset="1" stop-color="#263238" stop-opacity="0"/>
    </linearGradient>
  </defs>
</svg>