<svg width="18" height="18" viewBox="0 0 18 18" fill="none" xmlns="http://www.w3.org/2000/svg">
<g clip-path="url(#clip0_11754_1177)">
<path d="M6.3153 0.323452C8.30398 0.257005 10.6809 0.207279 12.6475 0.355136C15.6616 0.581321 17.2788 2.30588 17.4286 5.3057C17.5317 7.37437 17.5154 9.92094 17.4312 11.9962C17.3083 15.0268 15.8273 16.9477 12.6916 17.1642C10.747 17.2984 8.44058 17.2667 6.47658 17.2108C2.79007 17.1061 0.810211 15.9826 0.595613 12.0825C0.485449 10.0846 0.470908 7.74885 0.549785 5.7431C0.705776 1.79366 2.50761 0.450626 6.3153 0.323452ZM6.13904 1.86363C3.33472 1.98288 2.21546 2.80005 2.09207 5.6991C2.03567 7.03069 2.0837 8.37856 2.0956 9.70355C2.12468 12.9458 1.76246 15.481 5.85967 15.6697C7.79282 15.7586 10.1865 15.7569 12.1205 15.6697C15.1341 15.5338 15.8383 14.2554 15.9326 11.4237C15.9894 9.70839 15.993 7.76557 15.9326 6.05114C15.8224 2.92723 14.9217 1.96572 11.7684 1.84866C9.98199 1.78222 7.92501 1.7875 6.13904 1.86363Z" fill="#FCD200"/>
<path d="M8.87154 4.4155C12.2818 4.33057 14.485 8.02127 12.7493 10.9731C11.0585 13.8484 6.81633 13.7921 5.19957 10.8728C3.62951 8.03711 5.62612 4.49647 8.8711 4.4155H8.87154ZM8.69395 5.95524C5.05812 6.34204 5.58514 11.8946 9.25403 11.5751C12.9494 11.2534 12.44 5.55699 8.69395 5.95524Z" fill="#FCD200"/>
<path d="M13.2305 3.26895C15.0746 2.89535 14.8107 5.77283 13.1666 5.20517C12.2315 4.88217 12.3443 3.44849 13.2305 3.26895Z" fill="#FCD200"/>
</g>
<defs>
<clipPath id="clip0_11754_1177">
<rect width="17" height="17" fill="white" transform="translate(0.5 0.258789)"/>
</clipPath>
</defs>
</svg>
