<svg xmlns="http://www.w3.org/2000/svg" width="32" height="22" viewBox="0 0 32 22" fill="none">
  <path fill-rule="evenodd" clip-rule="evenodd" d="M2.66667 0H29.3333C30.8061 0 32 1.19391 32 2.66667V18.6667C32 20.1394 30.8061 21.3333 29.3333 21.3333H2.66667C1.19391 21.3333 0 20.1394 0 18.6667V2.66667C0 1.19391 1.19391 0 2.66667 0ZM30.6667 2.66667C30.6667 1.93029 30.0697 1.33333 29.3333 1.33333H2.66667C1.93029 1.33333 1.33333 1.93029 1.33333 2.66667V18.6667C1.33333 19.403 1.93029 20 2.66667 20H29.3333C30.0697 20 30.6667 19.403 30.6667 18.6667V2.66667Z" fill="#1B1B1B"/>
  <path d="M21.4 12.3797H22.94H23.1267C23.4448 12.3182 23.6726 12.0369 23.6667 11.713C23.6554 11.3953 23.4351 11.1234 23.1267 11.0463C23.0647 11.0392 23.002 11.0392 22.94 11.0463H21.4V12.3797Z" fill="#1B1B1B"/>
  <path d="M22.7601 2.6665C21.2873 2.6665 20.0934 3.86041 20.0934 5.33317V8.09984H23.8601C23.9487 8.08941 24.0382 8.08941 24.1267 8.09984C24.9734 8.13984 25.6067 8.57984 25.6067 9.33984C25.5892 10.0062 25.0532 10.5423 24.3867 10.5598C25.2534 10.6198 25.9134 11.0998 25.9134 11.8532C25.9134 12.6065 25.1801 13.1865 24.2134 13.1865H20.0801V18.6665H24.0001C25.4728 18.6665 26.6667 17.4726 26.6667 15.9998V2.6665H22.7601Z" fill="#1B1B1B"/>
  <path d="M23.48 9.53971C23.5042 9.2098 23.2678 8.91791 22.94 8.87305H22.7934H21.4V10.1597H22.7934C22.842 10.1672 22.8914 10.1672 22.94 10.1597C23.2534 10.119 23.4861 9.84904 23.48 9.53305V9.53971Z" fill="#1B1B1B"/>
  <path d="M8.00004 2.6665C6.52728 2.6665 5.33337 3.86041 5.33337 5.33317V11.9132C6.04439 12.2856 6.83104 12.4908 7.63337 12.5132C8.00694 12.5567 8.38075 12.4337 8.65553 12.1769C8.93031 11.9201 9.07824 11.5555 9.06004 11.1798V8.0865H11.3334V11.1798C11.3334 12.3798 10.5867 13.3598 8.05337 13.3598C7.13656 13.3592 6.22322 13.2472 5.33337 13.0265V18.6665H9.24671C10.7195 18.6665 11.9134 17.4726 11.9134 15.9998V2.6665H8.00004Z" fill="#1B1B1B"/>
  <path d="M15.3934 2.6665C13.9206 2.6665 12.7267 3.86041 12.7267 5.33317V8.81984C13.3934 8.2465 14.5734 7.87984 16.46 7.97317C17.1661 8.0153 17.8669 8.12242 18.5534 8.29317V9.41984C17.9346 9.08761 17.2535 8.88782 16.5534 8.83317C15.12 8.73317 14.2534 9.43317 14.2534 10.6665C14.2534 11.8998 15.12 12.6132 16.5534 12.4998C17.2518 12.436 17.9311 12.2368 18.5534 11.9132V13.0398C17.8672 13.212 17.1663 13.3191 16.46 13.3598C14.5734 13.4532 13.4 13.0865 12.7267 12.5132V18.6665H16.6667C18.1394 18.6665 19.3334 17.4726 19.3334 15.9998V2.6665H15.3934Z" fill="#1B1B1B"/>
</svg>