<svg xmlns="http://www.w3.org/2000/svg" width="72" height="24" viewBox="0 0 72 24" fill="none">
  <path d="M0 9.62651V0.176943H2.27811V7.63683H5.93022V9.62651H0ZM13.4675 6.3794V6.90647H8.64628C8.67635 7.08153 8.73462 7.25847 8.82108 7.40342C8.90755 7.54836 9.02596 7.69519 9.17257 7.78366C9.31918 7.90037 9.49399 7.98884 9.66879 8.04719C9.8436 8.10555 10.0485 8.13567 10.2233 8.13567C10.5748 8.13567 10.8661 8.07731 11.0992 7.93049C11.3323 7.81378 11.5371 7.63872 11.6838 7.43354L13.2025 8.3992C12.8811 8.86791 12.4713 9.1898 11.9751 9.45333C11.4789 9.68675 10.8642 9.83358 10.1932 9.83358C9.69699 9.83358 9.22896 9.7451 8.79101 9.60016C8.35306 9.45333 7.97337 9.21992 7.62188 8.92815C7.30047 8.63638 7.03732 8.25614 6.83244 7.81566C6.62756 7.37706 6.5411 6.88011 6.5411 6.32293C6.5411 5.76574 6.62944 5.29891 6.83244 4.86032C7.00724 4.42172 7.27039 4.04148 7.59181 3.74783C7.91322 3.45417 8.29291 3.19252 8.73086 3.0457C9.16881 2.87064 9.63684 2.78216 10.1331 2.78216C10.6293 2.78216 11.0672 2.87064 11.477 3.01558C11.8868 3.19064 12.2364 3.42594 12.5296 3.71771C12.8209 4.0396 13.0559 4.41984 13.2006 4.85843C13.3754 5.32715 13.4638 5.8241 13.4638 6.3794H13.4675ZM11.4526 5.56056C11.4526 5.20856 11.336 4.91679 11.1311 4.65325C10.9263 4.38972 10.5767 4.27301 10.1387 4.27301C9.93382 4.27301 9.72894 4.30313 9.55414 4.36148C9.37933 4.41984 9.23272 4.50831 9.08611 4.62502C8.9395 4.74173 8.85304 4.88855 8.76469 5.03538C8.67635 5.1822 8.64816 5.35727 8.61808 5.53233H11.4526V5.56245V5.56056ZM16.9749 7.17C16.9749 7.49189 17.0332 7.72531 17.1497 7.87213C17.2662 8.01896 17.4711 8.10555 17.7925 8.10555C17.9091 8.10555 18.0256 8.10555 18.144 8.07543C18.2606 8.04531 18.3771 8.01708 18.4354 7.98696L18.4654 9.59639C18.3188 9.65475 18.114 9.68487 17.8809 9.74322C17.6478 9.77334 17.4129 9.80158 17.1798 9.80158C16.7418 9.80158 16.3621 9.74322 16.0689 9.62651C15.7776 9.50981 15.5144 9.36298 15.3377 9.1578C15.1629 8.95262 15.0163 8.68909 14.9581 8.39732C14.8998 8.10555 14.8415 7.78366 14.8415 7.43165V4.62314H13.7607V2.98546H14.8133V1.2292H16.9749V2.98546H18.5237V4.62314H16.9749V7.17ZM20.5387 0.00188279C19.8958 0.00188279 19.3695 0.470596 19.3695 1.08425C19.3695 1.69791 19.8075 2.13839 20.4503 2.13839C20.5086 2.13839 20.5669 2.13839 20.5969 2.10827C20.4804 2.57698 20.0424 2.92711 19.6045 2.98546H19.5162V4.00948H19.6327C20.159 3.95112 20.6552 3.71771 21.0349 3.3657C21.5311 2.89699 21.7943 2.19486 21.7943 1.37602C21.7943 0.557185 21.268 0 20.5387 0V0.00188279ZM25.593 4.94691C25.4182 4.77184 25.2133 4.62502 24.9802 4.50831C24.7471 4.3916 24.484 4.33325 24.2209 4.33325C24.016 4.33325 23.8412 4.36337 23.6664 4.44996C23.4916 4.53655 23.4032 4.65514 23.4032 4.86032C23.4032 5.03538 23.4916 5.1822 23.6946 5.27068C23.8994 5.35915 24.1908 5.44574 24.6287 5.53421C24.8919 5.59256 25.125 5.65092 25.3881 5.76763C25.6513 5.88433 25.8561 6.00104 26.0591 6.14787C26.264 6.29469 26.4388 6.49987 26.5554 6.73329C26.6719 6.9667 26.7302 7.23024 26.7302 7.55213C26.7302 7.96249 26.6418 8.31261 26.467 8.60626C26.2922 8.89991 26.0873 9.13333 25.796 9.30839C25.5328 9.48345 25.2114 9.60016 24.89 9.68863C24.5385 9.77711 24.219 9.80534 23.8675 9.80534C23.313 9.80534 22.7867 9.71687 22.2905 9.54181C21.7642 9.36674 21.3262 9.10321 21.0048 8.78132L22.2322 7.49377C22.4371 7.69895 22.6702 7.87401 22.9634 8.02084C23.2547 8.16767 23.5479 8.22602 23.8694 8.22602C24.0442 8.22602 24.2209 8.1959 24.3957 8.10931C24.5705 8.02272 24.6588 7.8759 24.6588 7.67072C24.6588 7.46554 24.5423 7.31871 24.3374 7.202C24.1325 7.11353 23.7829 6.99682 23.3449 6.91023C23.1119 6.85188 22.8769 6.79352 22.6439 6.70505C22.4108 6.61658 22.2059 6.49987 22.0311 6.35305C21.8563 6.20622 21.7097 6.00104 21.5931 5.79774C21.4766 5.56433 21.4183 5.30079 21.4183 5.00714C21.4183 4.59678 21.5067 4.27489 21.6815 3.98312C21.8563 3.69136 22.0612 3.48618 22.3243 3.31111C22.5875 3.13605 22.8788 2.98923 23.2002 2.93087C23.5216 2.8424 23.8431 2.81416 24.1645 2.81416C24.6607 2.81416 25.1569 2.90264 25.6249 3.04758C26.093 3.19441 26.5008 3.42782 26.8223 3.74971L25.5949 4.94879L25.593 4.94691ZM0 20.5688V11.1192H6.33998V13.0506H2.19164V14.8351H6.1069V16.6497H2.19164V18.6093H6.57305V20.5688H0ZM12.3285 20.5688V16.9415C12.3285 16.7664 12.2984 16.5895 12.2702 16.4144C12.2401 16.2393 12.1819 16.0925 12.1236 15.9758C12.0653 15.8591 11.9488 15.7424 11.8322 15.684C11.7157 15.5956 11.5409 15.5673 11.336 15.5673C11.1311 15.5673 10.9563 15.5974 10.8097 15.684C10.6631 15.7725 10.5466 15.8591 10.43 16.0059C10.3417 16.1527 10.2552 16.2977 10.197 16.4746C10.1387 16.6516 10.1086 16.8266 10.1086 17.0017V20.6008H7.91698V13.9598H10.0203V14.8671H10.0504C10.1387 14.7202 10.2252 14.5753 10.3718 14.4567C10.4883 14.3099 10.6631 14.1932 10.8097 14.1047C10.9845 14.0162 11.1612 13.9296 11.3642 13.8713C11.5672 13.8129 11.774 13.7828 12.007 13.7828C12.445 13.7828 12.8247 13.8713 13.1461 14.0162C13.4675 14.1631 13.7006 14.3965 13.9055 14.6299C14.1103 14.8934 14.2269 15.1852 14.3152 15.5071C14.4036 15.829 14.4318 16.1509 14.4318 16.501V20.5971H12.3285V20.5669V20.5688ZM20.159 16.0624C20.0424 15.9156 19.8676 15.7706 19.6628 15.6821C19.4579 15.5937 19.2248 15.5353 19.0199 15.5353C18.7869 15.5353 18.582 15.5937 18.4072 15.6821C18.2324 15.7706 18.0557 15.8873 17.9391 16.0624C17.8226 16.2374 17.7061 16.3843 17.6177 16.5895C17.5294 16.7946 17.5012 16.9998 17.5012 17.2332C17.5012 17.4666 17.5313 17.6718 17.6177 17.877C17.676 18.0822 17.7925 18.2572 17.9391 18.4041C18.0858 18.5509 18.2305 18.6958 18.4354 18.7843C18.6402 18.8728 18.8451 18.9311 19.0782 18.9311C19.3113 18.9311 19.5162 18.901 19.7492 18.8144C19.9541 18.726 20.1289 18.6093 20.2755 18.4342L21.4728 19.9269C21.2097 20.1905 20.83 20.3956 20.4203 20.5406C19.9823 20.6874 19.5143 20.774 19.0462 20.774C18.52 20.774 18.0237 20.6855 17.5858 20.5406C17.1178 20.3938 16.7381 20.1603 16.3885 19.8384C16.067 19.5467 15.8039 19.1664 15.599 18.726C15.3941 18.2874 15.3077 17.7904 15.3077 17.2332C15.3077 16.676 15.396 16.2092 15.599 15.7706C15.8039 15.332 16.067 14.9518 16.3885 14.6581C16.7099 14.3664 17.1196 14.1028 17.5858 13.956C18.0538 13.7809 18.52 13.7226 19.0462 13.7226C19.2793 13.7226 19.5143 13.7527 19.7473 13.7809C19.9804 13.8393 20.2154 13.8976 20.4184 13.956C20.6233 14.0445 20.8281 14.1311 21.0311 14.2478C21.2059 14.3645 21.3826 14.4812 21.4992 14.628L20.1552 16.0624H20.159ZM26.5272 15.7405C26.4388 15.7104 26.3223 15.6821 26.2358 15.6821H25.9727C25.6813 15.6821 25.4464 15.7405 25.2415 15.829C25.0366 15.9457 24.89 16.0624 24.7735 16.2092C24.6569 16.356 24.5686 16.5311 24.5103 16.7062C24.452 16.8812 24.422 17.028 24.422 17.1749V20.5688H22.2303V13.9278H24.3336V14.8934H24.3637C24.5385 14.5414 24.7735 14.2798 25.0949 14.0746C25.4163 13.8694 25.7659 13.7527 26.1757 13.7527H26.4388C26.5272 13.7527 26.5854 13.7828 26.6437 13.7828L26.5272 15.7424V15.7405ZM31.6698 21.5627C31.5232 21.9147 31.3785 22.2065 31.2319 22.4983C31.0571 22.7618 30.8804 22.9952 30.6473 23.2004C30.4142 23.4056 30.1511 23.5223 29.8579 23.639C29.5665 23.7275 29.1868 23.7858 28.7771 23.7858C28.5722 23.7858 28.3673 23.7858 28.1342 23.7557C27.9294 23.7256 27.7245 23.6973 27.5797 23.639L27.8128 21.7961C27.9294 21.8262 28.0459 21.8545 28.1643 21.8846C28.2808 21.9147 28.3974 21.9147 28.5158 21.9147C28.8673 21.9147 29.1004 21.8262 29.247 21.6813C29.3936 21.5364 29.5383 21.3011 29.6267 21.0093L29.8315 20.454L27.0553 13.9296H29.48L30.9706 18.2008H31.0007L32.3145 13.9296H34.6227L31.6717 21.5665L31.6698 21.5627ZM42.5961 17.2332C42.5961 17.7019 42.5378 18.1405 42.3912 18.5791C42.2446 19.0177 42.0397 19.3697 41.7784 19.7199C41.5153 20.0417 41.1657 20.3053 40.786 20.5105C40.4063 20.7156 39.9383 20.8022 39.4421 20.8022C39.0323 20.8022 38.6526 20.7138 38.2729 20.5688C37.9214 20.3938 37.6301 20.1886 37.4252 19.8968H37.3951V23.846H35.2035V14.0162H37.2786V14.8351H37.3087C37.5136 14.5715 37.8049 14.3381 38.1564 14.1329C38.5079 13.9278 38.9458 13.8412 39.4421 13.8412C39.9101 13.8412 40.348 13.9296 40.7559 14.1329C41.1356 14.308 41.4871 14.5715 41.7484 14.8934C42.0096 15.2153 42.2164 15.5956 42.3611 16.0059C42.5077 16.3278 42.5942 16.7664 42.5942 17.2351L42.5961 17.2332ZM40.4627 17.2332C40.4627 17.028 40.4326 16.8229 40.3744 16.6196C40.3161 16.4144 40.1996 16.2393 40.083 16.0925C39.9665 15.9457 39.7917 15.8007 39.5868 15.7123C39.3819 15.6238 39.177 15.5654 38.9158 15.5654C38.6545 15.5654 38.4477 15.6238 38.2447 15.7123C38.0399 15.8007 37.8932 15.9457 37.7485 16.0925C37.6019 16.2393 37.5154 16.4445 37.4271 16.6478C37.3388 16.853 37.3106 17.0582 37.3106 17.2615C37.3106 17.4648 37.3406 17.6718 37.4271 17.8751C37.5154 18.0803 37.6019 18.2554 37.7485 18.4304C37.8951 18.5773 38.0399 18.7222 38.2447 18.8107C38.4496 18.8991 38.6545 18.9575 38.9158 18.9575C39.177 18.9575 39.412 18.8991 39.5868 18.8107C39.7917 18.7222 39.9383 18.5773 40.083 18.4304C40.1996 18.2836 40.3161 18.0784 40.3744 17.8751C40.4326 17.6417 40.4627 17.4365 40.4627 17.2313V17.2332ZM46.0715 18.1104C46.0715 18.4323 46.1298 18.6657 46.2463 18.8125C46.3628 18.9594 46.5677 19.046 46.8891 19.046C47.0057 19.046 47.1222 19.046 47.2406 19.0158C47.3572 18.9857 47.4737 18.9575 47.532 18.9274L47.562 20.5368C47.4154 20.5952 47.2106 20.6253 46.9775 20.6836C46.7444 20.7138 46.5095 20.742 46.2764 20.742C45.8384 20.742 45.4587 20.6836 45.1655 20.5669C44.8742 20.4502 44.611 20.3034 44.4343 20.0982C44.2577 19.893 44.1129 19.6295 44.0547 19.3377C43.9964 19.046 43.9381 18.7241 43.9381 18.3721V15.5636H42.8855V13.9259H43.9381V12.1696H46.0715V13.9259H47.6203V15.5636H46.0715V18.1104Z" fill="#1B1B1B"/>
  <path d="M66.8174 12.5451H64.8507V11.529C64.8507 10.7208 64.1889 10.0567 63.3806 10.0567C62.5723 10.0567 61.9105 10.7195 61.9105 11.529V12.5451H59.9437V11.529C59.9437 9.62199 61.4964 8.0884 63.3793 8.0884C65.2621 8.0884 66.8148 9.64332 66.8148 11.529V12.5451H66.8174Z" fill="#1B1B1B"/>
  <path d="M67.6258 12.5451H59.1395C58.7667 12.5451 58.4777 12.8359 58.4777 13.2079V19.4889C58.4777 19.8623 58.768 20.1517 59.1395 20.1517H67.6258C67.9987 20.1517 68.2876 19.861 68.2876 19.4889V13.2079C68.2663 12.8345 67.9773 12.5451 67.6258 12.5451ZM63.7975 16.6698V17.5193C63.7975 17.7473 63.611 17.954 63.3634 17.954C63.1357 17.954 62.9293 17.7673 62.9293 17.5193V16.6698C62.6603 16.5245 62.4952 16.2351 62.4952 15.903C62.4952 15.4269 62.888 15.0322 63.3647 15.0322C63.8414 15.0322 64.2342 15.4256 64.2342 15.903C64.2555 16.2351 64.0691 16.5245 63.8001 16.6698H63.7975Z" fill="#1B1B1B"/>
  <path d="M58.27 11.6116H56.2207C55.8891 11.6116 55.6201 11.3423 55.6201 11.0102C55.6201 10.6782 55.8891 10.4088 56.2207 10.4088H58.27C58.6016 10.4088 58.8705 10.6782 58.8705 11.0102C58.8705 11.3423 58.6016 11.6116 58.27 11.6116Z" fill="#1B1B1B"/>
  <path d="M59.7189 8.37912C59.595 8.37912 59.4499 8.33778 59.346 8.23377L57.7321 6.90688C57.4831 6.70018 57.4418 6.32679 57.6496 6.05741C57.856 5.80804 58.2288 5.7667 58.4978 5.97473L60.1117 7.30161C60.3607 7.50832 60.402 7.88171 60.1942 8.15109C60.0491 8.29644 59.884 8.37912 59.7189 8.37912Z" fill="#1B1B1B"/>
  <path d="M63.3818 6.96956C63.0503 6.96956 62.7813 6.70018 62.7813 6.36812V4.29578C62.7813 3.96373 63.0503 3.69435 63.3818 3.69435C63.7134 3.69435 63.9824 3.96373 63.9824 4.29578V6.36812C63.9824 6.70018 63.7134 6.96956 63.3818 6.96956Z" fill="#1B1B1B"/>
  <path d="M67.0252 8.37912C66.8601 8.37912 66.6736 8.29644 66.5698 8.15108C66.3634 7.9017 66.4047 7.50831 66.6523 7.30161L68.2662 5.97472C68.5152 5.76802 68.9081 5.80936 69.1145 6.0574C69.3209 6.30544 69.2796 6.70017 69.0319 6.90687L67.418 8.23376C67.2942 8.33778 67.169 8.37912 67.0252 8.37912Z" fill="#1B1B1B"/>
  <path d="M70.5233 11.6116H68.454C68.1225 11.6116 67.8535 11.3423 67.8535 11.0102C67.8535 10.6782 68.1225 10.4088 68.454 10.4088H70.5233C70.8549 10.4088 71.1239 10.6782 71.1239 11.0102C71.1239 11.3423 70.8549 11.6116 70.5233 11.6116Z" fill="#1B1B1B"/>
</svg>