<svg width="135" height="44" viewBox="0 0 135 44" fill="none" xmlns="http://www.w3.org/2000/svg">
<g clip-path="url(#clip0_291_2176)">
<rect width="135" height="44" fill="white"/>
<path fill-rule="evenodd" clip-rule="evenodd" d="M114.051 22.2607C114.025 25.7473 113.747 29.1976 112.557 32.5155C111.788 34.6609 110.718 36.6195 108.916 38.1034C106.888 39.7741 104.521 40.2696 101.967 39.9972C97.9283 39.5665 95.6157 37.0165 94.1037 33.5506C93.1357 31.3326 92.6753 28.9823 92.4268 26.5852C92.16 24.0014 92.1286 21.4124 92.3431 18.8286C92.6308 15.3265 93.2927 11.9151 95.2024 8.86693C96.6281 6.59183 98.6006 5.01716 101.316 4.59431C105.209 3.98727 108.447 5.11055 110.755 8.40517C112.243 10.5272 113.067 12.9294 113.457 15.451C113.805 17.7001 113.959 19.9778 114.197 22.2426C114.148 22.2477 114.101 22.2529 114.051 22.2581V22.2607ZM96.8688 22.1492C96.8688 23.1012 96.8296 24.0559 96.8766 25.008C96.9839 27.2026 97.235 29.3844 97.91 31.4908C98.3442 32.8476 98.9224 34.1525 100.029 35.1071C102.258 37.0294 105.418 36.5651 107.105 34.1058C108.254 32.4325 108.746 30.518 109.023 28.5594C109.656 24.1 109.656 19.6302 108.931 15.176C108.638 13.373 108.152 11.6168 107.084 10.0836C105.078 7.20406 101.198 7.16255 99.2232 10.0629C98.6032 10.976 98.1533 12.0448 97.8236 13.1032C96.908 16.045 96.8505 19.101 96.8688 22.1492Z" fill="#C00146"/>
<path fill-rule="evenodd" clip-rule="evenodd" d="M76.3487 39.5562C74.6901 39.5562 73.097 39.5639 71.5064 39.5432C71.3704 39.5432 71.1847 39.3668 71.114 39.2293C69.4058 35.8387 67.7106 32.4403 66.0154 29.0419C65.071 27.1456 64.3124 25.1844 64.0011 23.0779C63.9827 22.9586 63.9671 22.8418 63.9618 22.7225C63.954 22.5876 63.9618 22.4527 63.9618 22.323C64.7571 22.1232 65.5471 21.9728 66.3032 21.7263C69.2645 20.7639 70.8812 18.6029 70.9545 15.5106C70.9911 13.9204 70.8655 12.3457 70.2664 10.8437C69.4162 8.71128 67.6897 7.54131 65.3823 7.50239C64.3621 7.48683 63.3628 7.55168 62.3896 7.8993C62.0364 8.02642 61.9292 8.20023 61.9318 8.56342C61.9449 11.5805 61.9396 14.6001 61.9396 17.6171V39.5276H57.5081V38.918C57.5081 28.2948 57.5107 17.6742 57.4976 7.05101C57.4976 6.57627 57.6546 6.30907 58.0496 6.073C59.6585 5.10796 61.419 4.67214 63.2712 4.52167C65.2018 4.36343 67.1115 4.41531 68.9924 4.93934C71.7602 5.71241 73.649 7.43235 74.5593 10.1303C75.3782 12.5637 75.5587 15.0644 75.0041 17.5808C74.3056 20.7431 71.891 23.2206 68.6053 24.0974C71.1847 29.2469 73.751 34.3678 76.3513 39.5562H76.3487Z" fill="#C00146"/>
<path fill-rule="evenodd" clip-rule="evenodd" d="M132.758 9.60109C131.505 8.60752 130.118 8.15613 128.617 8.04458C125.308 7.79813 123.212 9.97206 123.435 13.303C123.591 15.6455 124.821 17.3421 126.519 18.8053C128.19 20.2476 129.914 21.6355 131.523 23.1427C133.13 24.65 134.359 26.44 134.785 28.6476C135.497 32.3469 134.498 36.3939 131.034 38.6508C129.789 39.4628 128.405 39.9064 126.93 40.0101C124.486 40.1814 122.093 39.9635 119.866 38.8298C119.442 38.6145 119.05 38.3369 118.626 38.0775C119.04 36.8686 119.44 35.7012 119.822 34.5753C120.633 34.9722 121.378 35.434 122.192 35.709C123.673 36.2123 125.206 36.3601 126.754 35.9684C128.816 35.4496 130.226 33.6518 130.312 31.5479C130.419 28.9122 129.242 26.8913 127.33 25.2103C126.032 24.0689 124.669 23.0001 123.395 21.8327C121.425 20.0271 119.79 17.9648 119.228 15.2901C118.396 11.3262 119.788 7.29486 123.584 5.32587C125.224 4.47498 126.99 4.33489 128.795 4.49055C130.409 4.63063 131.926 5.05089 133.252 6.03149C133.616 6.30129 133.755 6.54774 133.587 7.00172C133.284 7.82926 133.046 8.68016 132.758 9.5985V9.60109Z" fill="#C00146"/>
<path fill-rule="evenodd" clip-rule="evenodd" d="M81.5311 4.97565H86.0071V39.5328H81.5311V4.97565Z" fill="#C00146"/>
<path fill-rule="evenodd" clip-rule="evenodd" d="M36.5354 17.9362C37.7624 18.7456 38.7015 19.7988 39.4497 21.0181C39.5831 21.236 39.6668 21.524 39.659 21.7756C39.6223 23.0053 40.0304 24.0715 40.7682 25.0417C40.9251 25.2466 41.0585 25.5138 41.0821 25.7629C41.4719 29.7034 39.5674 33.9475 35.8997 36.1293C35.8448 36.1604 35.7794 36.1733 35.8291 36.1552C35.6434 35.0034 35.4498 33.8541 35.2797 32.7023C35.2614 32.5726 35.3373 32.4118 35.4105 32.2873C36.8677 29.7476 37.0848 27.13 35.9547 24.4087C35.3373 22.9222 35.3085 21.3995 35.8317 19.8741C36.0515 19.2333 36.2948 18.5977 36.5354 17.9362Z" fill="#C00146"/>
<path fill-rule="evenodd" clip-rule="evenodd" d="M16.5673 7.54127C11.4059 7.63726 7.81672 11.3677 7.63098 15.7285C6.91158 15.7285 6.18955 15.6663 5.48322 15.7415C4.31125 15.8686 3.1445 16.0554 1.98821 16.2863C1.62197 16.3589 1.44147 16.3148 1.31328 15.9931C0.996741 15.2045 0.693282 14.4133 0.361047 13.635C0.146533 13.1317 0.324423 12.7815 0.677586 12.4132C2.49049 10.5246 4.71673 9.44281 7.30398 9.11075C9.80752 8.78908 11.7931 7.63207 13.3418 5.67346C13.7734 5.12868 14.2835 4.64616 14.8041 4.08582C15.7171 5.1209 16.2325 6.26234 16.5673 7.53868V7.54127Z" fill="#C00146"/>
<path fill-rule="evenodd" clip-rule="evenodd" d="M1.87835 16.9815C3.48197 16.4835 4.98357 16.2733 6.51918 16.403C7.58913 16.4938 7.56297 16.5224 7.77749 17.5185C7.91613 18.1619 8.09141 18.8078 8.33208 19.4201C9.01225 21.153 8.98609 22.8548 8.32423 24.5903C8.08356 25.2233 7.71993 25.5968 7.11301 25.8952C5.53555 26.6734 4.27986 27.846 3.2753 29.2961C2.66839 28.7695 2.08501 28.2637 1.40485 27.6748C1.97514 26.9588 2.51927 26.222 3.11834 25.532C3.73049 24.829 4.27463 24.0974 4.50222 23.1791C4.94694 21.3683 4.41589 19.8326 3.17066 18.4888C2.74425 18.0296 2.35446 17.5341 1.88358 16.9815H1.87835Z" fill="#C00146"/>
<path fill-rule="evenodd" clip-rule="evenodd" d="M0.075856 12.1226C-0.190979 9.49211 0.410707 7.16772 1.77366 5.03011C1.8626 4.89002 2.14513 4.7681 2.30994 4.79404C3.17061 4.93412 4.02344 5.11831 4.87626 5.3025C7.99718 5.97958 10.4144 4.9004 11.9605 2.12981C11.984 2.08571 12.0232 2.04939 12.141 1.89893C12.9048 2.43852 13.674 2.9833 14.4561 3.53586C13.3914 4.65395 12.447 5.74092 11.4006 6.71633C10.2941 7.74622 8.88925 8.25468 7.40073 8.44146C4.54664 8.79687 2.12682 9.97463 0.075856 12.12V12.1226Z" fill="#C00146"/>
<path fill-rule="evenodd" clip-rule="evenodd" d="M35.9861 7.25336C38.2463 9.58813 40.9618 10.9553 44.3077 11.0538C44.3233 12.0734 44.1847 13.0462 43.8525 13.9723C43.1331 15.9828 43.5176 15.7597 41.2469 15.8764C39.7087 15.9543 38.2489 15.5573 36.9357 14.7428C36.7055 14.6001 36.4805 14.3225 36.4125 14.0657C36.109 12.932 35.6172 11.8995 34.9161 10.9579C34.8167 10.823 34.7199 10.5999 34.7618 10.4598C35.0835 9.3754 35.4393 8.304 35.7846 7.22742C35.8527 7.23779 35.9181 7.24558 35.9861 7.25595V7.25336Z" fill="#C00146"/>
<path fill-rule="evenodd" clip-rule="evenodd" d="M5.5094 34.6298C7.10779 34.7673 8.58585 34.5494 10.0247 34.0331C10.145 33.989 10.3621 34.0461 10.4615 34.1343C11.8454 35.3613 13.4543 36.0877 15.3378 36.3368C14.982 37.3822 14.43 38.2876 13.7446 39.1125C12.8604 40.1736 11.7957 41.0219 10.5583 41.6574C10.3124 41.782 10.1345 41.7794 9.91217 41.6185C7.65716 39.9894 6.21049 37.831 5.55387 35.146C5.51986 35.0033 5.52771 34.8477 5.5094 34.6298Z" fill="#C00146"/>
<path fill-rule="evenodd" clip-rule="evenodd" d="M41.8145 26.2402C42.67 27.2545 43.2351 28.3597 43.7164 29.5244C44.1847 30.6529 44.135 31.6854 43.5804 32.7931C42.6883 34.5675 41.5765 36.1656 40.1298 37.5275C39.2875 38.3213 38.5419 39.1748 38.0867 40.2514C38.0422 40.3552 37.9193 40.4953 37.8225 40.5004C36.7447 40.5809 35.6747 40.5368 34.6937 40.2955C34.9946 39.2293 35.2745 38.202 35.5806 37.1825C35.6172 37.0606 35.7715 36.9516 35.8945 36.879C39.2639 34.8944 41.1501 31.937 41.7125 28.1236C41.8015 27.5269 41.7779 26.9173 41.8119 26.2376L41.8145 26.2402Z" fill="#C00146"/>
<path fill-rule="evenodd" clip-rule="evenodd" d="M22.2964 39.2604C21.7784 39.3486 21.2474 39.3953 20.7425 39.5354C19.8635 39.7793 19.1572 40.3214 18.5084 40.9441C17.4986 41.9117 16.3606 42.6951 15.0317 43.1621C14.6681 43.2892 14.2338 43.3203 13.8492 43.2607C12.8316 43.1076 11.8794 42.7366 11.0449 42.2827C11.9657 41.5277 12.9153 40.8299 13.7655 40.0283C14.7073 39.1437 15.3744 38.0412 15.8374 36.8375C15.9708 36.4898 16.1723 36.4094 16.5045 36.3523C17.4934 36.1785 18.4744 35.9528 19.4606 35.7531C19.5862 35.7271 19.7379 35.6882 19.8478 35.7323C21.0669 36.1993 22.2624 37.9348 22.2938 39.2578L22.2964 39.2604Z" fill="#C00146"/>
<path fill-rule="evenodd" clip-rule="evenodd" d="M38.4634 1.31525C41.1056 2.31141 44.1978 6.30906 44.2763 10.3975C41.0481 10.3145 38.4634 8.93437 36.2634 6.61258C37.4667 5.02493 38.3536 3.32834 38.4634 1.31525Z" fill="#C00146"/>
<path fill-rule="evenodd" clip-rule="evenodd" d="M34.7121 33.1874C35.0469 34.3496 35.0836 35.3977 34.9999 36.4483C34.9894 36.5754 34.767 36.7466 34.6127 36.7907C33.4826 37.1124 32.3577 37.4989 31.2014 37.6909C29.0327 38.0541 27.2041 38.9699 25.7365 40.5938C25.7025 40.6301 25.658 40.6561 25.7287 40.6016C24.8366 40.1891 24.0099 39.8104 23.1859 39.4161C23.0969 39.3745 22.9949 39.2578 22.9844 39.1644C22.7909 37.5742 21.9511 36.3834 20.6693 35.4651C20.6588 35.4573 20.6562 35.434 20.6353 35.3769C21.7785 35.0578 22.9033 35.1201 24.0204 35.4573C24.8078 35.6934 25.5717 36.0306 26.3722 36.1863C29.48 36.7855 32.1275 35.8594 34.3458 33.657C34.4636 33.5402 34.5525 33.3975 34.7173 33.1848L34.7121 33.1874Z" fill="#C00146"/>
<path fill-rule="evenodd" clip-rule="evenodd" d="M31.8292 8.31694C30.8403 8.08865 29.8776 7.81107 28.8914 7.65283C27.4866 7.42713 26.121 7.69952 24.8209 8.24171C24.3264 8.44924 23.9131 8.41552 23.4658 8.17426C22.0374 7.41157 21.2892 6.21565 21.114 4.63579C21.5456 4.63579 21.9511 4.64616 22.3566 4.63579C23.6803 4.59687 24.7555 4.01578 25.6946 3.13116C26.3303 2.5319 26.3355 2.52671 27.1047 2.96254C29.3152 4.21553 30.8665 6.03665 31.8266 8.31694H31.8292Z" fill="#C00146"/>
<path fill-rule="evenodd" clip-rule="evenodd" d="M32.635 0.0544741C32.8233 0.900179 32.962 1.68622 33.1765 2.4541C33.5741 3.8809 34.27 5.16502 35.1934 6.32462C35.3922 6.57626 35.4315 6.75785 35.2824 7.08213C34.8429 8.03419 34.4845 9.01998 34.0868 10.0084C33.4669 9.4584 32.7501 8.99923 32.3812 8.04197C31.3976 5.49189 29.6082 3.57479 27.1753 2.26732C27.1021 2.2284 27.034 2.1843 26.898 2.10388C28.6377 0.837918 30.5264 0.173807 32.635 0.0518799V0.0544741Z" fill="#C00146"/>
<path fill-rule="evenodd" clip-rule="evenodd" d="M9.43078 42.2749C8.35821 42.4616 7.28826 42.6562 6.21307 42.8274C6.07966 42.8482 5.91223 42.7652 5.78404 42.6925C5.40995 42.485 5.04371 42.2645 4.6827 42.0336C3.87173 41.5122 3.28574 40.9181 3.21772 39.826C3.16279 38.9517 2.71283 38.1086 2.49308 37.237C2.20532 36.0929 2.11638 34.9281 2.32304 33.7452C3.15755 34.0202 3.95021 34.2822 4.75071 34.5442C5.63232 38.1501 6.234 39.1229 9.41247 42.0803C9.4177 42.1426 9.42294 42.2074 9.42817 42.2697L9.43078 42.2749Z" fill="#C00146"/>
<path fill-rule="evenodd" clip-rule="evenodd" d="M7.77748 26.2558C7.40338 28.9719 7.99199 31.3378 9.74996 33.4261C8.38439 33.9268 7.01883 34.1369 5.60356 33.9527C5.50153 33.9398 5.35765 33.7789 5.33672 33.6674C5.09343 32.3806 4.6147 31.1951 3.87175 30.1107C3.79327 29.994 3.77757 29.7424 3.85344 29.6308C4.82398 28.1625 6.132 27.0729 7.77748 26.2532V26.2558Z" fill="#C00146"/>
<path fill-rule="evenodd" clip-rule="evenodd" d="M22.9792 8.71909C21.9301 8.88252 20.9701 8.72427 20.0204 8.42854C19.1912 8.16912 18.354 7.93564 17.5221 7.67363C17.3992 7.63472 17.2291 7.52835 17.2056 7.42459C16.8838 6.06264 16.2638 4.84856 15.3142 3.64226C16.1069 3.21941 16.8498 2.81212 17.6058 2.43597C17.6922 2.39186 17.8858 2.48526 17.993 2.56308C18.7621 3.12602 19.526 3.69415 20.282 4.27524C20.3736 4.34529 20.4573 4.48797 20.4652 4.59952C20.5724 6.32465 21.4017 7.61915 22.8327 8.56603C22.8719 8.59197 22.8981 8.63348 22.9765 8.71649L22.9792 8.71909Z" fill="#C00146"/>
<path fill-rule="evenodd" clip-rule="evenodd" d="M2.49573 4.08325C4.11243 1.35676 8.4001 0.433229 11.4242 1.72254C10.8068 3.15713 9.72119 4.06768 8.2693 4.59171C7.14179 4.999 6.01167 4.91598 4.87631 4.63581C4.09673 4.44384 3.31193 4.27263 2.49573 4.08325Z" fill="#C00146"/>
<path fill-rule="evenodd" clip-rule="evenodd" d="M35.8108 6.08596C34.3955 4.30116 33.5453 2.35552 33.3465 0C34.1051 0.0752314 34.8167 0.0985791 35.51 0.228288C36.1613 0.352809 36.7866 0.604446 37.4327 0.767879C37.7754 0.856082 37.8408 1.04286 37.8121 1.35935C37.6499 3.1234 36.9514 4.66175 35.8108 6.08596Z" fill="#C00146"/>
<path fill-rule="evenodd" clip-rule="evenodd" d="M33.629 40.7599C33.5584 41.7949 33.4903 42.8197 33.4171 43.9144C31.3007 43.9818 29.3335 43.4085 27.5049 42.2775C28.7213 40.5575 31.4368 39.9064 33.6316 40.7573L33.629 40.7599Z" fill="#C00146"/>
<path fill-rule="evenodd" clip-rule="evenodd" d="M39.7871 20.3306C39.052 19.1762 38.0135 18.1956 36.8624 17.324C36.7552 17.2435 36.6401 17.0853 36.6401 16.9608C36.6348 16.4575 36.6741 15.9542 36.6924 15.5158C37.6682 15.8115 38.623 16.2059 39.6171 16.3797C40.6007 16.5509 41.6236 16.5042 42.6909 16.5561C41.7439 17.7857 40.7812 19.0413 39.7871 20.3306Z" fill="#C00146"/>
<path fill-rule="evenodd" clip-rule="evenodd" d="M34.9266 37.5508C34.6179 38.3499 34.3118 39.1696 33.9691 39.9764C33.9429 40.0413 33.6682 40.0516 33.5296 40.0127C32.1536 39.6495 30.788 39.5847 29.4355 40.1061C28.4624 40.4849 27.6252 41.0686 26.9058 41.8728C26.6259 41.6445 26.3643 41.4343 26.0765 41.2009C27.3192 39.7377 28.8417 38.835 30.686 38.4536C32.0568 38.1683 33.425 37.8699 34.9266 37.5508Z" fill="#C00146"/>
<path fill-rule="evenodd" clip-rule="evenodd" d="M38.678 40.2851C39.1855 39.634 39.6197 38.9076 40.2136 38.3472C41.8538 36.8089 43.2272 35.0915 44.1664 33.0473C44.1847 33.0058 44.224 32.9747 44.3155 32.8657C44.3338 34.3496 44.0539 35.6934 43.5464 36.9957C43.447 37.2499 43.3057 37.486 43.222 37.7454C42.5262 39.9167 40.6138 40.0698 38.8245 40.4226C38.7748 40.3759 38.7277 40.3318 38.678 40.2851Z" fill="#C00146"/>
<path fill-rule="evenodd" clip-rule="evenodd" d="M34.0816 43.8158C34.1418 42.8637 34.2019 41.9091 34.2621 40.9648C35.4838 41.0737 36.5825 41.1723 37.6996 41.2735C37.6551 41.8261 37.6159 42.3968 37.5505 42.9649C37.54 43.0583 37.4354 43.1958 37.349 43.2191C36.334 43.4915 35.3138 43.7432 34.2961 44.0026C34.2255 43.9403 34.1549 43.8781 34.0842 43.8184L34.0816 43.8158Z" fill="#C00146"/>
<path fill-rule="evenodd" clip-rule="evenodd" d="M0.0915593 32.2432C0.61738 32.6115 1.29232 32.8528 1.54345 33.3198C1.78674 33.7737 1.60624 34.456 1.59054 35.0371C1.55915 36.2797 1.80506 37.4704 2.24716 38.6275C2.41459 39.0685 2.5297 39.5302 2.68666 40.0517C1.08565 38.8428 -0.384557 34.3678 0.0889432 32.2432H0.0915593Z" fill="#C00146"/>
<path fill-rule="evenodd" clip-rule="evenodd" d="M12.3738 1.22708C12.5535 0.467847 13.0401 0.189404 13.8336 0.391751C15.0003 0.690083 16.0807 1.1752 17.0931 1.87303C16.4078 2.29588 15.7537 2.71095 15.0867 3.10008C15.0108 3.14418 14.8303 3.0923 14.744 3.02745C13.9696 2.44894 13.2057 1.86006 12.3765 1.22449L12.3738 1.22708Z" fill="#C00146"/>
<path fill-rule="evenodd" clip-rule="evenodd" d="M1.73182 32.6634C1.25308 32.2769 0.758655 31.8929 0.28777 31.4856C0.204057 31.4156 0.149121 31.2288 0.180513 31.125C0.444732 30.1989 0.732495 29.2806 1.0595 28.2144C1.69258 28.7877 2.20008 29.2365 2.68667 29.706C2.77299 29.789 2.82793 29.994 2.78869 30.1003C2.4643 30.9331 2.11114 31.758 1.73443 32.666L1.73182 32.6634Z" fill="#C00146"/>
<path fill-rule="evenodd" clip-rule="evenodd" d="M4.70623 33.8905C3.88218 33.5921 3.15754 33.3327 2.35181 33.0422C2.6605 32.1653 2.94041 31.3715 3.26742 30.4402C4.07577 31.5142 4.46032 32.596 4.70623 33.8905Z" fill="#C00146"/>
<path fill-rule="evenodd" clip-rule="evenodd" d="M7.55511 43.4111C8.42363 43.1284 9.24244 42.8586 10.0639 42.6043C10.1581 42.5758 10.2915 42.6225 10.3909 42.6666C11.194 43.0298 11.9945 43.4033 12.7531 43.7536C12.1175 44.0597 9.22151 44.0233 7.55249 43.4111H7.55511Z" fill="#C00146"/>
<path fill-rule="evenodd" clip-rule="evenodd" d="M38.1757 42.8508C38.2646 42.28 38.3248 41.8131 38.4216 41.3539C38.4425 41.2579 38.5759 41.1386 38.6779 41.1152C39.5412 40.9207 40.4097 40.7443 41.3123 40.5575C40.4464 41.5148 39.4601 42.2697 38.1757 42.8508Z" fill="#C00146"/>
<path fill-rule="evenodd" clip-rule="evenodd" d="M8.10968 0.389113C9.32352 0.044086 10.6394 -0.0285512 12.0363 0.0829988C11.916 0.433214 11.8114 0.744516 11.7381 0.962428C10.4746 0.762676 9.26858 0.5733 8.10968 0.389113Z" fill="#C00146"/>
</g>
<defs>
<clipPath id="clip0_291_2176">
<rect width="135" height="44" fill="white"/>
</clipPath>
</defs>
</svg>
