<svg xmlns="http://www.w3.org/2000/svg" width="112" height="50" viewBox="0 0 112 50" fill="none">
  <g clip-path="url(#clip0_11683_44)">
    <path d="M96.9517 0.0735133C109.415 -1.1359 116.862 14.1507 108.309 23.4337C100.862 31.5156 87.5024 27.7457 85.1495 17.0053C83.4253 9.13322 88.8596 0.857998 96.949 0.0707894L96.9517 0.0735133ZM97.8583 6.61089C88.3496 7.43895 90.6108 23.6653 100.217 20.8841C108.007 18.6315 106.053 5.8945 97.8583 6.61089Z" fill="#00579C"/>
    <path d="M32.4737 0.0736303C44.6699 -1.17937 52.2251 13.5842 44.2787 22.9708C37.3738 31.1289 24.4113 28.4812 21.0708 18.3047C18.3995 10.1684 23.9229 0.953452 32.4737 0.0736303ZM33.3777 6.611C27.8273 7.15034 25.4177 14.3578 28.8068 18.5989C33.1861 24.0794 41.1919 20.0971 40.7898 13.4289C40.5551 9.54192 37.3549 6.22421 33.3777 6.611Z" fill="#00579C"/>
    <path d="M7.5093 20.4267V27.7458H0V0.16626H11.9776C12.0721 0.16626 13.5453 0.73828 13.772 0.839064C18.413 2.89834 20.3072 7.8286 19.3601 12.7153C18.2511 18.4273 12.8708 20.8434 7.512 20.4267H7.5093ZM7.5093 13.369C9.8622 13.527 13.1271 12.8079 12.8168 9.77347C12.7116 8.75201 11.4623 7.22662 10.4207 7.22662H7.5066V13.369H7.5093Z" fill="#00579C"/>
    <path d="M67.3301 27.7458H60.7274V9.51194C60.7274 9.42478 60.3577 8.67298 60.266 8.53951C59.3702 7.23748 57.1522 7.0686 56.0675 8.20447C55.8381 8.44689 55.2904 9.47653 55.2904 9.77071V27.743H48.6877L48.6823 10.419C49.3865 -3.06705 67.2464 -1.83857 67.3382 10.942L67.3328 27.743L67.3301 27.7458Z" fill="#00579C"/>
    <path d="M60.8542 49.9673H56.1943V37.0914C56.1943 37.0532 55.8786 36.5302 55.8057 36.4376C55.0691 35.487 53.612 35.378 52.7756 36.2551C52.7 36.3341 52.3088 36.9198 52.3088 36.9606V49.9673H47.5193V37.0914C47.5193 36.8272 46.8474 36.0645 46.6073 35.9201C45.6143 35.3154 44.0844 35.8166 43.7201 36.917C43.4179 37.8268 43.6446 38.3553 43.6419 39.1779C43.6311 42.7734 43.7336 46.3908 43.507 49.9673H38.8471C38.9982 46.1102 38.6474 42.1034 38.8417 38.2627C38.9685 35.7512 39.384 34.0924 41.37 32.4471C43.8362 30.4042 47.3736 30.5649 49.7886 32.586C52.8862 29.9139 57.7026 30.7256 59.8261 34.2122C60.293 34.9776 60.8596 36.6038 60.8596 37.4836V49.9673H60.8542Z" fill="#00579C"/>
    <path d="M85.4571 0.950684V7.48806H80.4707L80.2764 7.68418V27.7457H73.4147V7.68418L73.2204 7.48806H67.9777V0.950684H85.4571Z" fill="#00579C"/>
    <path d="M0 49.9674V31.0144C3.35396 31.1234 6.82124 30.5568 9.96473 32.0005C15.9684 34.7543 17.5199 42.3213 13.0138 47.2244C11.9183 48.4147 9.32254 49.9674 7.70358 49.9674H0ZM5.04847 35.8521V44.5441C6.11969 45.0453 7.6712 44.6612 8.63988 43.9857C12.6684 41.1773 9.73807 34.768 5.04847 35.8521Z" fill="#00579C"/>
    <path d="M81.5715 49.9674V31.0144C84.9228 31.1288 88.5034 30.5514 91.6307 32.0359C97.235 34.6944 98.8864 41.3625 95.2221 46.4263C94.0699 48.017 91.2745 49.9674 89.2778 49.9674H81.5742H81.5715ZM86.62 35.9147V44.5413C87.3971 44.969 88.7436 44.7293 89.5584 44.3697C92.5508 43.0514 92.9313 38.6931 90.3652 36.7101C89.4154 35.9747 87.7263 35.3536 86.6227 35.9147H86.62Z" fill="#00579C"/>
    <path d="M77.6429 47.4369C74.6613 50.2643 70.0391 50.7927 66.4666 48.8124C59.6265 45.0208 60.0825 34.5773 67.2059 31.344C77.1653 26.8224 85.3869 40.0905 77.6429 47.4369ZM70.4061 35.1003C64.6129 35.9011 65.2065 45.7453 71.4044 45.3912C77.6024 45.0371 77.1895 34.1606 70.4061 35.1003Z" fill="#00579C"/>
    <path d="M30.2989 49.9673H25.5095C25.5527 49.8393 25.38 49.684 25.38 49.6405V44.2172H21.2354V49.9673H16.3165V37.0914C16.3165 32.4771 22.0368 29.9139 25.9871 31.5129C29.4166 32.8993 30.2827 35.7213 30.4365 39.1779C30.5661 42.1252 30.6632 46.3582 30.4365 49.2537C30.4177 49.5043 30.361 49.7276 30.3016 49.9673H30.2989ZM25.3773 39.9025V36.9607C25.3773 36.9171 24.9887 36.3342 24.9105 36.2552C24.1091 35.4162 22.6169 35.4108 21.8156 36.2416C21.6213 36.4431 21.2327 37.2521 21.2327 37.4837V39.9025H25.3773Z" fill="#00579C"/>
    <path d="M112 49.9673H107.081V44.2172H102.936V49.9673H98.0175V36.5685C98.0175 33.8963 101.582 31.2596 104.04 31.0144C107.65 30.6549 112.003 33.436 112.003 37.3529V49.9673H112ZM107.078 39.9025V37.2222C107.078 36.4377 105.807 35.6233 105.074 35.6151C104.294 35.6069 102.936 36.3614 102.936 37.2222V39.9025H107.081H107.078Z" fill="#00579C"/>
  </g>
  <defs>
    <clipPath id="clip0_11683_44">
      <rect width="112" height="50" fill="white"/>
    </clipPath>
  </defs>
</svg>
