<svg xmlns="http://www.w3.org/2000/svg" width="20" height="20" viewBox="0 0 20 20" fill="none">
  <path fill-rule="evenodd" clip-rule="evenodd" d="M16.3968 8.15234C16.9474 8.52022 17.3689 8.99894 17.7046 9.55312C17.7645 9.65217 17.8021 9.78305 17.7986 9.89742C17.7821 10.4563 17.9653 10.9409 18.2963 11.3819C18.3668 11.4751 18.4267 11.5965 18.4372 11.7097C18.6121 13.5008 17.7575 15.4298 16.1115 16.4214C16.0869 16.4356 16.0575 16.4415 16.0798 16.4332C15.9965 15.9097 15.9096 15.3873 15.8333 14.8638C15.8251 14.8049 15.8591 14.7318 15.892 14.6752C16.5459 13.5208 16.6433 12.3311 16.1362 11.0942C15.8591 10.4186 15.8462 9.72645 16.081 9.03314C16.1796 8.7419 16.2888 8.45302 16.3968 8.15234Z" fill="black"/>
  <path fill-rule="evenodd" clip-rule="evenodd" d="M7.4358 3.42763C5.11948 3.47125 3.50874 5.16681 3.42539 7.14888C3.10254 7.14888 2.77851 7.12059 2.46153 7.15478C1.93557 7.21256 1.41197 7.29745 0.893054 7.40239C0.728693 7.43541 0.647686 7.41536 0.59016 7.26915C0.448105 6.91071 0.31192 6.55108 0.162821 6.19735C0.0665525 5.9686 0.146385 5.80942 0.304876 5.64199C1.11846 4.7836 2.11754 4.29191 3.27864 4.14098C4.40216 3.99478 5.29323 3.46889 5.98825 2.57867C6.18196 2.33106 6.41089 2.11174 6.64452 1.85706C7.05425 2.32752 7.28553 2.84633 7.4358 3.42645V3.42763Z" fill="black"/>
  <path fill-rule="evenodd" clip-rule="evenodd" d="M0.843355 7.71846C1.56302 7.49207 2.2369 7.39657 2.92604 7.45552C3.40621 7.49679 3.39447 7.50976 3.49074 7.96254C3.55296 8.25495 3.63162 8.54855 3.73963 8.82682C4.04487 9.61446 4.03313 10.388 3.73611 11.1768C3.6281 11.4645 3.46491 11.6343 3.19254 11.7699C2.48462 12.1236 1.92109 12.6566 1.47028 13.3157C1.19791 13.0763 0.936101 12.8464 0.630859 12.5787C0.886793 12.2533 1.13099 11.9184 1.39983 11.6048C1.67455 11.2853 1.91875 10.9527 2.02088 10.5353C2.22047 9.71233 1.98214 9.0143 1.42331 8.40352C1.23195 8.19482 1.05702 7.96961 0.845703 7.71846H0.843355Z" fill="black"/>
  <path fill-rule="evenodd" clip-rule="evenodd" d="M0.0336291 5.51002C-0.0861197 4.3144 0.183902 3.25792 0.79556 2.28634C0.835476 2.22267 0.962269 2.16725 1.03623 2.17904C1.42248 2.24271 1.80521 2.32643 2.18793 2.41015C3.58852 2.71789 4.67331 2.22739 5.36715 0.9681C5.37771 0.948055 5.39532 0.931547 5.44815 0.863159C5.79096 1.10841 6.13612 1.35603 6.48715 1.60718C6.00933 2.11537 5.58551 2.60942 5.11591 3.05276C4.6193 3.52086 3.98886 3.75197 3.32085 3.83687C2.04001 3.9984 0.954051 4.53372 0.0336291 5.50884V5.51002Z" fill="black"/>
  <path fill-rule="evenodd" clip-rule="evenodd" d="M16.1496 3.29683C17.164 4.35802 18.3826 4.97941 19.8841 5.02422C19.8912 5.4876 19.829 5.92977 19.6799 6.35071C19.357 7.26452 19.5296 7.16311 18.5106 7.21617C17.8202 7.25155 17.1651 7.07114 16.5758 6.7009C16.4725 6.63605 16.3715 6.50989 16.341 6.39316C16.2048 5.87789 15.9841 5.4086 15.6695 4.98059C15.6248 4.91928 15.5814 4.81787 15.6002 4.7542C15.7446 4.26133 15.9043 3.77436 16.0592 3.28503C16.0898 3.28975 16.1191 3.29329 16.1496 3.298V3.29683Z" fill="black"/>
  <path fill-rule="evenodd" clip-rule="evenodd" d="M2.47266 15.7399C3.18997 15.8024 3.85329 15.7034 4.49899 15.4687C4.553 15.4487 4.65044 15.4746 4.69505 15.5147C5.3161 16.0724 6.03812 16.4026 6.8834 16.5158C6.72374 16.9909 6.47602 17.4025 6.16843 17.7774C5.77162 18.2597 5.2938 18.6452 4.73849 18.9341C4.62813 18.9907 4.5483 18.9895 4.44851 18.9164C3.43652 18.1759 2.78729 17.1949 2.49261 15.9746C2.47735 15.9097 2.48087 15.839 2.47266 15.7399Z" fill="black"/>
  <path fill-rule="evenodd" clip-rule="evenodd" d="M18.766 11.9267C19.1499 12.3877 19.4034 12.89 19.6195 13.4195C19.8296 13.9324 19.8073 14.4017 19.5584 14.9051C19.1581 15.7116 18.6591 16.438 18.0099 17.057C17.6319 17.4178 17.2973 17.8057 17.093 18.2951C17.073 18.3422 17.0179 18.4059 16.9744 18.4083C16.4907 18.4448 16.0106 18.4248 15.5703 18.3151C15.7053 17.8305 15.8309 17.3636 15.9683 16.9002C15.9847 16.8448 16.054 16.7952 16.1092 16.7622C17.6213 15.8602 18.4678 14.516 18.7202 12.7827C18.7601 12.5116 18.7495 12.2345 18.7648 11.9255L18.766 11.9267Z" fill="black"/>
  <path fill-rule="evenodd" clip-rule="evenodd" d="M10.0064 17.8446C9.77398 17.8847 9.53566 17.9059 9.30908 17.9696C8.91461 18.0804 8.59763 18.3269 8.30647 18.6098C7.85331 19.0496 7.34261 19.4057 6.74622 19.618C6.58303 19.6758 6.38815 19.6899 6.21557 19.6628C5.75888 19.5932 5.33154 19.4246 4.95703 19.2183C5.37028 18.8751 5.79645 18.558 6.178 18.1936C6.60064 17.7915 6.90001 17.2904 7.10781 16.7433C7.16769 16.5853 7.25809 16.5488 7.40718 16.5228C7.85096 16.4438 8.29121 16.3412 8.73381 16.2505C8.79017 16.2387 8.85826 16.221 8.90757 16.241C9.45465 16.4533 9.99118 17.2421 10.0053 17.8434L10.0064 17.8446Z" fill="black"/>
  <path fill-rule="evenodd" clip-rule="evenodd" d="M17.2627 0.597778C18.4485 1.05056 19.8362 2.86756 19.8714 4.72583C18.4227 4.6881 17.2627 4.06081 16.2754 3.00551C16.8154 2.2839 17.2134 1.51276 17.2627 0.597778Z" fill="black"/>
  <path fill-rule="evenodd" clip-rule="evenodd" d="M15.5791 15.0843C15.7293 15.6125 15.7458 16.0889 15.7082 16.5664C15.7035 16.6242 15.6037 16.702 15.5344 16.7221C15.0273 16.8683 14.5224 17.044 14.0035 17.1312C13.0303 17.2963 12.2097 17.7125 11.551 18.4507C11.5358 18.4672 11.5158 18.479 11.5475 18.4542C11.1472 18.2667 10.7762 18.0946 10.4064 17.9153C10.3665 17.8965 10.3207 17.8434 10.316 17.801C10.2291 17.0782 9.85225 16.537 9.27698 16.1196C9.27229 16.116 9.27111 16.1054 9.26172 16.0795C9.77476 15.9344 10.2796 15.9627 10.7809 16.116C11.1343 16.2233 11.4771 16.3766 11.8363 16.4474C13.231 16.7197 14.4191 16.2988 15.4147 15.2977C15.4675 15.2447 15.5074 15.1798 15.5814 15.0831L15.5791 15.0843Z" fill="black"/>
  <path fill-rule="evenodd" clip-rule="evenodd" d="M14.2853 3.78018C13.8415 3.67642 13.4095 3.55025 12.9669 3.47833C12.3364 3.37575 11.7236 3.49955 11.1401 3.74599C10.9182 3.84031 10.7328 3.82499 10.532 3.71533C9.89099 3.36867 9.55522 2.8251 9.47656 2.10703C9.67027 2.10703 9.85224 2.11175 10.0342 2.10703C10.6283 2.08934 11.1108 1.82522 11.5322 1.42315C11.8175 1.15077 11.8199 1.14842 12.165 1.34651C13.1571 1.91601 13.8533 2.74375 14.2841 3.78018H14.2853Z" fill="black"/>
  <path fill-rule="evenodd" clip-rule="evenodd" d="M14.6469 0.0247387C14.7314 0.409127 14.7936 0.766397 14.8899 1.11541C15.0683 1.76392 15.3806 2.34758 15.795 2.87464C15.8843 2.98901 15.9019 3.07155 15.835 3.21894C15.6377 3.65167 15.4769 4.09973 15.2984 4.54897C15.0202 4.299 14.6985 4.0903 14.533 3.65521C14.0916 2.49615 13.2885 1.62479 12.1967 1.03052C12.1638 1.01283 12.1333 0.992785 12.0723 0.956233C12.853 0.380829 13.7006 0.0789776 14.6469 0.0235596V0.0247387Z" fill="black"/>
  <path fill-rule="evenodd" clip-rule="evenodd" d="M4.23263 19.2147C3.75129 19.2996 3.27112 19.388 2.7886 19.4658C2.72873 19.4753 2.65359 19.4375 2.59607 19.4045C2.42818 19.3102 2.26382 19.21 2.10181 19.105C1.73787 18.868 1.47489 18.598 1.44436 18.1016C1.41971 17.7042 1.21778 17.321 1.11916 16.9248C0.990023 16.4049 0.950107 15.8754 1.04285 15.3378C1.41736 15.4628 1.77309 15.5818 2.13233 15.7009C2.52797 17.3399 2.798 17.7821 4.22441 19.1262C4.22676 19.1545 4.22911 19.184 4.23146 19.2123L4.23263 19.2147Z" fill="black"/>
  <path fill-rule="evenodd" clip-rule="evenodd" d="M3.49022 11.9337C3.32234 13.1682 3.58649 14.2435 4.37542 15.1927C3.76259 15.4203 3.14976 15.5158 2.51462 15.4321C2.46884 15.4262 2.40426 15.3531 2.39487 15.3024C2.28569 14.7175 2.07085 14.1787 1.73743 13.6858C1.70221 13.6328 1.69516 13.5184 1.72921 13.4677C2.16477 12.8003 2.75177 12.3051 3.49022 11.9325V11.9337Z" fill="black"/>
  <path fill-rule="evenodd" clip-rule="evenodd" d="M10.3129 3.963C9.84211 4.03729 9.41125 3.96536 8.98509 3.83094C8.61293 3.71303 8.23724 3.60691 7.86391 3.48782C7.80873 3.47014 7.73242 3.42179 7.72185 3.37463C7.57745 2.7556 7.29921 2.20378 6.87305 1.65549C7.22877 1.4633 7.56219 1.27818 7.90148 1.10721C7.94022 1.08716 8.0271 1.12961 8.07523 1.16498C8.42039 1.42085 8.7632 1.67907 9.10249 1.94319C9.14358 1.97503 9.18115 2.03988 9.18467 2.09058C9.2328 2.87469 9.60496 3.46306 10.2471 3.89344C10.2648 3.90523 10.2765 3.92409 10.3117 3.96182L10.3129 3.963Z" fill="black"/>
  <path fill-rule="evenodd" clip-rule="evenodd" d="M1.12109 1.85597C1.84663 0.616725 3.77083 0.196964 5.12798 0.782979C4.85092 1.43503 4.3637 1.84889 3.71213 2.08707C3.20613 2.27219 2.69896 2.23446 2.18944 2.10712C1.83959 2.01986 1.48738 1.94204 1.12109 1.85597Z" fill="black"/>
  <path fill-rule="evenodd" clip-rule="evenodd" d="M16.0708 2.76618C15.4356 1.95496 15.0541 1.07063 14.9648 0C15.3053 0.0341941 15.6246 0.044806 15.9357 0.103761C16.2281 0.160358 16.5087 0.274732 16.7986 0.349015C16.9524 0.389105 16.9818 0.474001 16.9689 0.617852C16.8961 1.41964 16.5826 2.11885 16.0708 2.76618Z" fill="black"/>
  <path fill-rule="evenodd" clip-rule="evenodd" d="M15.0921 18.5261C15.0604 18.9966 15.0299 19.4623 14.997 19.9599C14.0472 19.9906 13.1644 19.73 12.3438 19.2159C12.8897 18.4341 14.1083 18.1382 15.0933 18.5249L15.0921 18.5261Z" fill="black"/>
  <path fill-rule="evenodd" clip-rule="evenodd" d="M17.8559 9.24067C17.526 8.71597 17.0599 8.27026 16.5434 7.87408C16.4952 7.83753 16.4436 7.76561 16.4436 7.70901C16.4412 7.48026 16.4588 7.25152 16.4671 7.05225C16.905 7.18666 17.3335 7.36589 17.7796 7.44489C18.221 7.52271 18.6801 7.50149 19.1591 7.52507C18.7341 8.08396 18.302 8.65465 17.8559 9.24067Z" fill="black"/>
  <path fill-rule="evenodd" clip-rule="evenodd" d="M15.6748 17.0676C15.5363 17.4308 15.3989 17.8034 15.2451 18.1701C15.2334 18.1996 15.1101 18.2043 15.0479 18.1866C14.4303 18.0215 13.8175 17.992 13.2106 18.229C12.7738 18.4012 12.3981 18.6665 12.0753 19.032C11.9497 18.9283 11.8323 18.8327 11.7031 18.7266C12.2608 18.0616 12.9441 17.6513 13.7717 17.478C14.3869 17.3483 15.0009 17.2127 15.6748 17.0676Z" fill="black"/>
  <path fill-rule="evenodd" clip-rule="evenodd" d="M17.3574 18.3104C17.5852 18.0144 17.7801 17.6842 18.0466 17.4296C18.7827 16.7304 19.399 15.9498 19.8205 15.0206C19.8287 15.0018 19.8463 14.9876 19.8874 14.9381C19.8956 15.6126 19.77 16.2233 19.5423 16.8152C19.4976 16.9308 19.4342 17.0381 19.3967 17.156C19.0844 18.1429 18.2262 18.2125 17.4232 18.3728C17.4009 18.3516 17.3797 18.3316 17.3574 18.3104Z" fill="black"/>
  <path fill-rule="evenodd" clip-rule="evenodd" d="M15.2949 19.9151C15.3219 19.4824 15.3489 19.0485 15.3759 18.6193C15.9242 18.6688 16.4173 18.7136 16.9186 18.7596C16.8986 19.0107 16.881 19.2701 16.8517 19.5284C16.847 19.5708 16.8 19.6333 16.7613 19.6439C16.3057 19.7677 15.8479 19.8821 15.3912 20C15.3595 19.9717 15.3278 19.9434 15.2961 19.9163L15.2949 19.9151Z" fill="black"/>
  <path fill-rule="evenodd" clip-rule="evenodd" d="M0.04161 14.6552C0.277586 14.8226 0.580479 14.9322 0.693184 15.1445C0.802367 15.3508 0.72136 15.6609 0.714316 15.925C0.700228 16.4898 0.810585 17.031 1.00899 17.5569C1.08413 17.7574 1.13579 17.9673 1.20623 18.2043C0.487733 17.6548 -0.172059 15.6208 0.040436 14.6552H0.04161Z" fill="black"/>
  <path fill-rule="evenodd" clip-rule="evenodd" d="M5.55273 0.55775C5.63335 0.212665 5.85172 0.0861078 6.20783 0.178078C6.73144 0.313675 7.2163 0.534168 7.67064 0.851348C7.36305 1.04354 7.06955 1.2322 6.77018 1.40907C6.73613 1.42911 6.65513 1.40553 6.61639 1.37605C6.26888 1.11311 5.92607 0.845452 5.55391 0.556571L5.55273 0.55775Z" fill="black"/>
  <path fill-rule="evenodd" clip-rule="evenodd" d="M0.778325 14.8461C0.563482 14.6705 0.341594 14.4959 0.130273 14.3108C0.0927046 14.279 0.0680505 14.1941 0.0821386 14.1469C0.200713 13.726 0.329854 13.3086 0.476605 12.824C0.760715 13.0846 0.988473 13.2885 1.20684 13.502C1.24558 13.5397 1.27023 13.6328 1.25262 13.6812C1.10705 14.0597 0.948556 14.4346 0.779499 14.8473L0.778325 14.8461Z" fill="black"/>
  <path fill-rule="evenodd" clip-rule="evenodd" d="M2.11325 15.4039C1.74344 15.2683 1.41824 15.1504 1.05664 15.0183C1.19517 14.6198 1.32079 14.259 1.46754 13.8357C1.83031 14.3238 2.00289 14.8155 2.11325 15.4039Z" fill="black"/>
  <path fill-rule="evenodd" clip-rule="evenodd" d="M3.3918 19.7312C3.78157 19.6026 4.14903 19.48 4.51767 19.3644C4.55994 19.3515 4.61981 19.3727 4.66442 19.3927C5.02484 19.5578 5.38409 19.7276 5.72455 19.8868C5.43927 20.0259 4.13964 20.0094 3.39062 19.7312H3.3918Z" fill="black"/>
  <path fill-rule="evenodd" clip-rule="evenodd" d="M17.1328 19.4764C17.1727 19.217 17.1997 19.0048 17.2432 18.7961C17.2526 18.7524 17.3124 18.6982 17.3582 18.6876C17.7456 18.5992 18.1354 18.519 18.5404 18.4341C18.1519 18.8692 17.7093 19.2123 17.1328 19.4764Z" fill="black"/>
  <path fill-rule="evenodd" clip-rule="evenodd" d="M3.64062 0.176904C4.18536 0.0200832 4.77589 -0.0129317 5.40281 0.0377698C5.34881 0.196949 5.30185 0.338442 5.26897 0.437487C4.70193 0.346696 4.16071 0.260621 3.64062 0.176904Z" fill="black"/>
</svg>
