<svg xmlns="http://www.w3.org/2000/svg" width="32" height="22" viewBox="0 0 32 22" fill="none">
  <path fill-rule="evenodd" clip-rule="evenodd" d="M2.66667 0H29.3333C30.8061 0 32 1.19391 32 2.66667V18.6667C32 20.1394 30.8061 21.3333 29.3333 21.3333H2.66667C1.19391 21.3333 0 20.1394 0 18.6667V2.66667C0 1.19391 1.19391 0 2.66667 0ZM30.6667 2.66667C30.6667 1.93029 30.0697 1.33333 29.3333 1.33333H2.66667C1.93029 1.33333 1.33333 1.93029 1.33333 2.66667V18.6667C1.33333 19.403 1.93029 20 2.66667 20H29.3333C30.0697 20 30.6667 19.403 30.6667 18.6667V2.66667Z" fill="#1B1B1B"/>
  <g opacity="0.01">
    <rect x="3.09998" y="2.1333" width="25.8" height="17.0667" fill="#1B1B1B"/>
  </g>
  <path d="M14.8133 16.9732C11.8376 18.4844 8.21057 17.7101 6.11145 15.1155C4.01233 12.5209 4.01233 8.81216 6.11145 6.2176C8.21057 3.62304 11.8376 2.84872 14.8133 4.35988C12.9905 5.94734 11.949 8.24949 11.9599 10.6665C11.9647 13.0802 13.0035 15.3762 14.8133 16.9732Z" fill="#1B1B1B"/>
  <path fill-rule="evenodd" clip-rule="evenodd" d="M26.7599 14.8201V15.0468H26.7199V14.8201H26.6266V14.7734H26.8599V14.8201H26.7599ZM27.2133 14.7734V15.0468H27.1666V14.8401L27.0933 15.0201H27.0399L26.9599 14.8401V15.0468H26.9066V14.7734H26.9799L27.0599 14.9668L27.1466 14.7734H27.2133Z" fill="#1B1B1B"/>
  <path d="M27.44 10.6668C27.4398 13.1211 26.1661 15.3994 24.0757 16.6853C21.9852 17.9711 19.3772 18.0802 17.1867 16.9734C20.5262 14.0203 20.9878 8.97714 18.24 5.46678C17.9226 5.06291 17.5653 4.69214 17.1733 4.36012C19.3647 3.24291 21.9795 3.34675 24.0754 4.63419C26.1712 5.92164 27.4459 8.2071 27.44 10.6668Z" fill="#1B1B1B"/>
  <path d="M15.9999 16.2264C14.2923 14.8868 13.2949 12.8368 13.2949 10.6664C13.2949 8.49606 14.2923 6.44605 15.9999 5.10645C17.7052 6.44752 18.7008 8.49699 18.7008 10.6664C18.7008 12.8359 17.7052 14.8854 15.9999 16.2264Z" fill="#1B1B1B"/>
</svg>