<svg xmlns="http://www.w3.org/2000/svg" width="32" height="22" viewBox="0 0 32 22" fill="none">
  <path fill-rule="evenodd" clip-rule="evenodd" d="M2.66667 0H29.3333C30.8061 0 32 1.19391 32 2.66667V18.6667C32 20.1394 30.8061 21.3333 29.3333 21.3333H2.66667C1.19391 21.3333 0 20.1394 0 18.6667V2.66667C0 1.19391 1.19391 0 2.66667 0ZM30.6667 2.66667C30.6667 1.93029 30.0697 1.33333 29.3333 1.33333H2.66667C1.93029 1.33333 1.33333 1.93029 1.33333 2.66667V18.6667C1.33333 19.403 1.93029 20 2.66667 20H29.3333C30.0697 20 30.6667 19.403 30.6667 18.6667V2.66667Z" fill="#1B1B1B"/>
  <path d="M21.5599 10.3332C21.0799 12.7866 19.4399 13.6266 17.3599 13.6266H17.0266C16.772 13.6273 16.5563 13.8145 16.5199 14.0666V14.2132L16.1199 16.7866V16.8932C16.0802 17.1488 15.8586 17.3363 15.5999 17.3332H13.3999C13.3077 17.3372 13.2187 17.2984 13.1588 17.228C13.0989 17.1577 13.0747 17.0637 13.0933 16.9732L13.2666 15.8532L14.2266 9.76657L14.5799 10.2666L13.5599 16.8799H15.5599C15.5599 16.8799 15.5999 16.8799 15.6133 16.8799C15.6266 16.8799 15.6133 16.8799 15.6133 16.8266V16.7332L16.0266 14.1466V14.0132C16.0669 13.7852 16.1847 13.578 16.3599 13.4266C16.5347 13.2763 16.7562 13.1915 16.9866 13.1866H17.3333C17.7818 13.1881 18.2291 13.1389 18.6666 13.0399C19.0573 12.9412 19.4274 12.7741 19.7599 12.5466C20.083 12.31 20.3551 12.0107 20.5599 11.6666C20.81 11.2286 20.9815 10.7503 21.0666 10.2532C21.159 9.84668 21.1816 9.42736 21.1333 9.01324C21.0848 8.69879 20.9511 8.40365 20.7466 8.1599C20.6498 8.04551 20.5321 7.95051 20.3999 7.8799C20.3999 7.7999 20.4399 7.7199 20.4533 7.6399L20.4933 7.3999C20.7154 7.51313 20.9144 7.66688 21.0799 7.85324C21.6229 8.55757 21.8009 9.47717 21.5599 10.3332Z" fill="#1B1B1B"/>
  <path d="M19.96 7.16006L19.7067 7.09339L19.4267 7.04006C19.0736 6.98727 18.717 6.96274 18.36 6.96673H15.1067C15.0307 6.96464 14.9553 6.98063 14.8867 7.01339C14.7321 7.08577 14.6243 7.23111 14.6 7.40006L13.9333 11.7801V11.9067C13.9793 11.6184 14.2281 11.4064 14.52 11.4067H15.7333C18.12 11.4067 19.9933 10.4334 20.54 7.63339L20.58 7.38673C20.4364 7.31252 20.287 7.25009 20.1333 7.20006L19.96 7.16006Z" fill="#1B1B1B"/>
  <path d="M20.5333 7.38667C20.3966 7.31629 20.2538 7.25828 20.1067 7.21333C20.1755 6.86111 20.1755 6.49889 20.1067 6.14667C20.0219 5.83767 19.8562 5.55689 19.6267 5.33333C19.1333 4.76 18.1867 4.48 16.8133 4.48H12.6667C12.636 4.47238 12.604 4.47238 12.5733 4.48C12.5468 4.50366 12.5322 4.53784 12.5333 4.57333L10.8133 15.4H13.3333L13.2667 15.8533H10.7067C10.6027 15.8529 10.5043 15.8067 10.4375 15.7271C10.3707 15.6474 10.3423 15.5424 10.36 15.44L12.08 4.50667C12.1256 4.21717 12.3736 4.00295 12.6667 4H16.8133C18.24 4 19.3333 4.30667 20 5C20.5536 5.66234 20.7523 6.55168 20.5333 7.38667Z" fill="#1B1B1B"/>
</svg>