<svg width="15" height="15" viewBox="0 0 15 15" fill="none" xmlns="http://www.w3.org/2000/svg">
<g clip-path="url(#clip0_337_1145)">
<path d="M14.9999 3.01881C14.9275 3.1208 14.8684 3.236 14.7815 3.32331C11.301 6.80641 7.81755 10.2869 4.33596 13.7697C4.21814 13.8874 4.08673 13.963 3.92669 14.0089C2.84422 14.3178 1.76359 14.6318 0.682592 14.9451C0.637443 14.9583 0.594864 14.9811 0.551183 14.9994H0.316631C-0.0100549 14.7966 -0.0563048 14.6759 0.0527127 14.2983C0.366184 13.2128 0.676719 12.1261 0.998265 11.0427C1.03644 10.9136 1.11316 10.7804 1.20822 10.6854C4.70119 7.18686 8.19893 3.69239 11.6959 0.19718C11.9598 -0.0666018 12.1874 -0.0658681 12.4521 0.198281C13.2361 0.98119 14.0205 1.76373 14.8016 2.54921C14.8787 2.62662 14.9345 2.72494 15.0002 2.81372V3.01881H14.9999ZM4.54666 12.2857C7.0324 9.8012 9.51374 7.32113 11.9892 4.84694C11.3788 4.23683 10.761 3.61938 10.162 3.02064C7.68394 5.49741 5.20003 7.98004 2.72052 10.4583C3.32287 11.0607 3.9366 11.6748 4.54702 12.2853L4.54666 12.2857ZM12.6246 4.18546C13.0471 3.76393 13.4773 3.33505 13.8968 2.91608C13.296 2.31551 12.683 1.70283 12.0788 1.09932C11.6574 1.52049 11.2279 1.94937 10.8076 2.36944C11.4126 2.97405 12.0292 3.5904 12.6246 4.18546ZM3.89953 12.9548C3.27809 12.3337 2.65959 11.7155 2.01833 11.075C1.94675 11.1928 1.83737 11.3127 1.79479 11.4532C1.55914 12.2266 1.34 13.0047 1.11573 13.7814C1.10471 13.8199 1.10068 13.861 1.09113 13.9131C1.89463 13.6805 2.67904 13.4472 3.46786 13.2296C3.65837 13.1772 3.80262 13.0847 3.89916 12.9552L3.89953 12.9548Z" fill="#CCCCCC"/>
</g>
<defs>
<clipPath id="clip0_337_1145">
<rect width="15" height="15" fill="white"/>
</clipPath>
</defs>
</svg>
