<svg xmlns="http://www.w3.org/2000/svg" width="20" height="20" viewBox="0 0 20 20" fill="none">
  <g clip-path="url(#clip0_3_2250)">
    <path d="M4.27416 0C4.91487 0.124974 5.37675 0.526751 5.81426 0.973972C6.58923 1.76616 7.39116 2.53305 8.14695 3.34332C8.85713 4.10452 8.8535 5.1322 8.15421 5.9058C7.66953 6.44185 7.14337 6.94071 6.62707 7.44784C6.52236 7.55061 6.49851 7.62188 6.56487 7.76028C7.08117 8.83702 7.82867 9.74592 8.63682 10.6099C9.46363 11.494 10.3723 12.2857 11.3972 12.9369C11.6771 13.1151 11.9783 13.2597 12.2655 13.427C12.3629 13.4838 12.4215 13.4673 12.4987 13.3888C12.9336 12.9477 13.3623 12.499 13.8185 12.0807C14.0647 11.855 14.3395 11.6314 14.6417 11.4997C15.4203 11.1604 16.1336 11.3494 16.7292 11.9247C17.5923 12.7582 18.4289 13.6191 19.2863 14.4583C20.1743 15.3269 20.2495 16.478 19.4247 17.3637C18.8167 18.0169 18.1972 18.6635 17.5353 19.2605C16.8266 19.8993 15.9423 20.0573 15.0097 19.983C13.5458 19.8657 12.2058 19.3503 10.9073 18.7053C8.98154 17.7489 7.23305 16.5358 5.69503 15.0387C3.38359 12.7876 1.52158 10.2324 0.45891 7.15451C0.157733 6.28176 -0.0283641 5.38732 0.00377524 4.45776C0.0328043 3.61909 0.308581 2.8775 0.900048 2.27122C1.43242 1.72485 1.97309 1.18622 2.51894 0.653274C2.86625 0.313985 3.28614 0.0986366 3.7646 0.000516422H4.27416V0ZM15.3555 18.993C15.9682 19.0074 16.5322 18.8525 16.9759 18.4244C17.5622 17.8589 18.1319 17.2748 18.6845 16.6768C19.0925 16.2353 19.0904 15.7411 18.6736 15.3145C17.7903 14.4092 16.8914 13.5184 15.9858 12.6348C15.6406 12.2976 15.2026 12.2878 14.8065 12.5682C14.7008 12.643 14.6054 12.7345 14.5131 12.8259C14.0264 13.3072 13.5438 13.7931 13.056 14.2739C12.731 14.5941 12.3878 14.6483 11.985 14.4428C11.6947 14.2946 11.4024 14.1479 11.124 13.9796C9.90788 13.2467 8.83898 12.3332 7.8748 11.2983C6.96039 10.3176 6.12632 9.27907 5.57114 8.04379C5.3332 7.51446 5.38919 7.22733 5.81063 6.82297C6.28598 6.36697 6.75926 5.90839 7.22165 5.43999C7.78409 4.87038 7.78564 4.40663 7.22269 3.83702C6.41557 3.02055 5.60069 2.21287 4.78217 1.40777C4.6588 1.28641 4.51365 1.17228 4.3571 1.10153C3.89212 0.891861 3.52044 1.0974 3.19438 1.41603C2.70503 1.89475 2.20739 2.36728 1.74448 2.87079C1.51951 3.11506 1.31682 3.40322 1.18878 3.70688C0.915599 4.35447 0.990764 5.03667 1.12606 5.70492C1.38421 6.97841 1.87719 8.16928 2.51635 9.2925C4.80187 13.3072 8.00129 16.3432 12.2613 18.222C13.2462 18.6563 14.2695 18.9558 15.3555 18.9935V18.993Z" fill="#CCCCCC"/>
  </g>
  <defs>
    <clipPath id="clip0_3_2250">
      <rect width="20" height="20" fill="white"/>
    </clipPath>
  </defs>
</svg>