<svg xmlns="http://www.w3.org/2000/svg" width="20" height="20" viewBox="0 0 20 20" fill="none">
  <g clip-path="url(#clip0_4233_3029)">
    <path d="M4.27398 0C4.91469 0.124974 5.37656 0.526751 5.81407 0.973972C6.58905 1.76616 7.39098 2.53305 8.14677 3.34332C8.85694 4.10452 8.85332 5.1322 8.15403 5.9058C7.66934 6.44185 7.14319 6.94071 6.62689 7.44784C6.52218 7.55061 6.49833 7.62188 6.56468 7.76028C7.08099 8.83702 7.82849 9.74592 8.63663 10.6099C9.46344 11.494 10.3722 12.2857 11.397 12.9369C11.6769 13.1151 11.9781 13.2597 12.2653 13.427C12.3627 13.4838 12.4213 13.4673 12.4985 13.3888C12.9335 12.9477 13.3622 12.499 13.8183 12.0807C14.0646 11.855 14.3393 11.6314 14.6415 11.4997C15.4201 11.1604 16.1334 11.3494 16.729 11.9247C17.5921 12.7582 18.4288 13.6191 19.2862 14.4583C20.1741 15.3269 20.2493 16.478 19.4246 17.3637C18.8165 18.0169 18.1971 18.6635 17.5351 19.2605C16.8265 19.8993 15.9421 20.0573 15.0096 19.983C13.5457 19.8657 12.2057 19.3503 10.9071 18.7053C8.98135 17.7489 7.23287 16.5358 5.69485 15.0387C3.38341 12.7876 1.5214 10.2324 0.458727 7.15451C0.15755 6.28176 -0.0285472 5.38732 0.00359213 4.45776C0.0326212 3.61909 0.308398 2.8775 0.899865 2.27122C1.43224 1.72485 1.9729 1.18622 2.51875 0.653274C2.86607 0.313985 3.28595 0.0986366 3.76441 0.000516422H4.27398V0ZM15.3553 18.993C15.968 19.0074 16.532 18.8525 16.9758 18.4244C17.562 17.8589 18.1317 17.2748 18.6843 16.6768C19.0923 16.2353 19.0902 15.7411 18.6734 15.3145C17.7901 14.4092 16.8913 13.5184 15.9857 12.6348C15.6404 12.2976 15.2024 12.2878 14.8064 12.5682C14.7006 12.643 14.6052 12.7345 14.5129 12.8259C14.0262 13.3072 13.5436 13.7931 13.0558 14.2739C12.7308 14.5941 12.3876 14.6483 11.9848 14.4428C11.6945 14.2946 11.4022 14.1479 11.1238 13.9796C9.90769 13.2467 8.8388 12.3332 7.87462 11.2983C6.9602 10.3176 6.12614 9.27907 5.57096 8.04379C5.33302 7.51446 5.38901 7.22733 5.81045 6.82297C6.2858 6.36697 6.75907 5.90839 7.22147 5.43999C7.7839 4.87038 7.78546 4.40663 7.2225 3.83702C6.41539 3.02055 5.6005 2.21287 4.78199 1.40777C4.65861 1.28641 4.51347 1.17228 4.35692 1.10153C3.89193 0.891861 3.52026 1.0974 3.1942 1.41603C2.70485 1.89475 2.20721 2.36728 1.7443 2.87079C1.51932 3.11506 1.31664 3.40322 1.1886 3.70688C0.915416 4.35447 0.990581 5.03667 1.12588 5.70492C1.38403 6.97841 1.877 8.16928 2.51616 9.2925C4.80168 13.3072 8.0011 16.3432 12.2611 18.222C13.246 18.6563 14.2693 18.9558 15.3553 18.9935V18.993Z" fill="#1B1B1B"/>
  </g>
  <defs>
    <clipPath id="clip0_4233_3029">
      <rect width="20" height="20" fill="white"/>
    </clipPath>
  </defs>
</svg>
