<svg width="12" height="12" viewBox="0 0 12 12" fill="none" xmlns="http://www.w3.org/2000/svg">
<path d="M5.90841 12C5.81624 11.9253 5.71349 11.8603 5.63409 11.774C4.66387 10.7222 3.76713 9.61285 3.02452 8.38443C2.4706 7.46796 2.01382 6.50772 1.77126 5.45684C1.58475 4.64914 1.53711 3.83676 1.74916 3.02656C2.05523 1.85658 2.76733 1.00544 3.85307 0.507191C5.45381 -0.227676 7.04864 -0.175163 8.56718 0.737873C9.6442 1.38553 10.2265 2.38171 10.3619 3.63514C10.4675 4.61101 10.2701 5.5428 9.93066 6.44989C9.46392 7.6977 8.7758 8.82172 7.96344 9.86667C7.43847 10.5418 6.86836 11.182 6.31381 11.834C6.2559 11.9022 6.16871 11.9453 6.09492 11.9997H5.90841V12ZM6.0121 11.0845C6.03327 11.0513 6.04541 11.0266 6.06254 11.006C6.45144 10.54 6.85279 10.0836 7.22736 9.60629C7.9569 8.67606 8.59863 7.68832 9.06817 6.59712C9.40756 5.80817 9.64482 4.99423 9.64638 4.12401C9.64918 2.7096 8.90657 1.59058 7.5982 1.07327C6.59466 0.676295 5.57462 0.662542 4.55738 1.01575C3.68244 1.31926 3.01362 1.87127 2.63375 2.7368C2.3227 3.44635 2.29903 4.18715 2.427 4.93859C2.59078 5.9032 2.9747 6.7856 3.44954 7.63143C4.06791 8.73326 4.83045 9.7307 5.6562 10.6816C5.76767 10.81 5.88163 10.9366 6.01272 11.0845H6.0121Z" fill="#CCCCCC"/>
<path d="M8.05904 4.43718C8.0578 5.57871 7.13552 6.50237 5.99841 6.50144C4.86285 6.50019 3.94213 5.57215 3.94431 4.43062C3.94649 3.28909 4.87063 2.3623 6.00495 2.3648C7.14019 2.36699 8.0606 3.29565 8.05904 4.43749V4.43718ZM7.31331 4.43718C7.31456 3.71075 6.73137 3.11967 6.00744 3.11373C5.28475 3.10779 4.68817 3.707 4.69004 4.43687C4.69191 5.16455 5.27821 5.75281 6.00121 5.75281C6.72389 5.75281 7.31207 5.1633 7.31331 4.43718Z" fill="#CCCCCC"/>
</svg>
