<svg width="30" height="31" viewBox="0 0 30 31" fill="none" xmlns="http://www.w3.org/2000/svg">
<g clip-path="url(#clip0_11754_1181)">
<path d="M14.2672 0.784019C25.4978 0.141945 33.3009 11.8767 28.6142 22.0846C23.9637 32.2109 10.2452 33.7984 3.29445 25.1126C-4.36044 15.5461 2.15842 1.4761 14.2672 0.784019ZM11.0621 24.7174C12.1941 23.8696 12.7936 22.571 13.1964 21.2489C13.4293 20.4842 13.501 19.5574 13.7242 18.8734C13.7515 18.7903 13.7483 18.7234 13.841 18.6701C15.1696 19.7421 16.4579 20.1269 18.1345 19.5784C20.919 18.6677 22.163 15.2 22.0188 12.4986C21.6425 5.45196 11.3272 4.9212 8.62976 10.6273C7.73946 12.5115 7.56382 15.8961 9.7972 16.9093C9.95029 16.9786 10.5707 17.2311 10.6674 17.0883C11.3667 15.8808 10.3725 15.2605 10.1187 14.2482C9.03341 9.92389 15.3702 6.3949 18.5172 9.63108C20.5975 11.7703 19.3817 18.6266 15.7303 17.9869C13.4953 17.5957 14.9778 14.7709 15.292 13.4263C15.4878 12.5874 15.7795 11.3992 14.8239 10.9088C12.8451 9.89243 11.8517 12.6172 12.037 14.1829C12.0773 14.5257 12.2852 14.8346 12.3343 15.0992C12.4487 15.7163 11.5214 18.6104 11.3433 19.4743C10.984 21.215 10.8285 22.9444 11.0629 24.7182L11.0621 24.7174Z" fill="#00579C"/>
<path d="M11.0621 24.7173C10.8277 22.9435 10.9832 21.2141 11.3425 19.4734C11.5214 18.6095 12.4479 15.7153 12.3335 15.0983C12.2844 14.8337 12.0773 14.5248 12.0362 14.1819C11.8517 12.6163 12.8451 9.89151 14.8231 10.9079C15.7787 11.3991 15.487 12.5864 15.2912 13.4253C14.977 14.77 13.4945 17.5948 15.7295 17.986C19.3809 18.6256 20.5967 11.7685 18.5164 9.63016C15.3686 6.39398 9.0326 9.92378 10.1179 14.2473C10.3717 15.2596 11.3667 15.8799 10.6665 17.0874C10.5699 17.2302 9.94948 16.9777 9.7964 16.9083C7.56301 15.8952 7.73866 12.5106 8.62895 10.6263C11.3256 4.92028 21.6417 5.45104 22.018 12.4977C22.1622 15.1999 20.9182 18.6668 18.1337 19.5775C16.4571 20.126 15.1688 19.7412 13.8402 18.6692C13.7475 18.7224 13.7507 18.7902 13.7233 18.8725C13.5002 19.5565 13.4285 20.4833 13.1956 21.248C12.7936 22.5708 12.1933 23.8687 11.0613 24.7165L11.0621 24.7173Z" fill="#FCD200"/>
</g>
<defs>
<clipPath id="clip0_11754_1181">
<rect width="30" height="30" fill="white" transform="translate(0 0.758789)"/>
</clipPath>
</defs>
</svg>
