<svg width="30" height="31" viewBox="0 0 30 31" fill="none" xmlns="http://www.w3.org/2000/svg">
<g clip-path="url(#clip0_11754_1187)">
<path d="M13.9622 0.794974C26.5935 -0.0473447 34.5515 14.1963 27.1556 24.5503C20.829 33.4079 7.27186 32.6468 1.94362 23.1719C-3.46345 13.554 3.00989 1.52478 13.9622 0.794974ZM5.96595 12.7773C6.04869 12.8562 6.37731 13.0524 6.48269 13.0805C7.04549 13.2313 8.65114 12.764 9.34742 12.6609C13.4408 12.0561 17.5786 12.3476 21.3691 14.0408C22.0833 14.3596 22.6446 14.9519 23.4884 14.705C24.397 14.4393 24.6593 13.1743 23.9653 12.5351C23.7023 12.2929 22.8725 11.8936 22.515 11.7209C18.5426 9.80029 13.4431 9.44789 9.11324 10.0816C8.39511 10.1871 6.45615 10.4676 5.97453 10.9247C5.46794 11.406 5.46404 12.2983 5.96595 12.7758V12.7773ZM11.6205 14.3909C11.1061 14.419 10.5581 14.4682 10.046 14.5338C9.49417 14.6049 7.89944 14.8472 7.47091 15.0816C6.69033 15.509 6.86049 16.8147 7.71054 17.0077C8.25539 17.1311 9.49183 16.7342 10.1257 16.6451C13.0403 16.2333 16.389 16.4201 19.1281 17.5351C19.566 17.7132 20.729 18.4055 21.0522 18.4282C22.0771 18.5001 22.6173 17.1616 21.7805 16.5209C21.5291 16.3287 20.971 16.0622 20.6666 15.9169C17.876 14.5792 14.6944 14.2205 11.6212 14.3909H11.6205ZM11.3082 18.3758C10.6822 18.4157 8.54108 18.6728 8.08444 18.9775C7.39285 19.4385 7.73396 20.6317 8.67456 20.5832C9.38645 20.5465 10.3512 20.2269 11.131 20.1511C13.4314 19.9269 15.9519 20.1918 18.0907 21.0739C18.7354 21.3396 19.8103 22.2257 20.3801 21.3615C21.0327 20.373 19.6534 19.8261 18.9493 19.5112C16.581 18.4524 13.8841 18.2118 11.309 18.3758H11.3082Z" fill="#00579C"/>
<path d="M5.96594 12.7769C5.46325 12.2995 5.46793 11.4064 5.97453 10.9258C6.48112 10.4453 8.3951 10.1882 9.11324 10.0827C13.4431 9.44825 18.5426 9.80143 22.515 11.722C22.8725 11.8947 23.7023 12.294 23.9653 12.5362C24.6593 13.1746 24.397 14.4404 23.4884 14.7061C22.6446 14.953 22.0833 14.3607 21.3691 14.0419C17.5786 12.3487 13.4408 12.0572 9.34741 12.662C8.65113 12.7652 7.04548 13.2324 6.48269 13.0816C6.37731 13.0535 6.04868 12.8566 5.96594 12.7785V12.7769Z" fill="#FCD200"/>
<path d="M11.6205 14.3905C14.6936 14.2202 17.876 14.5788 20.6658 15.9165C20.9695 16.0619 21.5284 16.3283 21.7797 16.5205C22.6173 17.1605 22.0763 18.4997 21.0514 18.4279C20.7283 18.4052 19.5652 17.7129 19.1273 17.5347C16.3883 16.4197 13.0404 16.233 10.1249 16.6448C9.49106 16.7346 8.2554 17.1316 7.70977 17.0073C6.85894 16.8143 6.68956 15.5086 7.47014 15.0812C7.89867 14.8468 9.4934 14.6046 10.0453 14.5335C10.5565 14.4679 11.1045 14.4186 11.6197 14.3905H11.6205Z" fill="#FCD200"/>
<path d="M11.3082 18.3755C13.8841 18.2114 16.581 18.4521 18.9485 19.5108C19.6526 19.8257 21.0319 20.3727 20.3793 21.3611C19.8095 22.2253 18.7347 21.3393 18.0899 21.0736C15.9503 20.1906 13.4306 19.9265 11.1303 20.1508C10.3505 20.2266 9.38644 20.5462 8.67378 20.5829C7.73396 20.6313 7.39284 19.4382 8.08366 18.9772C8.5403 18.6724 10.6814 18.4154 11.3075 18.3755H11.3082Z" fill="#FCD200"/>
</g>
<defs>
<clipPath id="clip0_11754_1187">
<rect width="30" height="30" fill="white" transform="translate(0 0.758789)"/>
</clipPath>
</defs>
</svg>
