<svg width="52" height="52" viewBox="0 0 52 52" fill="none" xmlns="http://www.w3.org/2000/svg">
<rect width="52" height="52" rx="26" fill="white"/>
<rect width="28" height="28" transform="translate(12 12)" fill="white"/>
<g clip-path="url(#clip0_410_5981)">
<path d="M20.2742 16C20.9149 16.125 21.3768 16.5268 21.8143 16.974C22.5893 17.7662 23.3912 18.5331 24.147 19.3433C24.8572 20.1045 24.8536 21.1322 24.1543 21.9058C23.6696 22.4419 23.1434 22.9407 22.6271 23.4478C22.5224 23.5506 22.4986 23.6219 22.5649 23.7603C23.0812 24.837 23.8287 25.7459 24.6369 26.6099C25.4637 27.494 26.3724 28.2857 27.3972 28.9369C27.6772 29.1151 27.9783 29.2597 28.2655 29.427C28.363 29.4838 28.4215 29.4673 28.4988 29.3888C28.9337 28.9477 29.3624 28.499 29.8186 28.0807C30.0648 27.855 30.3395 27.6314 30.6418 27.4997C31.4204 27.1604 32.1336 27.3494 32.7293 27.9247C33.5924 28.7582 34.429 29.6191 35.2864 30.4583C36.1744 31.3269 36.2495 32.478 35.4248 33.3637C34.8168 34.0169 34.1973 34.6635 33.5353 35.2605C32.8267 35.8993 31.9424 36.0573 31.0098 35.983C29.5459 35.8657 28.2059 35.3503 26.9074 34.7053C24.9816 33.7489 23.2331 32.5358 21.6951 31.0387C19.3837 28.7876 17.5216 26.2324 16.459 23.1545C16.1578 22.2818 15.9717 21.3873 16.0038 20.4578C16.0329 19.6191 16.3086 18.8775 16.9001 18.2712C17.4325 17.7249 17.9731 17.1862 18.519 16.6533C18.8663 16.314 19.2862 16.0986 19.7647 16.0005H20.2742V16ZM31.3556 34.993C31.9683 35.0074 32.5323 34.8525 32.976 34.4244C33.5623 33.8589 34.132 33.2748 34.6846 32.6768C35.0925 32.2353 35.0905 31.7411 34.6737 31.3145C33.7904 30.4092 32.8915 29.5184 31.9859 28.6348C31.6407 28.2976 31.2026 28.2878 30.8066 28.5682C30.7008 28.643 30.6055 28.7345 30.5132 28.8259C30.0264 29.3072 29.5438 29.7931 29.056 30.2739C28.731 30.5941 28.3878 30.6483 27.9851 30.4428C27.6948 30.2946 27.4024 30.1479 27.124 29.9796C25.9079 29.2467 24.839 28.3332 23.8749 27.2983C22.9604 26.3176 22.1264 25.2791 21.5712 24.0438C21.3333 23.5145 21.3892 23.2273 21.8107 22.823C22.286 22.367 22.7593 21.9084 23.2217 21.44C23.7841 20.8704 23.7857 20.4066 23.2227 19.837C22.4156 19.0206 21.6007 18.2129 20.7822 17.4078C20.6589 17.2864 20.5137 17.1723 20.3572 17.1015C19.8922 16.8919 19.5205 17.0974 19.1944 17.416C18.7051 17.8948 18.2075 18.3673 17.7445 18.8708C17.5196 19.1151 17.3169 19.4032 17.1888 19.7069C16.9157 20.3545 16.9908 21.0367 17.1261 21.7049C17.3843 22.9784 17.8772 24.1693 18.5164 25.2925C20.8019 29.3072 24.0013 32.3432 28.2614 34.222C29.2463 34.6563 30.2696 34.9558 31.3556 34.9935V34.993Z" fill="#1B1B1B"/>
</g>
<defs>
<clipPath id="clip0_410_5981">
<rect width="20" height="20" fill="white" transform="translate(16 16)"/>
</clipPath>
</defs>
</svg>
