<svg width="30" height="31" viewBox="0 0 30 31" fill="none" xmlns="http://www.w3.org/2000/svg">
<g clip-path="url(#clip0_11754_1184)">
<path d="M13.9626 0.793013C26.5823 -0.0310987 34.5624 14.2038 27.1511 24.5415C20.9337 33.2146 7.83181 32.7162 2.24177 23.651C-3.67832 14.0522 2.78018 1.52261 13.9626 0.793013ZM22.4834 11.4713C20.1901 11.5268 18.2183 9.5989 18.1801 7.30388L18.0747 7.17499H15.4998L15.3827 7.29217V19.4C15.3827 19.532 15.119 20.1444 15.0339 20.3006C14.1475 21.9293 11.6841 21.9809 10.7158 20.3998C9.42205 18.2868 11.3915 15.9356 13.6653 16.6269V13.8148C9.6218 13.1492 6.33052 17.1049 7.85366 20.9998C9.37679 24.8946 14.3832 25.4734 16.9402 22.4441C17.4778 21.8075 18.191 20.3905 18.191 19.5562V12.8774C18.6724 13.093 19.0829 13.4312 19.5674 13.6476C20.482 14.0561 21.4815 14.2553 22.4826 14.2834V11.4713H22.4834Z" fill="#00579C"/>
<path d="M22.4834 11.4716V14.2837C21.4823 14.2548 20.4827 14.0564 19.5682 13.6479C19.0837 13.4315 18.6725 13.0941 18.1918 12.8777V19.5565C18.1918 20.3908 17.4786 21.8078 16.941 22.4444C14.384 25.4737 9.30267 24.705 7.85445 21.0001C6.33131 17.1045 9.62259 13.1495 13.6661 13.8151V16.6272C11.3923 15.9367 9.42206 18.2871 10.7166 20.4001C11.6849 21.9812 14.1475 21.9296 15.0347 20.3009C15.1198 20.1447 15.3835 19.5315 15.3835 19.4003V7.29247L15.5006 7.17529H18.0755L18.1809 7.30418C18.2191 9.5992 20.1909 11.5263 22.4842 11.4716H22.4834Z" fill="#FCD200"/>
</g>
<defs>
<clipPath id="clip0_11754_1184">
<rect width="30" height="30" fill="white" transform="translate(0 0.758789)"/>
</clipPath>
</defs>
</svg>
