<svg width="16" height="16" viewBox="0 0 16 16" fill="none" xmlns="http://www.w3.org/2000/svg">
<g clip-path="url(#clip0_337_996)">
<path d="M10.2819 2.98041C10.3635 2.98329 10.4455 2.98493 10.527 2.98904C11.0198 3.0133 11.3925 3.40679 11.3937 3.90308C11.3941 4.14321 11.3949 4.38333 11.3953 4.62346C11.3953 4.63949 11.3953 4.65553 11.3953 4.67814H11.4519C12.1407 4.67814 12.8294 4.67773 13.5181 4.67814C13.6883 4.67814 13.86 4.67157 14.0289 4.68842C14.4188 4.72707 14.7025 4.93348 14.8739 5.28339C14.9796 5.49967 15.0637 5.72664 15.1576 5.94867C15.4335 6.59997 15.7094 7.25086 15.9845 7.90216C15.9943 7.92559 15.9996 7.95273 15.9996 7.97822C16.0004 9.09168 16.0004 10.2051 15.9996 11.3186C15.9996 11.3457 15.9935 11.3741 15.9832 11.3992C15.934 11.5184 15.8709 11.6294 15.7828 11.7244C15.6426 11.8753 15.4667 11.951 15.2633 11.9596C15.0932 11.967 14.9227 11.9674 14.7521 11.9678C14.7099 11.9678 14.6914 11.9785 14.6767 12.0209C14.4926 12.5447 14.1331 12.8802 13.5886 12.9904C12.8655 13.1364 12.1673 12.7269 11.9492 12.034C11.932 11.9798 11.9049 11.9621 11.8525 11.9625C11.5589 11.9646 11.2654 11.9654 10.9719 11.9658C10.6242 11.9662 10.2766 11.9658 9.92891 11.9658C9.32872 11.9666 8.72854 11.9687 8.12836 11.9687C7.8135 11.9687 7.49865 11.9674 7.1838 11.9646C7.14404 11.9646 7.12723 11.9765 7.1137 12.0135C7.02105 12.2688 6.88699 12.4983 6.68283 12.6808C6.44546 12.893 6.163 12.9925 5.84897 13.0098C5.51116 13.0287 5.19303 12.9674 4.91097 12.7692C4.66213 12.5945 4.50306 12.3511 4.38991 12.0735C4.34564 11.9654 4.34605 11.9654 4.22962 11.9654C3.86885 11.9654 3.50808 11.9662 3.14732 11.9654C2.97144 11.9646 2.80172 11.9312 2.6447 11.8482C2.37495 11.7051 2.24048 11.4691 2.19538 11.1751C2.1835 11.0974 2.18104 11.018 2.18022 10.9395C2.17735 10.6402 2.17612 10.3408 2.17653 10.0415C2.17653 9.86551 2.17448 9.68912 2.18637 9.51396C2.1962 9.36429 2.26631 9.24135 2.41184 9.18173C2.5541 9.12375 2.69349 9.13773 2.81443 9.23724C2.92717 9.33057 2.95627 9.46174 2.95627 9.60113C2.95709 10.0518 2.95627 10.5024 2.95709 10.9531C2.95709 11.002 2.96447 11.0513 2.97226 11.0994C2.97882 11.1381 3.00465 11.1648 3.04401 11.171C3.0891 11.178 3.13502 11.185 3.18052 11.1854C3.55441 11.1866 3.92829 11.1854 4.30218 11.187C4.34195 11.187 4.35711 11.1751 4.37023 11.1373C4.54611 10.6307 4.88925 10.2981 5.41154 10.1727C6.13061 10.0004 6.87838 10.4009 7.10509 11.1266C7.11862 11.1698 7.13543 11.1903 7.18585 11.1899C8.31243 11.187 9.439 11.1866 10.5656 11.1854C10.5799 11.1854 10.5947 11.1854 10.614 11.1854C10.6148 11.1648 10.6164 11.1476 10.6164 11.1303C10.6164 8.75699 10.6164 6.38369 10.6164 4.0104C10.6164 3.96311 10.6111 3.91542 10.6049 3.86813C10.5984 3.81756 10.5713 3.78302 10.5172 3.77726C10.4733 3.77233 10.4295 3.76493 10.3856 3.76493C7.98815 3.76452 5.59069 3.76452 3.19323 3.76493C3.14445 3.76493 3.09566 3.77274 3.04688 3.77932C3.00465 3.78507 2.978 3.81139 2.97267 3.85333C2.96529 3.91007 2.95832 3.96764 2.95791 4.02479C2.95504 4.26491 2.96365 4.50545 2.95053 4.74475C2.93455 5.03833 2.63363 5.20157 2.38028 5.06341C2.24048 4.98735 2.18432 4.857 2.18186 4.70651C2.17776 4.41417 2.17284 4.121 2.18596 3.82907C2.20563 3.385 2.57009 3.02276 3.01244 2.98986C3.04483 2.9874 3.07762 2.9837 3.11001 2.98041C5.50091 2.98041 7.89181 2.98041 10.2827 2.98041L10.2819 2.98041ZM11.4072 11.1825C11.4314 11.1825 11.4511 11.1825 11.4704 11.1825C11.595 11.1841 11.7196 11.1837 11.8438 11.1878C11.9213 11.1903 11.9213 11.1932 11.9463 11.1184C12.2653 10.1722 13.3947 9.82604 14.1864 10.4329C14.2585 10.4884 14.3233 10.5534 14.3938 10.6159C14.3872 10.5715 14.3762 10.5283 14.3758 10.4852C14.3741 10.2093 14.3663 9.93294 14.3774 9.65705C14.3864 9.43583 14.4926 9.26232 14.7033 9.17515C14.7861 9.14102 14.88 9.12951 14.9702 9.11964C15.0522 9.1106 15.1362 9.11759 15.2199 9.11759C15.2211 9.1032 15.2219 9.09538 15.2219 9.08716C15.2219 8.86184 15.2219 8.63651 15.2219 8.41119C15.2219 8.23767 15.2072 8.06868 15.1379 7.90504C14.828 7.17397 14.5221 6.44085 14.2151 5.70896C14.1368 5.52228 14.0355 5.45444 13.8322 5.45485C13.496 5.45567 13.1598 5.45773 12.8237 5.45773C12.3711 5.45773 11.9185 5.45691 11.4659 5.45608C11.4466 5.45608 11.4277 5.45608 11.4064 5.45608V11.1813L11.4072 11.1825ZM5.74361 12.2367C6.10478 12.2367 6.40528 11.9395 6.40528 11.5818C6.40528 11.2105 6.10724 10.914 5.73418 10.9144C5.3771 10.9148 5.07742 11.2162 5.07701 11.576C5.07619 11.9395 5.37628 12.2367 5.74361 12.2367ZM12.6482 11.576C12.6474 11.9399 12.938 12.2359 13.2963 12.2367C13.6743 12.2376 13.9658 11.9518 13.9666 11.5793C13.9674 11.2109 13.6768 10.9161 13.3119 10.9144C12.9434 10.9128 12.649 11.2063 12.6482 11.576ZM14.5959 10.9099C14.5951 10.9193 14.5935 10.9243 14.5947 10.928C14.6254 11.0057 14.6554 11.0838 14.6894 11.1599C14.6951 11.1726 14.7181 11.1841 14.7333 11.1846C14.8366 11.1866 14.9395 11.1858 15.0428 11.1858C15.101 11.1858 15.1592 11.1858 15.2195 11.1858V11.0316C15.0034 11.0291 14.7849 11.0509 14.5959 10.9099ZM15.2084 10.2327V9.90951C15.1912 9.91033 15.1768 9.91115 15.1613 9.91197V10.2327H15.2084Z" fill="white"/>
<path d="M0 7.06584C0.00819924 7.04117 0.0155786 7.01609 0.0245977 6.99183C0.0791227 6.84381 0.21769 6.75294 0.399303 6.74554C0.407502 6.74554 0.415702 6.74554 0.423901 6.74554C0.855181 6.7443 1.28646 6.74266 1.71733 6.74225C2.05022 6.74225 2.38311 6.74513 2.71559 6.74513C3.0698 6.74513 3.424 6.74184 3.7778 6.74266C4.06313 6.74307 4.34806 6.7443 4.63339 6.75171C4.78098 6.75541 4.90807 6.8179 4.99867 6.93673C5.15691 7.14438 5.01999 7.4544 4.74777 7.50909C4.6953 7.51978 4.64036 7.5243 4.58666 7.5243C3.20426 7.52512 1.82228 7.52512 0.439889 7.52471C0.31977 7.52471 0.21072 7.49223 0.118889 7.41041C0.0532951 7.35243 0.0241878 7.27472 0 7.19413C0 7.15137 0 7.1086 0 7.06584Z" fill="white"/>
<path d="M3.26868 8.14968C3.94921 8.14968 4.62975 8.14844 5.31029 8.15132C5.389 8.15132 5.47222 8.16201 5.5456 8.18915C5.70918 8.24918 5.7965 8.41447 5.77149 8.58922C5.74444 8.77754 5.62145 8.89966 5.43573 8.92063C5.38859 8.92597 5.34103 8.92885 5.29348 8.92885C3.93404 8.92926 2.57461 8.92967 1.21518 8.92803C1.14056 8.92803 1.06431 8.91775 0.992156 8.89925C0.816692 8.85484 0.716251 8.72244 0.713792 8.54564C0.711332 8.36431 0.806443 8.23068 0.985187 8.18257C1.06308 8.1616 1.14671 8.15132 1.22747 8.15132C1.90801 8.14885 2.58855 8.15009 3.26909 8.15009L3.26868 8.14968Z" fill="white"/>
<path d="M3.69422 6.11354C3.02352 6.11354 2.35323 6.11354 1.68253 6.11354C1.6317 6.11354 1.58086 6.11518 1.53044 6.11025C1.32587 6.0901 1.17049 5.91987 1.17213 5.72086C1.17418 5.52186 1.32833 5.35615 1.53167 5.33847C1.59521 5.33313 1.65917 5.33477 1.72271 5.33477C3.0555 5.33477 4.38828 5.33477 5.72107 5.33518C5.79445 5.33518 5.86989 5.33395 5.9404 5.3504C6.13595 5.39563 6.24295 5.54982 6.23229 5.75458C6.22246 5.94002 6.0884 6.08393 5.89653 6.1086C5.83545 6.11641 5.77232 6.11395 5.71041 6.11395C5.03807 6.11395 4.36615 6.11395 3.69381 6.11395L3.69422 6.11354Z" fill="white"/>
<path d="M13.2795 7.89064C12.9376 7.89064 12.5953 7.89064 12.2534 7.89023C12.2111 7.89023 12.1677 7.88776 12.1263 7.87954C11.9795 7.84994 11.8963 7.74879 11.886 7.59295C11.8848 7.57281 11.8844 7.55266 11.8844 7.53251C11.8844 7.04733 11.8844 6.56214 11.8848 6.07696C11.8848 6.03461 11.8877 5.99102 11.8963 5.9499C11.9262 5.80887 12.023 5.7328 12.1824 5.72006C12.1988 5.71882 12.2148 5.71882 12.2312 5.71882C12.5621 5.71882 12.8929 5.71882 13.2237 5.71882C13.3693 5.71882 13.5144 5.718 13.6599 5.71759C13.8448 5.71759 13.949 5.78626 14.0207 5.95607C14.204 6.38904 14.3872 6.822 14.5692 7.25579C14.6057 7.34214 14.6451 7.42889 14.668 7.51935C14.7172 7.71137 14.6106 7.85939 14.4143 7.88283C14.3745 7.88776 14.3343 7.89023 14.2946 7.89023C13.9563 7.89064 13.6177 7.89023 13.2795 7.89023V7.89064ZM13.933 7.28581C13.9276 7.271 13.924 7.26031 13.9199 7.25045C13.7989 6.9655 13.6755 6.68138 13.5583 6.39479C13.5329 6.33271 13.5001 6.3142 13.4369 6.31461C13.134 6.31708 12.8306 6.31461 12.5272 6.31461C12.5141 6.31461 12.501 6.31461 12.4879 6.31461V7.28581H13.933Z" fill="white"/>
<path d="M6.23965 11.5744C6.23965 11.8556 6.01663 12.0809 5.73909 12.0801C5.46277 12.0797 5.24426 11.856 5.24426 11.5744C5.24426 11.2964 5.46359 11.0748 5.73909 11.0736C6.01581 11.0723 6.23965 11.2964 6.23965 11.574V11.5744Z" fill="white"/>
<path d="M13.3041 12.0805C13.0323 12.0792 12.8044 11.8478 12.806 11.5743C12.8077 11.2984 13.0356 11.0719 13.3095 11.0739C13.5862 11.076 13.8113 11.3025 13.8096 11.5772C13.808 11.856 13.5817 12.0817 13.3046 12.0805H13.3041Z" fill="white"/>
</g>
<defs>
<clipPath id="clip0_337_996">
<rect width="16" height="10.0392" fill="white" transform="translate(0 2.98041)"/>
</clipPath>
</defs>
</svg>
