<svg xmlns="http://www.w3.org/2000/svg" width="32" height="22" viewBox="0 0 32 22" fill="none">
  <path fill-rule="evenodd" clip-rule="evenodd" d="M2.66667 0H29.3333C30.8061 0 32 1.19391 32 2.66667V18.6667C32 20.1394 30.8061 21.3333 29.3333 21.3333H2.66667C1.19391 21.3333 0 20.1394 0 18.6667V2.66667C0 1.19391 1.19391 0 2.66667 0ZM30.6667 2.66667C30.6667 1.93029 30.0697 1.33333 29.3333 1.33333H2.66667C1.93029 1.33333 1.33333 1.93029 1.33333 2.66667V18.6667C1.33333 19.403 1.93029 20 2.66667 20H29.3333C30.0697 20 30.6667 19.403 30.6667 18.6667V2.66667Z" fill="#1B1B1B"/>
  <path fill-rule="evenodd" clip-rule="evenodd" d="M20.2334 11.7801C20.2374 10.7637 19.3991 10.3246 18.7485 9.98389C18.3366 9.7682 18 9.59192 18 9.33348C18 9.11348 18.2134 8.88015 18.6667 8.82015C19.2062 8.76677 19.7501 8.86126 20.24 9.09348L20.52 7.76015C20.0424 7.58106 19.5368 7.4885 19.0267 7.48682C17.4534 7.48682 16.36 8.32682 16.36 9.52682C16.36 10.4135 17.1534 10.9068 17.7534 11.2002C18.3534 11.4935 18.5867 11.7001 18.58 11.9668C18.58 12.3801 18.0867 12.5668 17.6267 12.5735C17.0593 12.5808 16.4994 12.4431 16 12.1735L15.7134 13.5068C16.2783 13.7274 16.8802 13.8382 17.4867 13.8335C19.16 13.8335 20.26 13.0068 20.2667 11.7268L20.2334 11.7801ZM15.9067 7.59348L14.5734 13.7601H12.9734L14.3067 7.59348H15.9067ZM22.6134 11.5935L23.4534 9.28015L23.94 11.5935H22.6134ZM25.8734 13.7801H24.3934L24.2 12.8601H22.1934L21.8667 13.7801H20.1867L22.58 8.06682C22.6904 7.79499 22.9533 7.61617 23.2467 7.61348H24.58L25.8734 13.7801ZM11.0734 13.7401L13.66 7.57348H11.9267L10.2667 11.7668L9.60002 8.20015C9.54101 7.83772 9.22723 7.57199 8.86002 7.57348H6.14669L6.10669 7.75348C6.65091 7.85996 7.17953 8.03468 7.68002 8.27348C7.8932 8.37371 8.03765 8.57899 8.06002 8.81348L9.33336 13.7401H11.0734Z" fill="#1B1B1B"/>
</svg>