<svg xmlns="http://www.w3.org/2000/svg" width="50" height="18" viewBox="0 0 50 18" fill="none">
  <path fill-rule="evenodd" clip-rule="evenodd" d="M3.75287 0.00157647H19.465L19.4645 6.52088e-05C20.0176 -0.00497233 20.5319 0.282167 20.8185 0.755192C21.1052 1.22822 21.1208 1.81711 20.8599 2.30474L12.9806 17.1191C12.7005 17.6486 12.1505 17.9795 11.552 17.9795C10.9535 17.9795 10.4034 17.6486 10.1233 17.1191L8.4 13.8593L7.02778 16.4481C6.84643 16.7912 6.49028 17.0058 6.10188 17.0058C5.71349 17.0058 5.35733 16.7912 5.17598 16.4481L0.120309 6.89494C-0.0504634 6.57355 -0.0388835 6.18566 0.151536 5.87535C0.341954 5.56503 0.681989 5.37865 1.0462 5.38519H3.89594L2.32322 2.39139C2.05875 1.88813 2.07588 1.28363 2.36755 0.795493C2.65973 0.307355 3.18413 0.00661401 3.75287 0.00157647ZM8.99746 12.7249L12.4446 6.26072H12.4441C12.5434 6.07534 12.5368 5.85217 12.4275 5.67284C12.3182 5.49401 12.1222 5.3862 11.9127 5.38922H4.94979C4.72663 5.38872 4.51958 5.50559 4.40473 5.69702C4.28987 5.88844 4.28383 6.12622 4.38862 6.32318L7.79148 12.7249C7.90986 12.9481 8.14209 13.0876 8.39447 13.0876C8.64685 13.0876 8.87908 12.9481 8.99746 12.7249ZM41.8869 13.0396C41.1802 13.1409 40.4669 13.1867 39.7531 13.1776C38.3924 13.1776 37.191 12.8295 37.191 10.9107V7.40965C37.191 5.49085 38.404 5.15434 39.7631 5.15434C40.4714 5.14477 41.1792 5.19011 41.8804 5.29035C42.028 5.31151 42.0905 5.3644 42.0905 5.50042V6.48526C42.0895 6.60112 41.9963 6.69432 41.8804 6.69532H39.6644C39.1717 6.69532 38.9899 6.85955 38.9899 7.41267V8.37131H41.8033C41.9192 8.37232 42.0124 8.46551 42.0134 8.58138V9.58284C42.0124 9.6987 41.9192 9.7919 41.8033 9.79291H38.9899V10.9107C38.9899 11.4588 39.1687 11.6281 39.6644 11.6281H41.8869C42.0028 11.6291 42.096 11.7223 42.097 11.8381V12.823C42.0985 12.9545 42.0345 13.0184 41.8869 13.0396ZM36.1388 6.73474H34.3464V12.8705C34.3454 12.9863 34.2522 13.0795 34.1363 13.0805H32.7561C32.6402 13.0795 32.547 12.9863 32.546 12.8705V6.73474H30.7405C30.6856 6.73676 30.6327 6.71711 30.5929 6.67933C30.5531 6.64155 30.531 6.58916 30.5305 6.53475V5.44815C30.5305 5.39325 30.5536 5.34136 30.5929 5.30358C30.6327 5.2658 30.6856 5.24565 30.7405 5.24816H36.1362C36.2526 5.24262 36.3518 5.33229 36.3579 5.44866V6.53525C36.3518 6.65011 36.2546 6.73927 36.1398 6.73575L36.1388 6.73474ZM48.1658 13.081H49.8418L49.8423 13.0805C49.9259 13.0805 49.9803 13.0392 50 12.9672C49.9979 12.9299 49.9874 12.8941 49.9687 12.8619L47.5769 9.08675L49.875 5.44763C49.8866 5.42848 49.8942 5.40632 49.8962 5.38365C49.8881 5.30053 49.8151 5.23907 49.732 5.24562H48.1708C48.054 5.26225 47.9537 5.33831 47.9064 5.44612L46.5931 7.58002L45.244 5.44612C45.18 5.35091 45.0959 5.24562 44.9796 5.24562H43.2824C43.1993 5.23907 43.1262 5.30053 43.1182 5.38365C43.1202 5.40632 43.1273 5.42798 43.1393 5.44763L45.447 9.06559L43.1605 12.872C43.1489 12.8951 43.1414 12.9203 43.1393 12.946C43.1393 12.9873 43.1575 13.0266 43.1892 13.0533C43.2209 13.08 43.2628 13.0916 43.3036 13.084H44.8597C44.9765 13.084 45.0501 13.0004 45.1241 12.874L46.4374 10.6187L47.8917 12.9168C47.9391 13.0241 48.0489 13.0896 48.1658 13.081ZM28.0055 5.2694C27.9269 5.26789 27.8579 5.3223 27.8412 5.39887L26.3098 11.0651C26.2887 11.1815 26.2574 11.2293 26.1622 11.2293C26.067 11.2293 26.0358 11.1865 26.0146 11.0651L24.4883 5.39887C24.4716 5.32179 24.4026 5.26739 24.324 5.2694H22.8173C22.7669 5.26839 22.7186 5.29056 22.6863 5.32935C22.6541 5.36864 22.642 5.42002 22.6531 5.46939C22.6531 5.46939 24.5225 11.9648 24.5422 12.0353C24.7915 12.8101 25.3975 13.1844 26.1673 13.1844C26.9058 13.2111 27.5712 12.7406 27.7924 12.0353C27.8221 11.9467 29.6507 5.46939 29.6507 5.46939C29.6613 5.42053 29.6487 5.36914 29.617 5.33036C29.5852 5.29157 29.5369 5.2699 29.487 5.27091L28.0065 5.2694H28.0055Z" fill="#1B1B1B"/>
</svg>