<svg xmlns="http://www.w3.org/2000/svg" width="44" height="17" viewBox="0 0 44 17" fill="none">
  <g clip-path="url(#clip0_11765_1202)">
    <path d="M31.8027 6.75093H30.2253V12.2113C30.2246 12.3142 30.1422 12.3975 30.0404 12.3983H28.8256C28.7238 12.3975 28.6415 12.3142 28.6407 12.2113V6.75093H27.0517C27.0036 6.75291 26.9568 6.73506 26.9219 6.70146C26.8871 6.66787 26.8672 6.6214 26.8668 6.57271V5.60568C26.8671 5.55699 26.8871 5.51053 26.9219 5.47693C26.9568 5.44334 27.0036 5.42549 27.0517 5.42747H31.7998C31.9022 5.4225 31.9893 5.50214 31.9948 5.60568V6.57271C31.9893 6.67507 31.904 6.75425 31.8027 6.75093Z" fill="#FF3366"/>
    <path d="M36.8613 12.3619C36.2394 12.4519 35.6116 12.4929 34.9834 12.4847C33.786 12.4847 32.7286 12.175 32.7286 10.4673V7.3515C32.7286 5.64386 33.7961 5.3444 34.9921 5.3444C35.6154 5.33576 36.2384 5.3763 36.8555 5.46564C36.9855 5.48463 37.0404 5.53138 37.0404 5.65262V6.52909C37.0397 6.63202 36.9573 6.71527 36.8555 6.71606H34.9054C34.4721 6.71606 34.3117 6.86214 34.3117 7.35442V8.20751H36.7876C36.8894 8.2083 36.9717 8.29156 36.9725 8.39449V9.28556C36.9718 9.3885 36.8894 9.47175 36.7876 9.47254H34.3117V10.4673C34.3117 10.9552 34.4692 11.1057 34.9054 11.1057H36.8613C36.9631 11.1065 37.0454 11.1897 37.0462 11.2927V12.1691C37.0476 12.286 36.9913 12.343 36.8613 12.3619Z" fill="#FF3366"/>
    <path d="M43.8613 12.3985H42.3865C42.2836 12.4062 42.1871 12.3477 42.1452 12.2524L40.8654 10.2073L39.7098 12.2144C39.6448 12.3269 39.5798 12.4014 39.4773 12.4014H38.1079C38.072 12.4079 38.0351 12.398 38.0072 12.3743C37.9793 12.3506 37.9633 12.3156 37.9634 12.2787C37.9653 12.2557 37.9717 12.2334 37.9822 12.213L39.9944 8.82544L37.9634 5.60589C37.9529 5.5886 37.9465 5.56911 37.9446 5.54892C37.9515 5.47496 38.0159 5.4203 38.0891 5.42622H39.5827C39.6853 5.42622 39.7589 5.51971 39.8153 5.60443L41.0026 7.50344L42.1582 5.60443C42.2001 5.50839 42.2881 5.44101 42.3908 5.42622H43.7645C43.8378 5.4203 43.9021 5.47496 43.909 5.54892C43.9071 5.56911 43.9007 5.5886 43.8902 5.60589L41.8679 8.84443L43.9725 12.2042C43.9888 12.2328 43.9982 12.2648 44 12.2977C43.9826 12.362 43.935 12.3985 43.8613 12.3985Z" fill="#FF3366"/>
    <path d="M24.6452 5.44633C24.5759 5.44477 24.5152 5.4932 24.5007 5.56173L23.153 10.6043C23.1342 10.708 23.1068 10.7504 23.023 10.7504C22.9392 10.7504 22.9118 10.7124 22.893 10.6043L21.5496 5.56173C21.5351 5.4932 21.4744 5.44477 21.4051 5.44633H20.0791C20.0346 5.44522 19.9921 5.46494 19.9638 5.49976C19.9356 5.53459 19.9248 5.58063 19.9346 5.62455C19.9346 5.62455 21.5799 11.4048 21.5973 11.4676C21.8168 12.1571 22.3498 12.4902 23.0273 12.4902C23.6773 12.5138 24.2627 12.0952 24.4574 11.4676C24.4834 11.3888 26.0925 5.62455 26.0925 5.62455C26.1018 5.58084 26.0908 5.53524 26.0627 5.50078C26.0345 5.46632 25.9923 5.44679 25.9481 5.44779L24.6452 5.44633Z" fill="#FF3366"/>
    <path d="M17.1294 0.758849H3.30269C2.80236 0.763475 2.34049 1.03116 2.08363 1.46538C1.82676 1.8996 1.81195 2.43773 2.04453 2.88573L3.42836 5.55018H0.920708C0.600337 5.54429 0.300804 5.71029 0.133335 5.98654C-0.0341345 6.26279 -0.0445292 6.60805 0.106011 6.89409L4.55507 15.3958C4.71472 15.7011 5.02824 15.8921 5.36977 15.8921C5.71129 15.8921 6.02481 15.7011 6.18446 15.3958L7.39206 13.0921L8.90879 15.9932C9.15539 16.4642 9.63923 16.7588 10.1662 16.7588C10.6932 16.7588 11.1771 16.4642 11.4237 15.9932L18.3573 2.80977C18.5868 2.37584 18.5731 1.85163 18.321 1.43064C18.069 1.00964 17.6161 0.754298 17.1294 0.758849ZM10.9513 6.32877L7.91786 12.0813C7.81364 12.28 7.60942 12.4042 7.38701 12.4042C7.1646 12.4042 6.96038 12.28 6.85615 12.0813L3.86171 6.38428C3.76932 6.20896 3.77472 5.99746 3.87592 5.82719C3.97712 5.65692 4.15928 5.55286 4.35573 5.5531H10.4833C10.6679 5.55023 10.8403 5.64631 10.9365 5.80571C11.0326 5.96511 11.0383 6.16406 10.9513 6.32877Z" fill="#FF3366"/>
  </g>
  <defs>
    <clipPath id="clip0_11765_1202">
      <rect width="44" height="16" fill="white" transform="translate(0 0.758789)"/>
    </clipPath>
  </defs>
</svg>
