<svg width="52" height="52" viewBox="0 0 52 52" fill="none" xmlns="http://www.w3.org/2000/svg">
<rect width="51.9994" height="52" rx="25.9997" fill="white"/>
<path d="M25.3761 16C25.7925 16 26.2095 16 26.626 16C26.6829 16.0115 26.7388 16.0292 26.7962 16.0333C27.9825 16.1214 29.1176 16.413 30.1943 16.9166C34.5366 18.9463 36.8137 23.6352 35.7328 28.3111C34.8419 32.1652 31.6238 35.1959 27.7246 35.8484C27.3603 35.9094 26.9924 35.95 26.6265 36H25.3766C25.3265 35.9885 25.2774 35.9708 25.2268 35.9667C23.8458 35.8615 22.5437 35.4844 21.3224 34.8323C21.2065 34.7703 21.1032 34.7542 20.9738 34.7912C20.0364 35.0589 19.096 35.3167 18.1581 35.5823C17.6847 35.7162 17.2145 35.8604 16.7427 36H16.4301C16.2359 35.9068 16.0924 35.7641 16 35.5698C16 35.4656 16 35.3615 16 35.2573C16.0177 35.2172 16.0412 35.1787 16.0527 35.137C16.4421 33.748 16.8319 32.3589 17.2134 30.9678C17.2354 30.8876 17.2093 30.7767 17.1691 30.6996C16.6743 29.7533 16.3236 28.7585 16.1508 27.7033C16.0924 27.3455 16.0501 26.9846 16 26.6247C16 26.2081 16 25.7914 16 25.3748C16.0637 24.9321 16.1117 24.4862 16.1941 24.0467C16.9379 20.065 20.2645 16.8104 24.2581 16.1542C24.6292 16.0927 25.0034 16.051 25.3761 16ZM17.4326 34.562C17.501 34.5459 17.5318 34.5396 17.5621 34.5313C18.6576 34.2261 19.7556 33.9292 20.847 33.6094C21.1648 33.5162 21.4252 33.5542 21.7175 33.7105C24.3964 35.138 27.1385 35.2479 29.8681 33.9209C33.6201 32.097 35.5084 28.0591 34.5961 23.9894C33.7459 20.1968 30.294 17.3234 26.4032 17.1807C24.1835 17.0995 22.183 17.727 20.4592 19.1359C18.4196 20.8025 17.3225 22.9707 17.1837 25.6008C17.0944 27.2976 17.4885 28.8934 18.3345 30.371C18.4592 30.5892 18.4937 30.8007 18.4206 31.0418C18.3037 31.4272 18.2004 31.8168 18.0918 32.2048C17.8752 32.9792 17.6586 33.7537 17.4326 34.562Z" fill="#1B1B1B"/>
<path d="M20.6324 24.1019C20.6335 23.0581 20.968 22.155 21.7316 21.4197C22.076 21.0879 22.409 20.753 22.8991 20.6431C23.5468 20.4978 24.1287 20.6275 24.6261 21.0686C24.8693 21.2842 25.0989 21.5165 25.3166 21.7582C25.9752 22.491 25.971 23.5659 25.314 24.3008C25.2143 24.4123 25.1041 24.5144 25.0019 24.6237C24.8354 24.8024 24.8249 24.9909 24.9919 25.1602C25.6052 25.7805 26.2221 26.3971 26.8426 27.0101C27.006 27.1716 27.1933 27.1653 27.3645 27.0101C27.4705 26.9143 27.5665 26.807 27.6719 26.7107C28.4339 26.0159 29.5362 26.0201 30.2888 26.7232C30.4934 26.9143 30.6917 27.1122 30.8822 27.3169C31.5951 28.0809 31.5946 29.1773 30.8937 29.9491C30.3044 30.5981 29.6406 31.1163 28.7486 31.2835C27.8128 31.4585 26.8979 31.3642 26.0243 31.0241C23.4899 30.0371 21.7405 28.271 20.8824 25.6742C20.7175 25.1742 20.6747 24.6341 20.5756 24.1128C20.5943 24.1092 20.6137 24.1055 20.6324 24.1019ZM27.9224 30.196C28.0347 30.1861 28.21 30.1757 28.3838 30.1554C29.139 30.0679 29.6583 29.6017 30.1118 29.0486C30.3258 28.7877 30.2909 28.4064 30.056 28.1512C29.8665 27.9455 29.6687 27.7466 29.4626 27.558C29.1724 27.2919 28.7622 27.2997 28.472 27.5664C28.3572 27.6721 28.2523 27.7888 28.1359 27.8929C27.5248 28.4413 26.638 28.4403 26.0488 27.8695C25.399 27.2403 24.7592 26.6002 24.1297 25.9503C23.5536 25.3555 23.5583 24.4592 24.1188 23.8493C24.22 23.7394 24.3317 23.6389 24.433 23.5284C24.7007 23.2357 24.7085 22.8295 24.4418 22.5384C24.2529 22.3321 24.0541 22.1342 23.8484 21.9446C23.6058 21.7207 23.2342 21.6691 22.9842 21.8681C22.4977 22.2556 22.0593 22.6915 21.9002 23.3285C21.7274 24.0191 21.7932 24.6993 22.0051 25.3669C22.5358 27.0383 23.6089 28.2929 25.0504 29.2486C25.8985 29.8111 26.8238 30.172 27.9224 30.196Z" fill="#1B1B1B"/>
</svg>
