<svg xmlns="http://www.w3.org/2000/svg" width="20" height="20" viewBox="0 0 20 20" fill="none">
  <path d="M9.37606 0C9.79254 0 10.2095 0 10.626 0C10.6829 0.011458 10.7388 0.0291659 10.7962 0.0333325C11.9825 0.121351 13.1176 0.41301 14.1943 0.916643C18.5366 2.94628 20.8137 7.63522 19.7328 12.3111C18.8419 16.1652 15.6238 19.1959 11.7246 19.8484C11.3603 19.9094 10.9924 19.95 10.6265 20H9.37658C9.32648 19.9885 9.27742 19.9708 9.22679 19.9667C7.84583 19.8615 6.54367 19.4844 5.32241 18.8323C5.20654 18.7703 5.10321 18.7542 4.97377 18.7912C4.03643 19.0589 3.09595 19.3167 2.15809 19.5823C1.68472 19.7162 1.21448 19.8604 0.742674 20H0.430051C0.235902 19.9068 0.0923775 19.7641 0 19.5698C0 19.4656 0 19.3615 0 19.2573C0.0177448 19.2172 0.0412307 19.1787 0.0527126 19.137C0.442055 17.748 0.83192 16.3589 1.21343 14.9678C1.23535 14.8876 1.20926 14.7767 1.16907 14.6996C0.674304 13.7533 0.323582 12.7585 0.150831 11.7033C0.0923776 11.3455 0.0501031 10.9846 0 10.6247C0 10.2081 0 9.79141 0 9.37475C0.0636727 8.93206 0.111688 8.48624 0.194149 8.04667C0.937867 4.065 4.2645 0.810396 8.25813 0.154163C8.62921 0.0927059 9.00342 0.0510403 9.37606 0ZM1.43263 18.562C1.501 18.5459 1.5318 18.5396 1.56207 18.5313C2.65755 18.2261 3.75564 17.9292 4.84695 17.6094C5.16479 17.5162 5.42522 17.5542 5.71749 17.7105C8.39644 19.138 11.1385 19.2479 13.8681 17.9209C17.6201 16.097 19.5084 12.0591 18.5961 7.98938C17.7459 4.19677 14.294 1.3234 10.4032 1.1807C8.1835 1.09945 6.18303 1.72704 4.45917 3.13586C2.41956 4.80248 1.32251 6.97065 1.18369 9.60079C1.09444 11.2976 1.48848 12.8934 2.33449 14.371C2.45923 14.5892 2.49367 14.8007 2.4206 15.0418C2.3037 15.4272 2.20036 15.8168 2.0918 16.2048C1.87521 16.9792 1.65862 17.7537 1.43263 18.562Z" fill="#1B1B1B"/>
  <path d="M4.63245 8.10187C4.63349 7.05815 4.96803 6.15505 5.73158 5.41965C6.07604 5.08789 6.40902 4.753 6.89909 4.64311C7.54678 4.4978 8.1287 4.62748 8.62608 5.06862C8.86929 5.28424 9.09893 5.51652 9.31656 5.75818C9.97521 6.49098 9.97103 7.56595 9.31395 8.30083C9.21427 8.41228 9.10415 8.51436 9.00185 8.62373C8.83536 8.80237 8.82493 8.99091 8.99194 9.16018C9.60518 9.78047 10.2221 10.3971 10.8426 11.0101C11.006 11.1716 11.1933 11.1653 11.3645 11.0101C11.4705 10.9143 11.5665 10.807 11.6719 10.7107C12.4339 10.0159 13.5362 10.0201 14.2888 10.7232C14.4934 10.9143 14.6917 11.1122 14.8822 11.3169C15.5951 12.0809 15.5946 13.1773 14.8937 13.9491C14.3044 14.5981 13.6406 15.1163 12.7486 15.2835C11.8128 15.4585 10.8979 15.3642 10.0243 15.0241C7.48989 14.0371 5.74046 12.271 4.88244 9.67423C4.71752 9.17424 4.67472 8.63415 4.57556 8.11281C4.59435 8.10916 4.61366 8.10552 4.63245 8.10187ZM11.9224 14.196C12.0347 14.1861 12.21 14.1757 12.3838 14.1554C13.139 14.0679 13.6583 13.6017 14.1118 13.0486C14.3258 12.7877 14.2909 12.4064 14.056 12.1512C13.8665 11.9455 13.6687 11.7466 13.4626 11.558C13.1724 11.2919 12.7622 11.2997 12.472 11.5664C12.3572 11.6721 12.2523 11.7888 12.1359 11.8929C11.5248 12.4413 10.638 12.4403 10.0488 11.8695C9.39902 11.2403 8.75917 10.6002 8.12975 9.95026C7.55356 9.35549 7.55826 8.45915 8.11879 7.84927C8.22004 7.73938 8.33172 7.63886 8.43297 7.52845C8.70071 7.23575 8.70854 6.82951 8.44185 6.53837C8.25292 6.33213 8.05407 6.13421 7.84844 5.94464C7.60575 5.72068 7.23415 5.66912 6.98416 5.86808C6.49774 6.25557 6.05934 6.69149 5.90016 7.32845C5.72741 8.01906 5.79317 8.69925 6.00506 9.36694C6.53584 11.0383 7.60888 12.2929 9.05039 13.2486C9.89849 13.8111 10.8238 14.172 11.9224 14.196Z" fill="#1B1B1B"/>
</svg>
