<svg xmlns="http://www.w3.org/2000/svg" width="18" height="19" viewBox="0 0 18 19" fill="none">
  <g clip-path="url(#clip0_11754_992)">
    <path d="M0 18.7589L1.26051 14.1412C-1.51074 9.23477 0.750683 3.12589 6.06732 1.27861C12.5334 -0.967938 18.9353 4.39115 17.8866 11.1303C16.9461 17.1717 10.0635 20.4253 4.71075 17.5391L0 18.7589ZM2.20238 16.6033L4.94364 15.8966C10.7284 19.5064 18.0886 14.2953 16.1992 7.59601C15.4865 5.06783 13.3277 3.02561 10.7687 2.43609C4.08377 0.896215 -0.876266 8.26988 2.89964 13.9069L2.20285 16.6037L2.20238 16.6033Z" fill="#00579C"/>
    <path d="M13.5282 11.6958C13.7391 11.9521 13.4439 12.8481 13.2527 13.1039C11.8685 14.9554 8.56023 13.2211 7.24067 12.0566C6.02702 10.9853 4.27824 8.93654 4.51019 7.21954C4.5861 6.65673 5.16856 5.61031 5.78663 5.54377C6.68164 5.44723 6.64135 5.59391 6.95671 6.29496C7.1732 6.77623 7.35267 7.27952 7.5476 7.77063C7.564 7.90606 7.48012 8.00728 7.42296 8.11694C7.26364 8.42435 6.71398 8.83111 6.81472 9.15351C6.87658 9.3508 7.46841 10.1132 7.63617 10.3012C8.01244 10.7224 8.54148 11.155 9.02882 11.439C9.25327 11.5697 10.0068 11.9746 10.2279 11.9076C10.4899 11.8284 11.0395 10.8588 11.2317 10.8016C11.6215 10.6859 12.6384 11.3274 13.0404 11.5046C13.1548 11.5552 13.398 11.5374 13.5278 11.6953L13.5282 11.6958Z" fill="#00579C"/>
  </g>
  <defs>
    <clipPath id="clip0_11754_992">
      <rect width="18" height="18" fill="white" transform="translate(0 0.758789)"/>
    </clipPath>
  </defs>
</svg>
