<svg width="30" height="31" viewBox="0 0 30 31" fill="none" xmlns="http://www.w3.org/2000/svg">
<g clip-path="url(#clip0_11754_1172)">
<path d="M13.9622 0.794974C26.5936 -0.0473447 34.5516 14.1963 27.1556 24.5503C20.829 33.4079 7.27187 32.6468 1.94364 23.1719C-3.46343 13.5548 3.00757 1.52478 13.9622 0.794974ZM9.58863 10.1683C8.31629 10.3996 7.25938 11.4802 7.11966 12.7758C6.97057 14.1557 6.97057 17.3929 7.11966 18.7728C7.26875 20.1527 8.39279 21.2263 9.72523 21.3998C13.1051 21.1825 16.8504 21.6912 20.1873 21.4037C21.5815 21.2833 22.7453 20.0941 22.8764 18.704C22.9849 17.5538 23.0294 13.304 22.7765 12.321C22.4861 11.1943 21.4105 10.2949 20.2615 10.1503L9.58863 10.1699V10.1683Z" fill="#00579C"/>
<path d="M9.58861 10.168L20.2615 10.1484C21.4105 10.2938 22.4861 11.1924 22.7765 12.3191C23.0294 13.3021 22.9841 17.5519 22.8764 18.7021C22.7453 20.093 21.5814 21.2814 20.1873 21.4018C16.8503 21.6893 13.1051 21.1814 9.72521 21.3979C8.39276 21.2244 7.26482 20.1141 7.11964 18.7709C6.97445 17.4277 6.97055 14.1538 7.11964 12.7738C7.25936 11.4783 8.31704 10.3977 9.58861 10.1664V10.168ZM12.8858 13.3513V18.1958L17.0236 15.8118L12.8858 13.3513Z" fill="#FCD200"/>
<path d="M12.8858 13.3516L17.0237 15.8121L12.8858 18.1961V13.3516Z" fill="#00579C"/>
</g>
<defs>
<clipPath id="clip0_11754_1172">
<rect width="30" height="30" fill="white" transform="translate(0 0.758789)"/>
</clipPath>
</defs>
</svg>
