<svg class="dn" height="0" version="1.1" width="0" xmlns="http://www.w3.org/2000/svg">
    <defs>
        <g id="hpa-wishlist">
          <path id="Vector" d="M1.5625 11.875C1.5625 7.5603 5.06028 4.0625 9.375 4.0625C11.5846 4.0625 13.5799 4.98047 15 6.45339C16.4201 4.98047 18.4154 4.0625 20.625 4.0625C24.9397 4.0625 28.4375 7.5603 28.4375 11.875C28.4375 15.6726 26.2085 19.1791 23.5568 21.857C20.896 24.5441 17.6489 26.5615 15.2956 27.3435C15.1037 27.4073 14.8963 27.4073 14.7044 27.3435C12.3511 26.5615 9.10401 24.5441 6.44321 21.857C3.79153 19.1791 1.5625 15.6726 1.5625 11.875ZM9.375 5.9375C6.09581 5.9375 3.4375 8.59583 3.4375 11.875C3.4375 14.9524 5.27097 18.0084 7.77554 20.5377C10.152 22.9377 12.9887 24.7159 15 25.4603C17.0113 24.7159 19.848 22.9377 22.2245 20.5377C24.729 18.0084 26.5625 14.9524 26.5625 11.875C26.5625 8.59583 23.9042 5.9375 20.625 5.9375C18.6177 5.9375 16.8426 6.93276 15.7665 8.4609C15.5909 8.71027 15.305 8.85863 15 8.85863C14.695 8.85863 14.4091 8.71027 14.2335 8.4609C13.1574 6.93276 11.3823 5.9375 9.375 5.9375Z" fill="white"/>
        </g>
        <g id='minicart-icon'>
          <path d="M6.25 9.6875C6.07741 9.6875 5.9375 9.82741 5.9375 10V26.25C5.9375 26.4226 6.07741 26.5625 6.25 26.5625H23.75C23.9226 26.5625 24.0625 26.4226 24.0625 26.25V10C24.0625 9.82741 23.9226 9.6875 23.75 9.6875H6.25ZM4.0625 10C4.0625 8.79188 5.04188 7.8125 6.25 7.8125H23.75C24.9581 7.8125 25.9375 8.79188 25.9375 10V26.25C25.9375 27.4581 24.9581 28.4375 23.75 28.4375H6.25C5.04188 28.4375 4.0625 27.4581 4.0625 26.25V10Z" fill="white"/>
          <path d="M15 3.4375C13.1015 3.4375 11.5625 4.97652 11.5625 6.875V11.25C11.5625 11.7678 11.1428 12.1875 10.625 12.1875C10.1072 12.1875 9.6875 11.7678 9.6875 11.25V6.875C9.6875 3.94099 12.066 1.5625 15 1.5625C17.934 1.5625 20.3125 3.94099 20.3125 6.875V11.25C20.3125 11.7678 19.8928 12.1875 19.375 12.1875C18.8572 12.1875 18.4375 11.7678 18.4375 11.25V6.875C18.4375 4.97652 16.8985 3.4375 15 3.4375Z" fill="white"/>
        </g>
        <g id="hpa-search">
          <path xmlns="http://www.w3.org/2000/svg" d="M14.4302 12.8608C14.6807 13.1392 14.6807 13.5566 14.4023 13.8071L13.623 14.5864C13.3726 14.8647 12.9551 14.8647 12.6768 14.5864L9.92139 11.8311C9.78223 11.6919 9.72656 11.5249 9.72656 11.3579V10.8848C8.72461 11.6641 7.5 12.1094 6.16406 12.1094C2.96338 12.1094 0.375 9.521 0.375 6.32031C0.375 3.14746 2.96338 0.53125 6.16406 0.53125C9.33691 0.53125 11.9531 3.14746 11.9531 6.32031C11.9531 7.68408 11.48 8.90869 10.7285 9.88281H11.1738C11.3408 9.88281 11.5078 9.96631 11.647 10.0776L14.4302 12.8608ZM6.16406 9.88281C8.1123 9.88281 9.72656 8.29639 9.72656 6.32031C9.72656 4.37207 8.1123 2.75781 6.16406 2.75781C4.18799 2.75781 2.60156 4.37207 2.60156 6.32031C2.60156 8.29639 4.18799 9.88281 6.16406 9.88281Z" fill="#80888E"/>
        </g>
        <g id="linkedin">
          <path d="M16.0003 0.851562C7.16345 0.851562 0 8.01501 0 16.8518C0 25.6886 7.16345 32.8521 16.0003 32.8521C24.8371 32.8521 32.0005 25.6886 32.0005 16.8518C32.0005 8.01501 24.8371 0.851562 16.0003 0.851562ZM12.0835 23.4836H8.84348V13.0568H12.0835V23.4836ZM10.4435 11.7767C9.42015 11.7767 8.75848 11.0517 8.75848 10.155C8.75848 9.24003 9.44016 8.53669 10.4852 8.53669C11.5302 8.53669 12.1702 9.24003 12.1902 10.155C12.1902 11.0517 11.5302 11.7767 10.4435 11.7767ZM23.9171 23.4836H20.677V17.7052C20.677 16.3602 20.207 15.4468 19.0353 15.4468C18.1403 15.4468 17.6086 16.0651 17.3736 16.6602C17.287 16.8718 17.2653 17.1718 17.2653 17.4702V23.4819H14.0236V16.3818C14.0236 15.0801 13.9819 13.9918 13.9386 13.0551H16.7536L16.9019 14.5035H16.9669C17.3936 13.8234 18.4386 12.8201 20.187 12.8201C22.3187 12.8201 23.9171 14.2484 23.9171 17.3185V23.4836Z" fill="#515151"></path>
        </g>
        <g id="youtube">
          <path d="M18.6711 16.5736L14.9277 14.8269C14.601 14.6752 14.3327 14.8452 14.3327 15.2069V18.497C14.3327 18.8586 14.601 19.0286 14.9277 18.877L18.6694 17.1303C18.9978 16.9769 18.9978 16.7269 18.6711 16.5736ZM15.9994 0.851562C7.16251 0.851562 -0.000976562 8.01505 -0.000976562 16.8519C-0.000976562 25.6888 7.16251 32.8523 15.9994 32.8523C24.8362 32.8523 31.9997 25.6888 31.9997 16.8519C31.9997 8.01505 24.8362 0.851562 15.9994 0.851562ZM15.9994 23.3521C7.80919 23.3521 7.66586 22.6137 7.66586 16.8519C7.66586 11.0901 7.80919 10.3518 15.9994 10.3518C24.1896 10.3518 24.3329 11.0901 24.3329 16.8519C24.3329 22.6137 24.1896 23.3521 15.9994 23.3521Z" fill="#515151"></path>
        </g>
        <g id="facebook">
            <path d="M32 17.1855C32 8.35355 24.832 1.18555 16 1.18555C7.168 1.18555 0 8.35355 0 17.1855C0 24.9296 5.504 31.3775 12.8 32.8655V21.9855H9.6V17.1855H12.8V13.1855C12.8 10.0975 15.312 7.58555 18.4 7.58555H22.4V12.3855H19.2C18.32 12.3855 17.6 13.1055 17.6 13.9855V17.1855H22.4V21.9855H17.6V33.1056C25.68 32.3056 32 25.4895 32 17.1855Z" fill="#515151"/>
        </g>
        <g id="instagram">
          <path d="M18.5765 17.2416C18.5668 17.7484 18.4069 18.241 18.117 18.6568C17.8271 19.0727 17.4202 19.3931 16.948 19.5775C16.4757 19.7618 15.9594 19.8018 15.4644 19.6924C14.9694 19.583 14.5181 19.329 14.1676 18.9628C13.817 18.5966 13.5832 18.1345 13.4956 17.6352C13.4079 17.1359 13.4706 16.6218 13.6754 16.1581C13.8803 15.6944 14.2183 15.302 14.6465 15.0306C15.0746 14.7592 15.5737 14.621 16.0805 14.6336C16.754 14.6585 17.3912 14.9448 17.8572 15.4316C18.3231 15.9185 18.5811 16.5677 18.5765 17.2416Z" fill="#515151"/>
          <path d="M20.4212 9.22266H11.7413C10.8824 9.22266 10.0587 9.56384 9.45142 10.1711C8.84411 10.7785 8.50293 11.6021 8.50293 12.461V21.3361C8.50293 21.7614 8.58669 22.1825 8.74943 22.5754C8.91218 22.9683 9.15071 23.3253 9.45142 23.626C9.75213 23.9267 10.1091 24.1652 10.502 24.328C10.8949 24.4907 11.316 24.5745 11.7413 24.5745H20.4212C20.8464 24.5745 21.2675 24.4907 21.6604 24.328C22.0533 24.1652 22.4103 23.9267 22.711 23.626C23.0118 23.3253 23.2503 22.9683 23.413 22.5754C23.5758 22.1825 23.6595 21.7614 23.6595 21.3361V12.477C23.6612 12.0505 23.5787 11.6279 23.4168 11.2333C23.2548 10.8388 23.0166 10.4801 22.7158 10.1777C22.4149 9.87542 22.0574 9.63544 21.6637 9.47154C21.2699 9.30765 20.8477 9.22307 20.4212 9.22266ZM16.0804 21.5793C15.2212 21.5987 14.3757 21.3616 13.6517 20.8984C12.9278 20.4351 12.3583 19.7667 12.016 18.9783C11.6736 18.19 11.5739 17.3175 11.7296 16.4723C11.8853 15.627 12.2893 14.8473 12.8901 14.2327C13.4908 13.6181 14.2611 13.1964 15.1026 13.0214C15.944 12.8465 16.8186 12.9263 17.6145 13.2505C18.4105 13.5748 19.0917 14.1289 19.5714 14.842C20.0511 15.5552 20.3074 16.3951 20.3076 17.2546C20.3146 17.8162 20.2107 18.3738 20.0019 18.8953C19.7932 19.4167 19.4836 19.8919 19.091 20.2936C18.6983 20.6953 18.2303 21.0157 17.7137 21.2363C17.1971 21.4569 16.6421 21.5735 16.0804 21.5793ZM20.778 12.9314C20.6724 12.9314 20.5679 12.9104 20.4705 12.8695C20.3732 12.8286 20.285 12.7687 20.2111 12.6933C20.1372 12.618 20.0791 12.5286 20.0401 12.4304C20.0012 12.3323 19.9823 12.2274 19.9844 12.1218C19.9844 11.9071 20.0697 11.7012 20.2215 11.5494C20.3733 11.3975 20.5793 11.3122 20.794 11.3122C21.0087 11.3122 21.2146 11.3975 21.3664 11.5494C21.5183 11.7012 21.6036 11.9071 21.6036 12.1218C21.6067 12.2361 21.5852 12.3498 21.5404 12.4549C21.4956 12.5601 21.4285 12.6544 21.3439 12.7313C21.2593 12.8082 21.159 12.8659 21.05 12.9004C20.941 12.9349 20.8258 12.9455 20.7124 12.9314H20.778Z" fill="#515151"/>
          <path d="M16.08 0.851763C11.8366 0.830546 7.75855 2.49589 4.743 5.48143C1.72745 8.46697 0.0214173 12.5282 0.000200276 16.7716C-0.0210168 21.015 1.64432 25.093 4.62987 28.1086C7.61541 31.1241 11.6766 32.8301 15.92 32.8514C18.0211 32.8619 20.1037 32.4584 22.0489 31.6641C23.9942 30.8697 25.7639 29.7 27.257 28.2217C28.7501 26.7434 29.9375 24.9855 30.7513 23.0483C31.565 21.1112 31.9893 19.0327 31.9998 16.9316C32.0103 14.8304 31.6069 12.7478 30.8125 10.8026C30.0181 8.85741 28.8484 7.08771 27.3701 5.59456C25.8918 4.10142 24.1339 2.91406 22.1968 2.10029C20.2596 1.28652 18.1811 0.862268 16.08 0.851763ZM25.7967 21.1747C25.8011 21.8925 25.6631 22.6041 25.3905 23.2681C25.1179 23.9322 24.7162 24.5355 24.2087 25.0431C23.7012 25.5508 23.098 25.9527 22.434 26.2254C21.7701 26.4982 21.0586 26.6365 20.3407 26.6322H11.8225C11.1046 26.6367 10.3931 26.4986 9.72905 26.226C9.06501 25.9535 8.46167 25.5518 7.95402 25.0443C7.44637 24.5368 7.04451 23.9336 6.77173 23.2696C6.49895 22.6056 6.36067 21.8941 6.36492 21.1763V12.6564C6.36046 11.9386 6.49853 11.2271 6.77111 10.563C7.0437 9.89897 7.44539 9.29563 7.95289 8.78798C8.46039 8.28034 9.0636 7.87847 9.72757 7.60569C10.3915 7.33291 11.103 7.19463 11.8209 7.19888H20.3407C21.0584 7.19464 21.7698 7.33286 22.4337 7.60554C23.0975 7.87822 23.7007 8.27994 24.2081 8.78742C24.7156 9.2949 25.1173 9.89804 25.39 10.5619C25.6627 11.2258 25.8009 11.9371 25.7967 12.6548V21.1747Z" fill="#515151"/>
        </g>
        <g id='nav-home'>
          <path d="M2.74984 15.5117V5.51172L0.666504 7.17839L8.99984 0.511719L17.3332 7.17839L15.2498 5.51172V15.5117H2.74984Z" stroke="#4D5156" stroke-linejoin="round"/>
          <path d="M6.9165 10.0951V15.5117H11.0832V10.0951H6.9165Z" stroke="#4D5156" stroke-linejoin="round"/>
        </g>
        <g id="hpa-cart" width='24' height='24 viewBox="0 0 32 32"'>
          <path id="Vector" fill-rule="evenodd" clip-rule="evenodd" d="M1.56641 4C1.56641 3.80109 1.64542 3.61032 1.78608 3.46967C1.92673 3.32902 2.11749 3.25 2.31641 3.25H3.49741C4.0399 3.25003 4.56411 3.44606 4.97352 3.80199C5.38292 4.15792 5.64994 4.64978 5.72541 5.187L5.78641 5.622H19.7514C20.1248 5.62201 20.4924 5.71495 20.8209 5.89244C21.1494 6.06994 21.4286 6.32641 21.6333 6.63872C21.8379 6.95104 21.9617 7.30939 21.9933 7.68146C22.0249 8.05353 21.9634 8.42762 21.8144 8.77L19.1464 14.898C18.9715 15.2998 18.6832 15.6417 18.3167 15.8819C17.9502 16.1221 17.5216 16.25 17.0834 16.25H7.72241C7.17991 16.25 6.6557 16.0539 6.2463 15.698C5.83689 15.3421 5.56987 14.8502 5.49441 14.313L4.24041 5.396C4.21532 5.21681 4.12629 5.05273 3.98975 4.93401C3.8532 4.81529 3.67834 4.74994 3.49741 4.75H2.31741C2.11849 4.75 1.92773 4.67098 1.78708 4.53033C1.64642 4.38968 1.56741 4.19891 1.56741 4M5.99841 7.122L6.98041 14.104C7.0055 14.2832 7.09452 14.4473 7.23106 14.566C7.36761 14.6847 7.54247 14.7501 7.72341 14.75H17.0844C17.2304 14.7501 17.3733 14.7076 17.4956 14.6277C17.6178 14.5477 17.714 14.4338 17.7724 14.3L20.4394 8.17C20.4888 8.05599 20.509 7.9315 20.4984 7.80771C20.4877 7.68393 20.4465 7.56473 20.3784 7.46082C20.3103 7.35691 20.2174 7.27156 20.1082 7.21242C19.9989 7.15328 19.8766 7.12221 19.7524 7.122H5.99841Z" fill="#F0F6FE"/>
          <path id="Vector_2" d="M6.03418 19.5C6.03418 19.0359 6.21855 18.5908 6.54674 18.2626C6.87493 17.9344 7.32005 17.75 7.78418 17.75C8.24831 17.75 8.69343 17.9344 9.02162 18.2626C9.34981 18.5908 9.53418 19.0359 9.53418 19.5C9.53418 19.9641 9.34981 20.4092 9.02162 20.7374C8.69343 21.0656 8.24831 21.25 7.78418 21.25C7.32005 21.25 6.87493 21.0656 6.54674 20.7374C6.21855 20.4092 6.03418 19.9641 6.03418 19.5ZM16.3202 17.75C15.8561 17.75 15.4109 17.9344 15.0827 18.2626C14.7546 18.5908 14.5702 19.0359 14.5702 19.5C14.5702 19.9641 14.7546 20.4092 15.0827 20.7374C15.4109 21.0656 15.8561 21.25 16.3202 21.25C16.7843 21.25 17.2294 21.0656 17.5576 20.7374C17.8858 20.4092 18.0702 19.9641 18.0702 19.5C18.0702 19.0359 17.8858 18.5908 17.5576 18.2626C17.2294 17.9344 16.7843 17.75 16.3202 17.75Z" fill="#F0F6FE"/>
        </g>
    </defs>
</svg>
