<svg class="dn" height="0" version="1.1" width="0" xmlns="http://www.w3.org/2000/svg">
    <defs>
        <g id="hpa-wishlist">
          <path id="Vector" d="M1.5625 11.875C1.5625 7.5603 5.06028 4.0625 9.375 4.0625C11.5846 4.0625 13.5799 4.98047 15 6.45339C16.4201 4.98047 18.4154 4.0625 20.625 4.0625C24.9397 4.0625 28.4375 7.5603 28.4375 11.875C28.4375 15.6726 26.2085 19.1791 23.5568 21.857C20.896 24.5441 17.6489 26.5615 15.2956 27.3435C15.1037 27.4073 14.8963 27.4073 14.7044 27.3435C12.3511 26.5615 9.10401 24.5441 6.44321 21.857C3.79153 19.1791 1.5625 15.6726 1.5625 11.875ZM9.375 5.9375C6.09581 5.9375 3.4375 8.59583 3.4375 11.875C3.4375 14.9524 5.27097 18.0084 7.77554 20.5377C10.152 22.9377 12.9887 24.7159 15 25.4603C17.0113 24.7159 19.848 22.9377 22.2245 20.5377C24.729 18.0084 26.5625 14.9524 26.5625 11.875C26.5625 8.59583 23.9042 5.9375 20.625 5.9375C18.6177 5.9375 16.8426 6.93276 15.7665 8.4609C15.5909 8.71027 15.305 8.85863 15 8.85863C14.695 8.85863 14.4091 8.71027 14.2335 8.4609C13.1574 6.93276 11.3823 5.9375 9.375 5.9375Z" fill="white"/>
        </g>
        <g id='minicart-icon'>
          <path d="M6.25 9.6875C6.07741 9.6875 5.9375 9.82741 5.9375 10V26.25C5.9375 26.4226 6.07741 26.5625 6.25 26.5625H23.75C23.9226 26.5625 24.0625 26.4226 24.0625 26.25V10C24.0625 9.82741 23.9226 9.6875 23.75 9.6875H6.25ZM4.0625 10C4.0625 8.79188 5.04188 7.8125 6.25 7.8125H23.75C24.9581 7.8125 25.9375 8.79188 25.9375 10V26.25C25.9375 27.4581 24.9581 28.4375 23.75 28.4375H6.25C5.04188 28.4375 4.0625 27.4581 4.0625 26.25V10Z" fill="white"/>
          <path d="M15 3.4375C13.1015 3.4375 11.5625 4.97652 11.5625 6.875V11.25C11.5625 11.7678 11.1428 12.1875 10.625 12.1875C10.1072 12.1875 9.6875 11.7678 9.6875 11.25V6.875C9.6875 3.94099 12.066 1.5625 15 1.5625C17.934 1.5625 20.3125 3.94099 20.3125 6.875V11.25C20.3125 11.7678 19.8928 12.1875 19.375 12.1875C18.8572 12.1875 18.4375 11.7678 18.4375 11.25V6.875C18.4375 4.97652 16.8985 3.4375 15 3.4375Z" fill="white"/>
        </g>
        <g id="hpa-search">
          <path xmlns="http://www.w3.org/2000/svg" d="M14.4302 12.8608C14.6807 13.1392 14.6807 13.5566 14.4023 13.8071L13.623 14.5864C13.3726 14.8647 12.9551 14.8647 12.6768 14.5864L9.92139 11.8311C9.78223 11.6919 9.72656 11.5249 9.72656 11.3579V10.8848C8.72461 11.6641 7.5 12.1094 6.16406 12.1094C2.96338 12.1094 0.375 9.521 0.375 6.32031C0.375 3.14746 2.96338 0.53125 6.16406 0.53125C9.33691 0.53125 11.9531 3.14746 11.9531 6.32031C11.9531 7.68408 11.48 8.90869 10.7285 9.88281H11.1738C11.3408 9.88281 11.5078 9.96631 11.647 10.0776L14.4302 12.8608ZM6.16406 9.88281C8.1123 9.88281 9.72656 8.29639 9.72656 6.32031C9.72656 4.37207 8.1123 2.75781 6.16406 2.75781C4.18799 2.75781 2.60156 4.37207 2.60156 6.32031C2.60156 8.29639 4.18799 9.88281 6.16406 9.88281Z" fill="#80888E"/>
        </g>
    </defs>
</svg>
